<?xml version="1.0" encoding="UTF-8" standalone="no"?>
<!-- Created with Inkscape (http://www.inkscape.org/) -->

<svg
   xmlns:dc="http://purl.org/dc/elements/1.1/"
   xmlns:cc="http://creativecommons.org/ns#"
   xmlns:rdf="http://www.w3.org/1999/02/22-rdf-syntax-ns#"
   xmlns:svg="http://www.w3.org/2000/svg"
   xmlns="http://www.w3.org/2000/svg"
   xmlns:sodipodi="http://sodipodi.sourceforge.net/DTD/sodipodi-0.dtd"
   xmlns:inkscape="http://www.inkscape.org/namespaces/inkscape"
   width="92.125984"
   height="131.10236"
   id="svg2"
   version="1.1"
   inkscape:version="0.48.5 r10040"
   sodipodi:docname="ball.svg">
  <defs
     id="defs4" />
  <sodipodi:namedview
     id="base"
     pagecolor="#ffffff"
     bordercolor="#666666"
     borderopacity="1.0"
     inkscape:pageopacity="0.0"
     inkscape:pageshadow="2"
     inkscape:zoom="0.98994949"
     inkscape:cx="90.00509"
     inkscape:cy="0.7982484"
     inkscape:document-units="px"
     inkscape:current-layer="layer1"
     showgrid="false"
     inkscape:window-width="1536"
     inkscape:window-height="801"
     inkscape:window-x="-8"
     inkscape:window-y="-8"
     inkscape:window-maximized="1"
     showguides="true"
     inkscape:guide-bbox="true" />
  <metadata
     id="metadata7">
    <rdf:RDF>
      <cc:Work
         rdf:about="">
        <dc:format>image/svg+xml</dc:format>
        <dc:type
           rdf:resource="http://purl.org/dc/dcmitype/StillImage" />
        <dc:title />
      </cc:Work>
    </rdf:RDF>
  </metadata>
  <g
     inkscape:label="Layer 1"
     inkscape:groupmode="layer"
     id="layer1"
     transform="translate(0,-921.25977)">
    <path
       style="fill:#000000"
       d="m 165.54917,670.20676 c -4.29276,-1.024 -8.33522,-4.0723 -14.35905,-10.82788 -5.67001,-6.35876 -10.5502,-15.358 -9.62954,-17.7572 0.69382,-1.80808 9.69037,-6.00895 15.00323,-7.00565 3.00961,-0.5646 5.01974,-2.29969 11.66558,-10.0694 4.41617,-5.16299 8.47851,-9.38726 9.02743,-9.38726 1.34094,0 5.27979,2.53253 11.9899,7.70903 5.55604,4.28618 5.57177,4.29097 14.11043,4.29097 11.59866,0 17.87179,0.95229 18.58924,2.82193 1.42834,3.72218 -1.88203,15.68333 -7.03216,25.40891 l -5.20906,9.83685 -6.13852,1.896 c -11.4419,3.534 -29.86491,5.0283 -38.01748,3.0837 z m 18.24621,-5.79737 c -0.28813,-0.9625 -1.27231,-4.78412 -2.18706,-8.49245 l -1.66318,-6.74244 -3.4714,5.74244 c -1.90925,3.15833 -4.11696,6.97995 -4.90599,8.49245 l -1.43462,2.74997 7.09306,0 c 6.28822,0 7.03363,-0.1986 6.56919,-1.74997 z m 13.96329,-0.373 c 2.4529,-0.6177 4.66529,-1.4555 4.91642,-1.8618 0.25113,-0.4064 -3.42158,-4.26916 -8.16158,-8.58404 l -8.6182,-7.84522 0.71339,4.75717 c 1.21713,8.11646 3.52494,14.65686 5.17171,14.65686 0.83514,0 3.52536,-0.5054 5.97826,-1.12297 z m -28.46071,-8.12702 c 2.27468,-4.5375 4.99011,-9.45907 6.03427,-10.93682 l 1.89846,-2.68682 -3.26649,0.93682 c -1.79658,0.51525 -6.64448,0.97018 -10.77311,1.01094 -4.12863,0.0408 -9.46223,0.37827 -11.85244,0.75 l -4.34585,0.67588 3.34585,4.96118 c 2.77615,4.11645 12.77848,13.53884 14.37214,13.53884 0.24826,0 2.31249,-3.71252 4.58717,-8.25002 z m 40.88653,3.65894 c 0,-0.19039 -0.675,-0.0872 -1.5,0.22943 -0.825,0.31659 -1.5,1.03256 -1.5,1.59105 0,0.5853 0.63541,0.4881 1.5,-0.2294 0.825,-0.68471 1.5,-1.40069 1.5,-1.59108 z m -6,-1.78649 c 0,-0.20766 -0.7875,-0.99516 -1.75,-1.75 -1.58606,-1.24388 -1.62143,-1.20851 -0.37756,0.37755 1.30637,1.66575 2.12756,2.19548 2.12756,1.37245 z m 9.05323,-10.12245 c 3.50179,-7.4344 4.76623,-13.50657 2.80805,-13.48502 -0.7487,0.008 -7.30688,1.48795 -14.57373,3.28824 l -13.21244,3.27326 9.71244,8.08606 c 11.05843,9.20665 10.35634,9.26011 15.26568,-1.16254 z m -29.44906,2.77083 c -0.33229,-0.33229 -0.56864,0.25834 -0.52522,1.3125 0.048,1.16495 0.28494,1.4019 0.60416,0.60417 0.28888,-0.72187 0.25335,-1.58437 -0.0789,-1.91667 z m -7.60417,-0.27083 c 0.58869,-1.1 0.84536,-2 0.57036,-2 -0.275,0 -0.98166,0.9 -1.57036,2 -0.5887,1.1 -0.84537,2 -0.57037,2 0.275,0 0.98167,-0.9 1.57037,-2 z m 21,1.62245 c 0,-0.20766 -0.7875,-0.99516 -1.75,-1.75 -1.58606,-1.24388 -1.62143,-1.20851 -0.37756,0.37755 1.30637,1.66575 2.12756,2.19548 2.12756,1.37245 z m -14.07029,-6.87245 c -0.0572,-2.64657 -0.21721,-2.87866 -0.86161,-1.25 -0.43523,1.1 -0.58046,2.5625 -0.32273,3.25 0.80419,2.14515 1.25744,1.37975 1.18434,-2 z m -1.67212,-3.31718 c 0.61591,-3.22188 0.1228,-3.06908 -1.7437,0.54032 -1.26732,2.45073 -1.29006,2.8782 -0.12941,2.43282 0.77443,-0.29718 1.61733,-1.63509 1.87311,-2.97314 z m -25.25759,-0.19569 c 0,-0.41958 1.0125,-1.20708 2.25,-1.75 2.31656,-1.01633 2.6214,-2.69666 0.6108,-3.36686 -0.62798,-0.20933 -0.82904,0.1221 -0.44806,0.73854 0.42808,0.69265 0.14429,0.90844 -0.74562,0.56695 -0.79021,-0.30323 -4.07608,0.58344 -7.30193,1.97039 l -5.86519,2.52172 5.75,0.0411 c 3.1625,0.0226 5.75,-0.30223 5.75,-0.72181 z m 16.03724,-2.24419 c 2.92062,-0.55389 5.48662,-1.18346 5.70221,-1.39906 0.2156,-0.2156 -0.0425,-2.12492 -0.57344,-4.24294 -0.53101,-2.11802 -1.25418,-5.1284 -1.60707,-6.68974 -0.63629,-2.81523 -0.69111,-2.77809 -6.60028,4.472 -3.27726,4.02094 -5.95866,7.6609 -5.95866,8.0888 0,1.04681 2.66591,0.97924 9.03724,-0.22906 z m 22.58653,-5.28338 c 0.22929,-0.22928 -1.27976,-1.59011 -3.35344,-3.02407 -2.07368,-1.43395 -4.9,-3.48378 -6.2807,-4.55518 l -2.51037,-1.94801 0.94502,6.26963 0.94502,6.26963 4.91879,-1.29756 c 2.70534,-0.71365 5.10639,-1.48515 5.33568,-1.71444 z m -14.58937,-7.44447 c -0.64409,-2.87921 -0.91791,-5.64455 -0.60848,-6.14522 0.30942,-0.50066 -0.025,-1.13579 -0.74325,-1.4114 -1.48514,-0.5699 -1.35345,2.08559 0.58473,11.79153 0.82129,4.11278 1.31452,5.21366 1.56811,3.5 0.20349,-1.375 -0.15702,-4.85571 -0.80111,-7.73491 z m 21.83892,5.73491 c 0.39968,0 1.15418,0.36567 1.67668,0.8126 0.5225,0.44693 4.325,0.04 8.45,-0.90426 7.36563,-1.6861 7.41595,-1.71858 2.80902,-1.8126 -2.58004,-0.0527 -4.9691,0.35426 -5.30902,0.90426 -0.91009,1.47256 -3.5,1.21684 -3.5,-0.34557 0,-1.76156 -4.84632,-1.52111 -5.96947,0.29617 -0.46502,0.75242 -0.56292,2.08384 -0.21755,2.95872 0.54976,1.39265 0.67186,1.37282 0.9808,-0.15932 0.19408,-0.9625 0.67987,-1.75 1.07954,-1.75 z"
       id="path3780-7"
       inkscape:connector-curvature="0"
       sodipodi:nodetypes="sssssssssscsssscsscssssscssssscssscssssssssssssscscsscccccssssssssscsscsssssssssscsssccssssssscccsssccscsssssssssss" />
    <path
       style="fill:#000000"
       d="m -163.97461,1161.9423 c 0.2747,-3.8368 0.19747,-3.9824 -1.89704,-3.5729 -2.35557,0.4605 -2.88611,-1.3675 -1.44072,-4.9649 0.63993,-1.5927 0.43383,-1.7879 -1.4903,-1.4117 -1.2282,0.24 -2.46805,-0.07 -2.75526,-0.689 -1.42203,-3.0648 5.76106,-13.3313 12.81804,-18.3203 1.85593,-1.312 3.57974,-3.3351 3.83067,-4.4956 0.49727,-2.3003 1.75874,-3.9003 10.47062,-13.2798 l 5.79448,-6.2386 -3.81427,0.046 c -2.09791,0.025 -5.24011,0.7304 -6.98269,1.5667 -4.514,2.1661 -5.94062,1.9856 -5.94062,-0.752 0,-3.1006 6.53643,-11.3549 11.50144,-14.5242 3.2652,-2.0841 5.66394,-2.6256 13.93416,-3.1453 6.06656,-0.3813 10.4505,-1.1368 11.1625,-1.9239 3.83131,-4.2353 20.522311,-11.1228 30.134869,-12.4349 l 5.346559,-0.7299 0,2.7625 c 0,4.3601 -4.412535,20.1836 -7.055081,25.2995 -1.321353,2.5581 -4.267663,7.3695 -6.547514,10.6921 -3.882233,5.658 -4.180773,6.4871 -4.709403,13.0769 -1.08737,13.5548 -6.7491,29.2271 -11.8799,32.8846 -2.40682,1.7158 -3.64096,-0.2115 -2.42036,-3.7798 1.06139,-3.1028 1.22788,-13.0161 0.25299,-15.0631 -0.47668,-1.0009 -2.95408,1.1951 -9.22389,8.1766 -4.71471,5.2498 -8.90704,9.5452 -9.31639,9.5452 -0.83351,0 -4.12604,-4.3381 -9.07078,-11.9513 l -3.30821,-5.0933 -5.3906,7.7272 c -11.73676,16.8246 -12.49756,17.496 -12.0033,10.5928 z m 3.50362,-12.0335 c -1.49553,-2.844 -1.6305,-6.796 -0.25727,-7.5341 0.54456,-0.2926 0.099,-0.6071 -0.9901,-0.6987 -1.08911,-0.092 -1.53466,-0.4061 -0.9901,-0.6988 0.54455,-0.2926 0.9901,-1.0255 0.9901,-1.6285 0,-0.6655 -0.46345,-0.5839 -1.17933,0.2075 -0.64872,0.7171 -1.00397,1.6819 -0.78955,2.1442 0.63818,1.3755 -0.49117,4.1958 -1.68017,4.1958 -0.60689,0 -1.10345,0.4304 -1.10345,0.9563 0,0.5259 0.62377,0.7571 1.38615,0.5138 0.76238,-0.2434 1.9208,0.024 2.57427,0.5941 0.97909,0.8542 1.01394,1.411 0.19802,3.1645 -1.27597,2.7424 -1.24706,3.2117 0.19802,3.2117 0.65347,0 1.21632,0.8308 1.2507,1.8463 0.0396,1.1735 0.34994,0.7989 0.85125,-1.0279 0.60459,-2.203 0.4975,-3.4281 -0.45854,-5.2462 z m -1.13387,3.4707 c -0.79683,-0.6594 -0.83438,-1.0871 -0.14534,-1.6543 1.08689,-0.8948 1.9029,-0.1023 1.50052,1.4565 -0.16475,0.6386 -0.72396,0.7203 -1.35518,0.1978 z m 23.53793,-3.4224 c -2.5254,-3.624 -4.746,-6.3762 -4.93475,-6.1162 -0.47541,0.6552 8.45659,13.5858 9.0482,13.0987 0.26305,-0.2165 -1.58797,-3.3587 -4.11345,-6.9825 z m 25.93263,4.8002 c -0.23834,-0.8272 0.0578,-1.4758 0.67351,-1.4758 0.60428,0 1.84056,-1.599 2.74742,-3.5534 1.96016,-4.2246 1.99415,-4.5353 0.49544,-4.5353 -0.63429,0 -1.01426,0.2996 -0.84428,0.6658 0.16991,0.3662 -0.0182,1.3554 -0.41877,2.198 -0.54044,1.138 -0.74519,0.7178 -0.79549,-1.6329 -0.057,-2.6773 -0.1661,-2.8398 -0.70511,-1.055 -0.3505,1.1605 -0.43525,2.5848 -0.18836,3.1651 0.24697,0.5803 -0.17584,0.3794 -0.93949,-0.4464 -1.29347,-1.3986 -1.37173,-1.1349 -1.14408,3.8574 0.13434,2.9473 0.53687,5.1178 0.89434,4.8235 0.35754,-0.2943 0.45869,-1.1992 0.22487,-2.011 z m -9.36297,-10.9625 c 4.4054,-5.1198 5.98418,-6.4088 6.6931,-5.4646 1.13719,1.5148 3.27273,1.6499 2.58306,0.1634 -0.27367,-0.5898 -0.88444,-0.7538 -1.35731,-0.3645 -0.54931,0.4522 -0.62836,0.2091 -0.21894,-0.6733 0.42409,-0.9139 0.33149,-1.1264 -0.27358,-0.6283 -0.50297,0.414 -0.91454,0.2008 -0.91454,-0.4738 0,-0.6746 -1.33664,0.2634 -2.97031,2.0845 -1.63367,1.8212 -3.49768,3.8881 -4.14236,4.5933 -0.64467,0.7051 -1.44665,1.1634 -1.78218,1.0184 -0.33553,-0.1451 -0.52103,0.2703 -0.41212,0.9231 0.10891,0.6528 -0.29711,1.4266 -0.90234,1.7194 -0.63913,0.3094 -0.8827,0.063 -0.58107,-0.5865 0.28554,-0.6154 0.15112,-1.4219 -0.29878,-1.7923 -0.44982,-0.3703 -0.61283,-1.1153 -0.36214,-1.6555 0.25062,-0.5402 0.0784,-0.9821 -0.38313,-0.9821 -0.46139,0 -0.83889,-0.4476 -0.83889,-0.9945 0,-0.5469 0.72245,-0.8091 1.60539,-0.5827 0.88286,0.2265 1.39652,-0.038 1.14131,-0.5881 -0.77957,-1.6803 -2.38322,-1.1238 -4.20509,1.4595 l -1.7345,2.4592 1.67961,2.0247 c 0.92381,1.1135 1.82045,1.906 1.99249,1.7609 0.97228,-0.8197 1.16214,-0.044 0.32016,1.3072 -0.53838,0.864 -1.2705,1.3308 -1.62694,1.0373 -0.68919,-0.5673 -3.13285,3.4959 -3.13285,5.2092 0,0.5597 0.98021,-0.1729 2.17823,-1.6281 1.19803,-1.4551 4.77269,-5.6608 7.94372,-9.3458 z m -6.95362,0.8705 c 0,-0.4835 0.33545,-0.8792 0.74535,-0.8792 0.40999,0 0.92896,0.3957 1.15328,0.8792 0.22439,0.4836 -0.11097,0.8793 -0.74535,0.8793 -0.63422,0 -1.15328,-0.3957 -1.15328,-0.8793 z m -26.81493,5.1095 c -0.63549,-1.02 -0.61893,-1.7315 0.0618,-2.6377 0.57521,-0.7661 0.61664,-1.2409 0.10828,-1.2409 -0.45291,0 -1.22939,1.1869 -1.72563,2.6376 -0.80658,2.3578 -0.72571,2.6376 0.7619,2.6376 1.29102,0 1.46908,-0.3132 0.79399,-1.3966 z m 23.20803,-0.2235 c 1.19636,-1.2051 1.32935,-1.8356 0.59406,-2.8151 -0.52111,-0.6941 -0.95113,-2.2353 -0.95557,-3.4249 -0.008,-1.5292 -0.96111,-2.6963 -3.26108,-3.9836 -2.95368,-1.6532 -3.22061,-2.1143 -2.9014,-5.0115 0.28618,-2.5976 0.0713,-3.1907 -1.15636,-3.1907 -0.82932,0 -2.51138,-1.3367 -3.73792,-2.9704 -1.90037,-2.5313 -2.43288,-2.7727 -3.60279,-1.6332 -0.75501,0.7354 -1.18622,1.9533 -0.95818,2.7065 0.63461,2.0963 13.18501,21.9477 13.85154,21.9095 0.32238,-0.018 1.27985,-0.7324 2.1277,-1.5866 z m -18.57141,-4.2449 c 0,-0.2559 -0.35644,-0.4652 -0.79209,-0.4652 -0.43564,0 -0.79208,0.5027 -0.79208,1.1173 0,0.6145 0.35644,0.8238 0.79208,0.4652 0.43565,-0.3586 0.79209,-0.8614 0.79209,-1.1173 z m 0.74194,-6.2582 c -0.0452,-1.9159 -0.12103,-1.885 -0.78543,0.3216 -0.40436,1.343 -1.03525,2.1948 -1.4019,1.8928 -0.36674,-0.3018 -0.66678,0.097 -0.66678,0.8865 0,1.1276 0.31121,1.1764 1.45212,0.2272 0.79866,-0.6643 1.42956,-2.162 1.40199,-3.3281 z m -4.70236,1.2867 c 0.94638,-0.4798 0.90615,-0.6194 -0.19802,-0.6858 -1.58361,-0.095 -1.88959,-2.833 -0.39604,-3.5436 0.54456,-0.259 0.7223,-0.8532 0.39485,-1.3204 -0.78938,-1.1263 -4.55328,1.604 -4.55328,3.3031 0,0.7319 0.80198,1.5367 1.78218,1.7882 1.69332,0.4344 1.68342,0.468 -0.19802,0.675 -1.81395,0.1995 -1.84721,0.288 -0.39604,1.0547 0.87129,0.4604 1.76239,0.4981 1.98021,0.084 0.21782,-0.4141 0.93069,-1.0239 1.58416,-1.3553 z m 43.56455,0.7007 c 0,-0.2281 -0.53465,-0.4147 -1.18812,-0.4147 -0.65347,0 -1.18812,0.4599 -1.18812,1.022 0,0.562 0.53465,0.7486 1.18812,0.4146 0.65347,-0.334 1.18812,-0.7938 1.18812,-1.0219 z m 6.33374,-4.4761 c 0.45101,-2.1183 1.03588,-6.7001 1.29964,-10.1817 l 0.47961,-6.3303 -5.63717,7.3525 -5.63726,7.3525 1.77878,2.2514 c 0.97831,1.2382 1.95692,1.9651 2.17475,1.6154 0.95469,-1.5331 2.37625,-0.9866 2.37625,0.9135 0,3.4313 2.25212,1.3158 3.1654,-2.9733 z m -6.33374,-0.3322 c 0,-0.6091 0.51652,-0.8434 1.14781,-0.5207 0.72991,0.3731 1.00167,0.079 0.74654,-0.8062 -0.46068,-1.5991 1.86504,-5.1201 2.8477,-4.3111 0.7676,0.6319 0.13148,4.5322 -0.87423,5.3602 -1.4225,1.171 -3.86782,1.3466 -3.86782,0.2778 z m -3.55795,-5.7185 c 7.28589,-8.765 7.47908,-9.1137 5.99179,-10.8142 -2.88105,-3.2941 -10.35466,-17.5658 -10.35466,-19.7734 0,-1.2672 0.83945,-2.799 1.97902,-3.6114 1.08848,-0.776 1.81196,-1.6333 1.60776,-1.9053 -0.61014,-0.8127 -10.66681,8.2317 -17.34613,15.6 -5.43773,5.9988 -5.99844,6.9246 -4.38743,7.2442 2.53451,0.5025 3.9845,3.2831 3.52271,6.7552 -0.3223,2.4236 -0.1059,2.9014 1.31415,2.9014 2.45624,0 4.59701,3.0241 4.59701,6.4938 0,2.5083 0.32958,3.0016 2.00507,3.0016 1.10282,0 2.21023,0.7122 2.46101,1.5826 0.25077,0.8704 0.59659,1.5826 0.76855,1.5826 0.17189,0 3.70046,-4.0757 7.84115,-9.0571 z m -37.34211,6.4254 c -0.24982,-0.867 -0.77331,-1.3138 -1.16325,-0.9927 -1.11842,0.9207 -0.82694,2.5693 0.45418,2.5693 0.70654,0 0.98495,-0.6189 0.70907,-1.5766 z m 19.78567,-1.1118 c -0.27105,-0.941 0.15905,-2.2763 1.01498,-3.1505 1.32167,-1.3501 1.18202,-1.3823 -1.26551,-0.2917 -1.51304,0.6743 -2.31502,1.4195 -1.78219,1.656 0.53283,0.2367 0.9688,0.9235 0.9688,1.5266 0,0.6768 -0.44095,0.6088 -1.15264,-0.1779 -0.90567,-1.0012 -0.95652,-1.6925 -0.23747,-3.2261 0.50329,-1.0735 1.17561,-1.7375 1.49395,-1.4754 0.31834,0.2621 0.78337,0.036 1.03335,-0.5031 0.6564,-1.4147 -1.54409,-0.794 -3.03748,0.8569 -1.50987,1.669 -1.67026,4.9715 -0.27794,5.7198 2.15415,1.1578 3.71534,0.7078 3.24215,-0.9346 z m -20.55945,-3.8349 c -0.22884,-0.4931 -0.74781,-0.6234 -1.15336,-0.2894 -1.03628,0.8531 -0.9196,1.1857 0.41593,1.1857 0.63438,0 0.96618,-0.4033 0.73743,-0.8963 z m 2.29925,-2.9721 c -0.22788,-1.1606 -0.7417,-2.1101 -1.14186,-2.1101 -0.40191,0 -0.34812,0.9444 0.12023,2.1101 0.4663,1.1605 0.98021,2.1101 1.14187,2.1101 0.16174,0 0.10757,-0.9496 -0.12024,-2.1101 z m 13.75816,-4.033 c -1.05347,-0.2741 -1.14218,-0.7544 -0.45521,-2.4643 0.46939,-1.1681 0.64626,-2.3997 0.39319,-2.7368 -0.25315,-0.3372 -0.46028,-0 -0.46028,0.7471 0,1.0558 -0.2518,1.0816 -1.12578,0.1155 -0.92373,-1.0212 -1.04935,-0.855 -0.69965,0.9258 0.30028,1.5295 0.0483,2.1705 -0.85442,2.1705 -1.84048,0 -1.57648,1.4267 0.50163,2.7115 1.24325,0.7687 2.11898,0.7646 2.89569,-0.014 0.93593,-0.9376 0.9048,-1.1697 -0.19517,-1.4558 z m -9.63125,-3.3523 c 0.78852,-1.1606 1.25545,-2.1101 1.03763,-2.1101 -0.21782,0 -1.04119,0.9495 -1.82971,2.1101 -0.78844,1.1605 -1.25537,2.1101 -1.03755,2.1101 0.21782,0 1.04119,-0.9496 1.82963,-2.1101 z m 4.65872,0.4726 c 0.27049,-0.9389 0.13774,-1.3623 -0.31129,-0.9927 -0.43066,0.3545 -0.78306,1.0914 -0.78306,1.6374 0,1.5175 0.56777,1.1832 1.09435,-0.6447 z m 34.11951,-5.675 c 0.2507,-0.5401 0.15288,-1.2314 -0.21726,-1.5361 -0.37014,-0.3047 -0.67296,0.1373 -0.67296,0.9821 0,1.779 0.24975,1.9345 0.89022,0.554 z m 7.10713,-3.3575 c -0.23874,-0.5146 -0.65062,-0.9355 -0.91534,-0.9355 -0.26471,0 -0.24681,0.3124 0.0396,0.6942 0.28666,0.3818 0.0784,1.45 -0.4621,2.3738 -0.86852,1.4837 -0.82258,1.5119 0.39422,0.2413 0.75755,-0.7912 1.18211,-1.8594 0.94337,-2.3738 z m -3.43931,-1.9109 c -0.86551,-0.7299 -0.68642,-1.0519 0.79209,-1.4241 1.05085,-0.2645 0.31342,-0.4629 -1.63875,-0.4408 -1.95216,0.022 -3.10837,0.2359 -2.56935,0.4753 0.53901,0.2393 0.77854,0.8693 0.53236,1.4 -0.24626,0.5307 0.5535,0.9577 1.77719,0.9488 1.61601,-0.012 1.91882,-0.2743 1.10646,-0.9592 z m -7.59441,-1.1347 c -0.26931,-0.5805 0.33323,-1.0925 1.33941,-1.1384 1.00595,-0.045 1.37165,-0.3279 0.81276,-0.627 -1.43597,-0.7683 -3.53807,0.4854 -2.94766,1.7579 0.27113,0.5844 0.67121,1.0625 0.88904,1.0625 0.21782,0 0.17576,-0.4748 -0.0935,-1.055 z m -1.40175,-4.1471 c -0.0634,-1.1204 -0.3821,-1.8173 -0.70828,-1.5488 -0.32618,0.2685 -0.39224,1.1851 -0.14685,2.037 0.61878,2.1479 0.99216,1.9347 0.85513,-0.4882 z m 8.92654,1.349 c -0.65347,-0.2868 -1.901,-0.9268 -2.77229,-1.4221 -0.87129,-0.4955 -2.11882,-1.1355 -2.77229,-1.4222 -0.65347,-0.2868 -0.0507,-0.5589 1.33941,-0.6047 4.45388,-0.1467 3.42449,-1.661 -1.21886,-1.793 -2.66044,-0.076 -3.83423,0.1815 -2.89284,0.6338 0.87129,0.4186 1.40595,1.188 1.18812,1.7099 -0.21782,0.5217 0.40595,1.1004 1.38615,1.2857 0.9802,0.1855 1.78219,0.779 1.78219,1.3189 0,0.5399 1.15842,0.9441 2.57426,0.8983 1.41585,-0.045 2.03962,-0.3179 1.38615,-0.6046 z m 14.800301,-11.4525 c 1.235965,-4.2419 1.401589,-5.5763 0.57917,-4.6671 -0.912875,1.0091 -1.439768,0.9258 -2.54108,-0.4017 -0.85149,-1.0265 -1.798345,-1.3381 -2.445953,-0.805 -0.66915,0.5508 -0.759923,1.1139 -0.247525,1.5357 0.444912,0.3663 0.975133,0.07 1.178223,-0.6594 0.203961,-0.7321 0.785904,0.074 1.299967,1.7993 1.060677,3.5613 -0.132595,7.9534 -2.160802,7.9534 -0.933549,0 -0.964757,0.2993 -0.165229,1.5825 0.557072,0.894 0.639449,1.5826 0.189387,1.5826 -0.43818,0 -0.995173,1.0682 -1.237866,2.3738 -0.833351,4.4845 3.688729,-3.9006 5.551708,-10.2941 z m -53.989391,8.8958 c 0.7787,-3.2681 0.1,-3.3933 -2.46527,-0.4547 l -2.30623,2.6417 2.12492,0 c 1.45537,9e-4 2.2892,-0.6885 2.64658,-2.1883 z m 48.188493,-0.448 c 0.250773,-0.8704 0.110654,-1.5826 -0.311288,-1.5826 -0.422022,0 -0.767291,0.7122 -0.767291,1.5826 0,0.8704 0.14012,1.5826 0.311367,1.5826 0.171169,0 0.516439,-0.7122 0.767212,-1.5826 z m -35.138133,-1.1173 c 0,-0.2559 -0.35644,-0.4653 -0.79208,-0.4653 -0.43565,0 -0.79209,0.5028 -0.79209,1.1173 0,0.6146 0.35644,0.8239 0.79209,0.4653 0.43564,-0.3586 0.79208,-0.8614 0.79208,-1.1173 z m 29.30706,0.5898 c 0,-0.5803 -0.51359,-1.0551 -1.14131,-1.0551 -0.62781,0 -1.36167,0.4748 -1.63098,1.0551 -0.26923,0.5803 0.24444,1.055 1.14139,1.055 0.89704,0 1.6309,-0.4747 1.6309,-1.055 z m -38.01997,-2.7728 c 0,-0.1308 -1.07525,-0.9524 -2.38956,-1.8256 -1.3143,-0.8734 -2.14686,-1.0649 -1.8503,-0.4255 0.33529,0.7224 0.0905,0.9328 -0.64666,0.5561 -0.65236,-0.3335 -1.18503,-0.058 -1.18377,0.6119 0,0.6994 1.29458,1.2401 3.03637,1.2697 1.66868,0.029 3.03392,-0.056 3.03392,-0.1866 z m 31.03974,-0.058 c -0.57172,-0.3047 -1.2549,-0.2672 -1.51811,0.083 -0.2632,0.3506 0.2046,0.6 1.03961,0.5542 0.9227,-0.051 1.11042,-0.3006 0.4785,-0.6374 z m -25.74792,-0.9801 c 0.95003,-0.3394 1.90346,-1.2283 2.11867,-1.9753 0.29576,-1.0267 -0.18519,-0.9751 -1.97063,0.2113 -1.29901,0.8632 -3.0549,1.328 -3.90195,1.0329 -0.84706,-0.2949 -1.34029,-0.1059 -1.09617,0.4203 0.50654,1.0917 2.33578,1.209 4.85008,0.3108 z m 32.87667,-0.075 c -0.57173,-0.3048 -1.2549,-0.2674 -1.51811,0.083 -0.26321,0.3505 0.20459,0.5999 1.03961,0.5541 0.92269,-0.051 1.110418,-0.3007 0.4785,-0.6375 z m -28.00298,-1.2588 c 0.84555,-0.7139 0.79778,-1.0242 -0.23913,-1.5543 -0.71264,-0.3643 -1.0968,-0.2335 -0.85363,0.2906 0.24317,0.524 -0.008,1.1933 -0.55287,1.4872 -0.54733,0.2939 -0.63866,0.5645 -0.20301,0.6015 0.43564,0.037 1.26757,-0.3343 1.84864,-0.825 z m -7.50277,-1.7132 c -0.51279,-1.7798 -1.55177,-2.0683 -2.22488,-0.6176 -0.24626,0.5307 8e-5,1.2054 0.54733,1.4992 1.75438,0.9422 2.14393,0.7374 1.67755,-0.8816 z m 15.48918,-2.3183 c 0.18155,-0.1756 -0.7223,-0.3193 -2.00848,-0.3193 -1.76191,0 -2.33855,0.4898 -2.33855,1.9862 0,1.8611 0.12666,1.8813 2.00849,0.3194 1.10471,-0.9168 2.157,-1.8107 2.33854,-1.9863 z m 21.251105,2.3562 c 0.107168,-0.113 -0.619251,-1.2242 -1.614265,-2.4693 l -1.80919,-2.2639 -4.7224,3.0948 -4.7224,3.095 6.33666,-0.6256 c 3.48517,-0.3441 6.424426,-0.718 6.531595,-0.831 z m 4.254116,-4.2788 c -1.285233,-1.9498 -2.655537,-4.3037 -3.045083,-5.231 -0.552557,-1.3151 -1.132994,-1.4597 -2.640248,-0.6578 -1.28452,0.6835 -1.48595,1.0504 -0.60111,1.095 0.73196,0.037 2.692366,2.1555 4.356452,4.7085 1.664008,2.5529 3.304807,4.4141 3.646195,4.136 0.341387,-0.2781 -0.430893,-2.1009 -1.716206,-4.0507 z m -34.152151,1.9727 c 0,-0.2502 -1.40444,-0.3445 -3.12104,-0.2095 -1.7166,0.1348 -2.98576,0.5369 -2.82037,0.8933 0.32729,0.7055 5.94141,0.059 5.94141,-0.6838 z m 31.683308,0.342 c 0,-0.1889 -0.980202,-1.4945 -2.178226,-2.9013 l -2.178222,-2.5578 1.920241,2.9014 c 1.794779,2.7118 2.436207,3.3852 2.436207,2.5577 z m 5.54458,-9.1517 c 0.87129,-1.1606 2.207931,-2.0768 2.97031,-2.036 1.20159,0.064 1.180916,0.1812 -0.155565,0.8778 -1.434146,0.7475 -1.408878,0.8499 0.361427,1.4665 2.265594,0.7892 2.236287,0.8192 3.092211,-3.1562 l 0.674934,-3.1346 -5.838283,1.22 c -5.730085,1.1973 -8.581343,2.6524 -5.197409,2.6524 1.188124,0 1.716126,0.6492 1.716126,2.1101 0,1.1605 0.178219,2.11 0.396042,2.11 0.217822,0 1.108916,-0.9495 1.980207,-2.11 z m -77.624108,47.5757 c 0,-0.5259 0.71288,-0.7079 1.58417,-0.4045 0.87129,0.3036 1.58416,0.7338 1.58416,0.9563 0,0.2224 -0.71287,0.4045 -1.58416,0.4045 -0.87129,0 -1.58417,-0.4303 -1.58417,-0.9563 z m 1.58417,-2.2088 c 0,-0.5803 0.15723,-1.0551 0.34931,-1.0551 0.19215,0 0.56958,0.4748 0.83881,1.0551 0.26931,0.5803 0.11208,1.055 -0.34923,1.055 -0.46139,0 -0.83889,-0.4747 -0.83889,-1.055 z m 11.08915,-24.7313 c 0,-0.256 0.35644,-0.7587 0.79209,-1.1173 0.43564,-0.3588 0.79208,-0.1493 0.79208,0.4651 0,0.6146 -0.35644,1.1174 -0.79208,1.1174 -0.43565,0 -0.79209,-0.2094 -0.79209,-0.4652 z"
       id="path3780-4"
       inkscape:connector-curvature="0"
       sodipodi:nodetypes="sssscscsccsssscscsscssscssscsssscssccsssccsccscccccccccscscccccscccscccccsssssccccssccscscccssssscssccssscccscscsccsccssssscccssccsscsssscccssssscscccssscsscccssssccsscssssssccscccscsccccsccccsccscsccccsscscscccscscscsscssccsccccccssccsccccsscsssscscssssssccssccccsscscsccccccsssssssssssscsssscccssccsccccsssccccccscscssccscssscscccccsccssccccsscssscssscssccsssssssssssscsssssss" />
    <path
       style="fill:#000000"
       d="m 718.69301,1359.0618 c -0.1834,-0.546 -1.9084,-1.126 -3.8334,-1.289 -3.078,-0.2607 -3.4952,-0.6232 -3.4605,-3.0074 0.028,-1.9527 -0.4612,-2.711 -1.75,-2.711 -0.9842,0 -1.7895,-0.6208 -1.7895,-1.3796 0,-1.4388 -8.1407,-8.6204 -9.7717,-8.6204 -1.1516,0 -3.2362,-12.1529 -3.2063,-18.6926 0.044,-9.7304 6.8825,-18.3074 14.5956,-18.3074 4.1757,0 11.1889,3.0237 13.8607,5.9759 1.6371,1.8091 1.8937,1.8265 4.2428,0.2873 3.8328,-2.5114 14.0122,-2.2092 18.474,0.5483 3.9172,2.421 8.8049,9.101 8.8049,12.0337 0,2.7957 -3.9626,12.0437 -7.2572,16.9371 -6.2605,9.2983 -27.4263,22.6416 -28.9094,18.2251 z m 4.0716,-3.622 c -1.1541,-1.3906 -0.9554,-1.9453 1.4333,-4 3.5652,-3.0666 5.0184,-3.0315 4.4185,0.1065 -0.473,2.4746 -0.4443,2.4683 4.0992,-0.8972 2.5165,-1.864 4.7652,-3.9979 4.997,-4.7419 0.2317,-0.7441 -0.7713,-0.2563 -2.229,1.0839 -2.045,1.8802 -2.9215,2.1657 -3.8372,1.25 -1.5861,-1.586 -3.782,-1.4981 -5.708,0.2287 -2.1603,1.9367 -9.0788,3.1841 -9.0788,1.6369 0,-0.6437 -0.3697,-0.9418 -0.8216,-0.6626 -1.3834,0.855 -4.1753,-3.2234 -3.5065,-5.1223 0.5084,-1.4435 0.3756,-1.5383 -0.7247,-0.5174 -2.5564,2.372 -3.9472,1.4239 -3.9472,-2.691 0,-2.1675 0.45,-4.2191 1,-4.559 0.55,-0.3399 0.9858,-1.154 0.9684,-1.809 -0.017,-0.6551 -0.955,0.046 -2.0834,1.559 -1.1285,1.5125 -2.9248,2.75 -3.9919,2.75 -1.6241,0 -1.8773,-0.5701 -1.5545,-3.5 0.2729,-2.4758 -0.013,-3.5 -0.9764,-3.5 -1.8051,0 -1.7259,-2.0357 0.1853,-4.7643 1.3967,-1.994 1.3967,-2.1515 0,-1.6156 -2.6209,1.0058 -1.7925,-2.4325 1.6045,-6.6596 2.8704,-3.5718 6.1636,-5.6697 8.098,-5.1586 0.4125,0.1089 0.75,-0.2519 0.75,-0.8019 0,-1.2716 -0.3454,-1.2554 -3.4571,0.1624 -3.7906,1.7271 -4.2818,0.2183 -1.0329,-3.1728 4.3962,-4.5887 0.6764,-3.7425 -4.2166,0.9592 -5.1735,4.9711 -6.3234,9.6395 -5.0083,20.3324 0.5221,4.2453 1.3043,7.7188 1.7383,7.7188 0.434,0 3.0331,2.1375 5.7758,4.75 2.7427,2.6125 5.8224,5.2623 6.8438,5.8884 1.0214,0.6261 1.7985,1.8397 1.727,2.6969 -0.08,0.9535 0.9835,1.803 2.7385,2.1885 1.5778,0.3465 3.1253,1.0454 3.4391,1.5531 0.3138,0.5077 1.274,0.9231 2.1339,0.9231 1.3256,0 1.3596,-0.2456 0.2235,-1.6146 z m 23.229,-20.0606 c 1.4199,0.3713 2.2399,-0.7082 3.8918,-5.1231 1.151,-3.0764 1.8548,-6.5416 1.5639,-7.7005 -0.6027,-2.4015 -7.369,-9.5168 -9.0063,-9.4708 -0.5959,0.017 -0.2959,0.4891 0.6666,1.0497 2.774,1.6156 2.2371,4.2462 -0.75,3.6751 -1.375,-0.2628 -2.5,-0.09 -2.5,0.3835 0,0.4737 0.63,0.8613 1.4,0.8613 0.9334,0 1.4,1.1667 1.4,3.5 0,2.1789 -0.4836,3.5 -1.2813,3.5 -1.8966,0 -6.6026,6.6177 -5.9378,8.3501 0.3152,0.8215 0.073,2.4288 -0.539,3.5717 -0.9568,1.7878 -0.8279,2.0782 0.923,2.0782 1.1193,0 2.0351,0.4656 2.0351,1.0348 0,0.5691 1.4254,-0.5887 3.1676,-2.5728 2.0789,-2.3678 3.7857,-3.446 4.9664,-3.1372 z m -4.1022,-5.0748 c 0.017,-0.9625 0.6781,-2.6038 1.468,-3.6473 0.7899,-1.0436 1.1832,-2.3066 0.8741,-2.8069 -1.0055,-1.6269 0.6214,-5.7958 2.2618,-5.7958 1.1648,0 1.468,0.6772 1.1196,2.5 -0.3344,1.7494 -0.037,2.5 0.9918,2.5 1.0945,0 1.3035,0.7021 0.8187,2.75 -0.7043,2.975 -3.9408,6.25 -6.1765,6.25 -0.7641,0 -1.3749,-0.7875 -1.3575,-1.75 z m -14.0318,7.25 c 0.6847,-0.825 1.0199,-1.5 0.7449,-1.5 -0.275,0 -1.0602,0.675 -1.7449,1.5 -0.6846,0.825 -1.0198,1.5 -0.7448,1.5 0.275,0 1.0602,-0.675 1.7448,-1.5 z m -2,-5 c 0.6847,-0.825 1.0199,-1.5 0.7449,-1.5 -0.275,0 -1.0602,0.675 -1.7449,1.5 -0.6846,0.825 -1.0198,1.5 -0.7448,1.5 0.275,0 1.0602,-0.675 1.7448,-1.5 z m 5.5262,-7.1284 c 0.9634,0.3697 1.2999,1.1147 0.8453,1.8713 -0.4631,0.7706 -0.058,0.6907 1.0462,-0.2064 1.0779,-0.8755 1.3559,-1.612 0.692,-1.8333 -1.7867,-0.5956 -1.2812,-3.3917 1.0646,-5.8888 l 2.1744,-2.3144 -3.7057,0 c -2.3511,0 -3.9136,-0.5416 -4.2743,-1.4817 -0.4395,-1.1453 -1.0177,-1.2413 -2.5468,-0.423 -1.088,0.5823 -2.574,0.83 -3.3022,0.5506 -1.8682,-0.7169 -2.6141,0.3374 -1.2625,1.7843 0.6253,0.6694 2.1733,1.019 3.4399,0.7769 2.6573,-0.508 3.0694,1.3624 0.9413,4.2728 -0.7489,1.0242 -1.1417,2.7032 -0.8729,3.7311 0.4572,1.7483 0.6072,1.7617 2.3244,0.2077 1.0096,-0.9137 2.5559,-1.3849 3.4363,-1.0471 z m -10.5262,0.1284 c 0.6847,-0.825 1.0199,-1.5 0.7449,-1.5 -0.275,0 -1.0602,0.675 -1.7449,1.5 -0.6846,0.825 -1.0198,1.5 -0.7448,1.5 0.275,0 1.0602,-0.675 1.7448,-1.5 z m -8,-2 c 0.6847,-0.825 1.0199,-1.5 0.7449,-1.5 -0.275,0 -1.0602,0.675 -1.7449,1.5 -0.6846,0.825 -1.0198,1.5 -0.7448,1.5 0.275,0 1.0602,-0.675 1.7448,-1.5 z m -6.613,-3.683 c -0.2889,-0.4673 -0.9441,-0.5907 -1.4561,-0.2743 -1.3083,0.8086 -1.161,1.124 0.5251,1.124 0.8009,0 1.2198,-0.3824 0.931,-0.8497 z m 6.613,-3.317 c 0.6847,-0.825 1.0199,-1.5 0.7449,-1.5 -0.275,0 -1.0602,0.675 -1.7449,1.5 -0.6846,0.825 -1.0198,1.5 -0.7448,1.5 0.275,0 1.0602,-0.675 1.7448,-1.5 z"
       id="path3780-0"
       inkscape:connector-curvature="0"
       sodipodi:nodetypes="cscssscscsssscsscscsssssccssccscsccssssssssssccssssccccsssssccsscscscscscsccscsccscscccccccscccsssscccscsccscscccsccscsc" />
    <path
       style="fill:#000000"
       d="m 731.81631,1233.2376 c -13.5086,-2.4052 -16.505,-3.9422 -16.505,-8.4662 0,-2.1379 2.5619,-4.9607 4.5021,-4.9607 2.5354,0 8.4718,-4.4877 9.1338,-6.9048 0.3639,-1.3284 0.1387,-3.1187 -0.503,-4 -4.0398,-5.5474 -5.1268,-7.9999 -5.1393,-11.5952 -0.013,-3.6808 -0.3174,-4.1273 -3.8166,-5.5958 -6.3242,-2.654 -9.1957,-12.0997 -5.721,-18.819 1.3892,-2.6864 6.8285,-6.0953 9.6952,-6.0762 0.7419,0 2.4738,-1.3261 3.8488,-2.9579 l 2.5,-2.9668 6,1.453 c 3.3,0.7992 7.35,1.64 9,1.8685 1.65,0.2284 4.2277,0.8907 5.7281,1.4717 1.5004,0.581 5.6963,1.5732 9.3241,2.205 5.6322,0.9808 6.7655,1.5336 7.7558,3.7831 0.6379,1.4489 2.361,3.7867 3.8291,5.1952 4.0373,3.8731 5.5966,10.1083 3.7995,15.1931 -1.7952,5.0797 -5.4102,7.8197 -11.1736,8.4694 -3.5725,0.4026 -4.8022,1.0732 -6.1487,3.3526 -0.9257,1.5671 -3.6526,4.2637 -6.0597,5.9923 -4.8113,3.4552 -6.2257,6.5321 -4.089,8.8949 2.1256,2.3507 4.7219,10.871 4.0029,13.1364 -0.5678,1.7888 -4.4492,4.1181 -6.2836,3.7709 -0.3766,-0.071 -6.5326,-1.1709 -13.6799,-2.4435 z m 15.172,-3.7705 c 0.2235,-0.2235 -0.7374,-0.4064 -2.1353,-0.4064 -1.3979,0 -2.5417,0.3679 -2.5417,0.8176 0,0.7788 3.8232,0.4426 4.677,-0.4112 z m -24.6923,-2.4064 c -0.012,-1.3762 -0.2007,-1.4574 -0.8831,-0.38 -0.7008,1.1062 -1.0771,1.0099 -1.9543,-0.5 -0.5975,-1.0285 -1.1001,-1.3975 -1.1168,-0.82 -0.035,1.2255 2.0082,3.45 3.1695,3.45 0.44,0 0.7932,-0.7875 0.7847,-1.75 z m 22.3802,-0.7416 c -0.3268,-0.8516 0.1157,-1.7556 1.0314,-2.1069 2.1465,-0.8237 2.0442,-2.4015 -0.1557,-2.4015 -0.9677,0 -2.3592,0.9603 -3.0922,2.134 -1.1115,1.7799 -1.11,2.2752 0.01,2.9847 2.0217,1.2813 2.8455,1.0535 2.2071,-0.6103 z m 4.1351,0.4916 c -0.3399,-0.55 -1.1539,-0.9931 -1.809,-0.9847 -0.7156,0.01 -0.5922,0.4023 0.309,0.9847 1.9212,1.2415 2.2673,1.2415 1.5,0 z m -9.1705,-2.5838 c -0.3343,-0.8711 -0.8827,-1.1636 -1.2186,-0.65 -0.336,0.5137 -1.2859,1.1909 -2.1109,1.5049 -0.8816,0.3356 -0.3792,0.6036 1.2187,0.65 2.0857,0.061 2.5771,-0.2898 2.1108,-1.5049 z m -4.8365,-0.4047 c 0.3503,-0.5669 -0.051,-0.7345 -0.941,-0.393 -1.7324,0.6647 -2.0494,1.3815 -0.611,1.3815 0.5176,0 1.2159,-0.4448 1.552,-0.9885 z m -3.5083,-0.7615 c -0.01,-0.4125 -0.5008,-1.425 -1.0943,-2.25 -0.9108,-1.2661 -0.9912,-1.2271 -0.5161,0.25 0.3628,1.1278 0.041,1.75 -0.9056,1.75 -0.8302,0 -1.4687,-0.9226 -1.4687,-2.1224 0,-1.7733 -0.2468,-1.9177 -1.5,-0.8776 -1.9794,1.6428 -1.8958,2.7499 0.25,3.3107 2.9103,0.7605 5.2509,0.7334 5.2347,-0.061 z m 13.5728,-2.4361 c 0.4198,0.3773 0.4656,0.1659 0.1019,-0.47 -0.3638,-0.6359 -1.5609,-0.9209 -2.6604,-0.6334 -2.2662,0.5927 -2.5888,-1.0288 -1.0237,-5.1454 0.8301,-2.1832 0.6985,-2.5651 -0.8834,-2.5651 -1.1885,0 -2.031,0.9015 -2.3366,2.5 -0.2629,1.375 -0.09,2.5 0.3834,2.5 0.4737,0 0.8613,0.7275 0.8613,1.6166 0,1.1243 -0.609,1.4574 -2,1.0937 -2.7186,-0.711 -2.5377,0.1534 0.25,1.1943 1.2375,0.4621 3.2163,0.4763 4.3972,0.032 1.181,-0.4447 2.4906,-0.4997 2.9103,-0.1224 z m -11.5575,-0.7069 c 0,-0.4912 -0.7386,-1.1765 -1.6414,-1.5229 -1.3725,-0.5267 -1.4343,-0.3803 -0.3776,0.893 1.4402,1.7353 2.019,1.9159 2.019,0.6299 z m 2,-5.666 c 0,-0.7925 -0.45,-1.441 -1,-1.441 -0.55,0 -1,0.9266 -1,2.059 0,1.1325 0.45,1.7809 1,1.441 0.55,-0.3399 1,-1.2665 1,-2.059 z m 11.5,-4.0978 c 1.9509,-1.554 1.9386,-1.5781 -0.5,-0.9818 -1.375,0.3362 -3.4,0.6243 -4.5,0.6403 -1.6588,0.024 -1.7441,0.1943 -0.5,0.9983 2.0613,1.3321 3.1694,1.1998 5.5,-0.6568 z m -12.5,-0.7362 c 0,-0.2162 -0.6983,-0.661 -1.5519,-0.9885 -0.8899,-0.3415 -1.2913,-0.1739 -0.941,0.393 0.5873,0.9502 2.4929,1.4054 2.4929,0.5955 z m 11,-2.166 c 0,-0.2425 -0.45,-0.441 -1,-0.441 -0.55,0 -1,0.4766 -1,1.059 0,0.5825 0.45,0.7809 1,0.441 0.55,-0.3399 1,-0.8165 1,-1.059 z m -5.206,-0.9881 c 2.8998,-1.4466 4.9482,-4.7149 4.3336,-6.9147 -0.1478,-0.529 0.3689,-1.429 1.1482,-2 2.1963,-1.6093 4.7775,-7.2358 4.1134,-8.9664 -0.3533,-0.9207 0.055,-1.805 1.0013,-2.1681 0.879,-0.3373 1.3425,-1.0268 1.0301,-1.5322 -0.3123,-0.5054 0.2094,-2.9541 1.1594,-5.4416 1.0097,-2.6439 1.3518,-4.8571 0.8236,-5.3276 -1.0151,-0.9042 -13.4486,-4.438 -13.8248,-3.9292 -0.133,0.1798 -1.5304,3.4122 -3.1054,7.1832 -3.091,7.4003 -4.9871,9.0293 -7.118,6.1151 -1.1962,-1.636 -1.3547,-1.1562 -1.3498,4.0875 0.01,7.94 1.4783,12.7836 5.1526,16.9684 1.677,1.91 3.1583,3.4727 3.2918,3.4727 0.1335,0 1.6383,-0.6962 3.344,-1.5471 z m 7.648,-1.359 c 0.308,-0.4984 1.3785,-0.6921 2.3789,-0.4305 1.0004,0.2616 2.405,-0.2306 3.1214,-1.0939 0.8744,-1.0535 0.9336,-1.5695 0.1802,-1.5695 -0.6174,0 -1.1225,0.45 -1.1225,1 0,0.55 -0.675,1 -1.5,1 -0.825,0 -1.5,-0.45 -1.5,-1 0,-0.55 0.3976,-1 0.8834,-1 0.7982,0 2.3719,-4.0973 1.8384,-4.7865 -0.122,-0.1575 0.4532,-0.7131 1.2782,-1.2346 1.2913,-0.8163 1.2656,-0.9504 -0.1852,-0.9636 -1.0252,-0.01 -2.181,1.3555 -2.9509,3.4847 -0.6961,1.925 -1.6252,3.5 -2.0647,3.5 -0.4396,0 -0.7992,0.6375 -0.7992,1.4167 0,0.7791 -0.5625,1.6436 -1.25,1.921 -0.9013,0.3637 -0.9177,0.5264 -0.059,0.5834 0.6551,0.043 1.443,-0.3288 1.751,-0.8272 z m -20.1626,-4.1335 c -0.2933,-1.1219 -0.7568,-1.8163 -1.0299,-1.5432 -0.541,0.541 0.4146,3.5828 1.1255,3.5828 0.2408,0 0.1978,-0.9178 -0.096,-2.0396 z m 34.9703,-2.9604 c 3.5934,0 8.3765,-2.433 9.7207,-4.9446 1.9519,-3.6471 1.2122,-8.8235 -1.7204,-12.0406 -1.5873,-1.7413 -3.2167,-2.6992 -3.854,-2.2658 -0.7482,0.5089 -0.4569,1.3957 0.9036,2.751 1.1042,1.1 1.687,1.4375 1.2951,0.75 -0.392,-0.6875 -0.2361,-1.25 0.3463,-1.25 0.5825,0 1.059,0.675 1.059,1.5 0,0.825 -0.45,1.5 -1,1.5 -0.55,0 -1,1.5143 -1,3.3652 0,4.3951 -3.5079,8.962 -6.4516,8.3993 -1.5636,-0.2989 -2.4973,0.2882 -3.3577,2.1113 -0.9273,1.9648 -0.9253,2.2589 0.01,1.3248 0.6601,-0.6603 2.4827,-1.2006 4.05,-1.2006 z m 6.7503,-11.5 c 0,-0.825 0.675,-1.5 1.5,-1.5 0.825,0 1.5,0.675 1.5,1.5 0,0.825 -0.675,1.5 -1.5,1.5 -0.825,0 -1.5,-0.675 -1.5,-1.5 z m -43.3106,6.75 c -0.2516,-0.9625 -0.4574,-0.175 -0.4574,1.75 0,1.925 0.2058,2.7125 0.4574,1.75 0.2515,-0.9625 0.2515,-2.5375 0,-3.5 z m 29.0519,-0.5 c 0.5424,-0.6875 1.2874,-3.9312 1.6557,-7.2082 0.3682,-3.277 0.9079,-7.102 1.1994,-8.5 0.4965,-2.3819 0.4508,-2.416 -0.7267,-0.5418 -0.6911,1.1 -1.5856,3.8 -1.9877,6 -0.4021,2.2 -1.1677,5.6875 -1.7012,7.75 -0.9714,3.755 -0.2904,4.8461 1.5605,2.5 z m 10.8171,-5.25 c 0.4886,-2.0943 0.3803,-2.6981 -0.3585,-2 -0.5821,0.55 -1.3733,2.35 -1.7582,4 -0.4886,2.0943 -0.3804,2.6981 0.3585,2 0.5821,-0.55 1.3733,-2.35 1.7582,-4 z m -40.5584,2 c 0,-1.6288 -0.9147,-1.8537 -3.502,-0.8608 -1.3287,0.5098 -1.3958,0.8102 -0.3318,1.4847 2.0727,1.3138 3.8338,1.0273 3.8338,-0.6239 z m 35.8069,-1.0264 c -0.3079,-0.3079 -0.867,0.2471 -1.2426,1.2333 -0.5426,1.4252 -0.4278,1.54 0.5598,0.5598 0.6835,-0.6784 0.9907,-1.4853 0.6828,-1.7931 z m -41.6629,-5.9123 c -0.1253,-2.4201 -0.416,-5.3777 -0.6461,-6.5725 -0.2944,-1.5286 -0.014,-2.0169 0.9479,-1.648 0.7515,0.2884 2.1534,-0.3453 3.1153,-1.4082 0.9619,-1.0629 2.3383,-1.9326 3.0587,-1.9326 0.7205,0 1.8494,-1.0125 2.5088,-2.25 1.0152,-1.9053 0.9823,-2.0743 -0.2148,-1.1033 -0.7776,0.6307 -3.3199,1.7126 -5.6497,2.4041 -2.473,0.7341 -4.9228,2.3057 -5.8864,3.7762 -2.2039,3.3637 -2.128,9.6864 0.1465,12.1997 2.3503,2.5971 2.8962,1.8749 2.6198,-3.4654 z m 45.5641,-10.1866 c -0.3299,-0.3298 -4.7866,-1.4864 -9.9039,-2.5701 -13.3701,-2.8315 -14.8571,-3.0268 -9.8042,-1.2881 2.475,0.8517 6.9495,1.9745 9.9434,2.4951 7.6706,1.3338 8.7127,2.6343 7.2364,9.0301 -1.8611,8.0625 -1.2089,8.1825 1.0625,0.1955 1.136,-3.9946 1.7956,-7.5327 1.4658,-7.8625 z m -41.0665,4.1924 c -0.7506,-1.9868 -2.6979,4.6808 -1.9902,6.815 0.5905,1.781 0.8367,1.4922 1.5478,-1.815 0.4651,-2.1631 0.6642,-4.4131 0.4424,-5 z m 13.5459,-7.2502 c -0.7218,-0.2889 -1.5843,-0.2533 -1.9166,0.079 -0.3323,0.3323 0.2583,0.5686 1.3125,0.5252 1.1649,-0.048 1.4019,-0.2849 0.6041,-0.6041 z m 2,-3 c -0.7218,-0.2889 -1.5843,-0.2533 -1.9166,0.079 -0.3323,0.3323 0.2583,0.5686 1.3125,0.5252 1.1649,-0.048 1.4019,-0.2849 0.6041,-0.6041 z m -5.6635,-1.3768 c -1.8404,-0.5491 -3.3477,-0.5163 -3.95,0.086 -0.6319,0.632 0.4131,0.9438 2.976,0.888 3.9037,-0.085 3.9151,-0.096 0.974,-0.974 z"
       id="path3780-9"
       inkscape:connector-curvature="0"
       sodipodi:nodetypes="ssscccsscscsssscscscssccscsscccccscccsccccccccccsccccsccccssssccccccscsscscccsscssssssssccssscsssssscsssccssccccsscsscssssscsccssscscsscccscsscsssscscccssssscsccsccsscscccccsssssccscscssscscsccssscscccscccccccccccccccc" />
    <path
       style="fill:#000000"
       d="m -75.396989,1021.4687 c -4.621665,-1.8063 -7.904194,-3.724 -8.920531,-5.2118 -1.579669,-2.3124 -5.067487,-17.18816 -5.065315,-21.60396 7.51e-4,-1.5718 -0.49443,-2.25 -1.64306,-2.25 -1.106704,0 -1.48947,0.4826 -1.17093,1.4766 0.273774,0.8542 -0.793259,3.2481 -2.531781,5.68 -1.652748,2.31186 -3.004997,4.71316 -3.004997,5.33626 0,0.6231 -1.140028,2.4408 -2.533537,4.0392 -2.19203,2.5145 -3.30758,2.9587 -8.2756,3.2948 -7.5398,0.5101 -10.70215,-0.8767 -15.58999,-6.8368 -4.34789,-5.3016 -5.62472,-8.58076 -6.58034,-16.90006 -0.57536,-5.0089 -2.22059,-8.3055 -4.62375,-9.2646 -0.75233,-0.3003 -0.89415,-1.5084 -0.48416,-4.125 0.71876,-4.5877 1.06779,-4.6089 13.31611,-0.8082 5.1262,1.5907 11.14371,3.1633 13.37216,3.4948 4.23397,0.6296 11.162082,3.1417 12.631423,4.5799 1.779446,1.7418 8.613099,3.3626 15.053798,3.5706 9.554687,0.3085 32.9352,7.1438 35.810075,10.4691 1.192227,1.3789 -0.160272,5.71176 -1.958593,6.27486 -1.086994,0.3403 -2.886317,3.5467 -5.199196,9.2644 -5.416511,13.3909 -8.920364,14.8667 -22.601786,9.5199 z m 13.851883,-1.6485 c -0.601918,-1.8782 -0.834517,-1.7898 -1.336297,0.5079 -0.287053,1.3143 -0.06932,1.764 0.685019,1.4172 0.608015,-0.2793 0.901082,-1.1457 0.651278,-1.9251 z m -12.385715,-3.4173 c 0.200862,-1.2488 0.129704,-1.9886 -0.158101,-1.644 -0.287888,0.3447 -1.027779,0.1255 -1.644145,-0.4871 -0.616534,-0.6126 -1.126665,-0.7212 -1.133681,-0.2413 -0.0084,0.4798 -0.407487,0.1974 -0.88989,-0.6276 -0.674329,-1.1532 -0.74557,-0.9448 -0.308434,0.9013 0.456596,1.9279 0.308017,2.2815 -0.753671,1.7937 -0.727363,-0.3342 -1.512604,-0.2393 -1.744953,0.2109 -0.232348,0.4502 0.413333,0.759 1.434849,0.6862 1.021515,-0.073 2.371842,0.4606 3.000737,1.1854 1.349826,1.5556 1.707787,1.266 2.197289,-1.7775 z m -2.063743,0.039 c -0.675748,-0.5117 -1.011159,-1.1906 -0.745403,-1.5088 0.265756,-0.3182 0.958626,0.1073 1.539664,0.9456 1.204839,1.7382 0.973826,1.902 -0.794261,0.5632 z m 12.437663,1.211 c -0.04009,-1.0558 -0.233768,-1.2517 -0.488917,-0.4938 -0.232683,0.6909 -0.824829,0.9589 -1.315918,0.5955 -0.527754,-0.3906 -0.64919,-0.1886 -0.296992,0.4937 0.900747,1.7449 2.176409,1.3835 2.101827,-0.5954 z m -18.586548,-4.7061 c 0,-0.8008 -0.313194,-1.2242 -0.69596,-0.9409 -0.382849,0.2832 -0.696043,-1.0866 -0.696043,-3.0441 0,-1.9574 -0.40565,-3.559 -0.901499,-3.559 -1.045402,0 -0.224665,5.7808 1.100273,7.75 1.07029,1.5909 1.193229,1.5697 1.193229,-0.206 z m 19.607395,-2.5739 c 7.41085,-9.3279 4.332775,-13.70936 -11.584187,-16.48936 -4.227458,-0.7384 -5.618876,0.5745 -5.618876,5.3016 0,6.50486 2.460289,11.60596 6.493399,13.46306 5.526504,2.5447 7.155032,2.1987 10.709664,-2.2753 z m 6.197994,0.015 c 1.349493,-0.013 1.409626,-0.1755 0.363723,-0.9848 -1.113552,-0.8617 -1.113552,-0.9728 0,-1 1.113637,-0.027 1.113637,-0.1383 0,-1 -0.835185,-0.6462 -0.904756,-0.9745 -0.208796,-0.9847 0.57419,-0.01 1.032289,-0.8028 1.017924,-1.7653 -0.0167,-1.1182 -0.716422,-0.4058 -1.938382,1.9735 -1.051832,2.0478 -2.634675,4.7478 -3.51755,6 l -1.605059,2.2765 2.13582,-2.25 c 1.174688,-1.2375 2.863182,-2.2569 3.75232,-2.2653 z m -49.7474,-2.1508 c 0,-0.5764 -0.53627,-0.8016 -1.19164,-0.5004 -0.65545,0.3011 -1.64105,-0.1007 -2.19027,-0.893 -0.54914,-0.7923 -0.68936,-1.4406 -0.31161,-1.4406 0.37775,0 0.26008,-0.5111 -0.26166,-1.1357 -0.70791,-0.8476 -1.28878,-0.7283 -2.28991,0.4704 -1.23182,1.4749 -1.17077,1.6575 0.74724,2.2339 1.14871,0.3452 2.52251,1.2535 3.05268,2.0185 1.01517,1.4646 2.44517,1.0242 2.44517,-0.7531 z m -14.46106,-3.2121 c -0.24296,-0.758 -0.0626,-1.8322 0.40097,-2.3872 1.26146,-1.5103 -0.65829,-2.5533 -2.42814,-1.3192 -1.38983,0.9691 -1.38757,1.0253 0.0426,1.0541 0.83093,0.017 1.27859,0.4804 0.99463,1.0304 -0.28388,0.55 -0.28388,1.45 0,2 0.7682,1.4883 1.49857,1.2093 0.98986,-0.3781 z m 13.07892,-0.165 c -0.27202,-0.8487 -0.67367,-1.3287 -0.89257,-1.0665 -0.21898,0.2621 -0.15033,0.9565 0.15242,1.5431 0.82358,1.5954 1.3049,1.2855 0.74015,-0.4766 z m 26.27643,-0.9833 c -0.257154,-0.3079 -0.724106,0.2471 -1.037802,1.2333 -0.453171,1.4252 -0.357292,1.54 0.467537,0.5598 0.570849,-0.6784 0.827418,-1.4853 0.570265,-1.7931 z m -33.57671,-1.2028 c -0.27753,-0.3322 -0.47488,0.2584 -0.43864,1.3125 0.0401,1.165 0.23795,1.4019 0.50462,0.6042 0.24121,-0.7219 0.21156,-1.5844 -0.066,-1.9167 z m 12.26904,0.3569 c 0.62806,0.752 3.094867,-2.0825 3.094867,-3.55626 0,-1.8543 -1.533487,-1.1629 -2.091807,0.94306 -0.29365,1.108 -0.8402,1.788 -1.21436,1.511 -0.37424,-0.2769 -1.19281,0.2791 -1.81903,1.2355 -1.00582,1.5362 -0.9836,1.5942 0.191,0.4977 0.73129,-0.6827 1.55896,-0.9667 1.83933,-0.631 z m 19.172184,0.71 c -0.57419,-0.2774 -1.513773,-0.2774 -2.087963,0 -0.57419,0.2774 -0.104398,0.5044 1.043982,0.5044 1.148379,0 1.618171,-0.227 1.043981,-0.5044 z m 33.443243,-2.5877 c 1.236325,-0.6875 2.245146,-1.92496 2.241638,-2.74996 -0.0084,-1.2027 -0.146241,-1.2356 -0.712413,-0.1661 -0.578867,1.0933 -0.789668,1.0732 -1.169343,-0.1113 -0.690197,-2.1537 -3.822393,-2.9032 -3.557138,-0.8512 0.115757,0.8958 -0.20604,1.9956 -0.71517,2.4441 -0.509964,0.44926 0.01169,0.53826 1.162245,0.1982 2.008704,-0.5938 2.02641,-0.5583 0.466785,0.93446 -1.953333,1.8697 -0.808376,2.021 2.283396,0.3018 z m -55.683977,-2.49996 c 0.76553,-1.5125 2.11987,-4.0184 3.00984,-5.5686 0.88989,-1.5502 1.44546,-3.3502 1.23465,-4 -0.56901,-1.7535 -12.8545,-6.0029 -17.13132,-5.9254 -5.39095,0.098 -6.16216,1.5341 -4.33853,8.0818 1.83932,6.6043 2.27571,7.1292 7.26068,8.7339 6.41648,2.06536 8.3825,1.80456 9.96468,-1.3217 z m 23.68953,-0.559 c 0.0084,-0.445 -0.363055,-0.5309 -0.822407,-0.191 -0.459352,0.3399 -0.829422,1.379 -0.822323,2.30896 0.01086,1.4573 0.124609,1.4837 0.822323,0.191 0.445321,-0.82496 0.815392,-1.86396 0.822407,-2.30896 z m -41.47464,-1.9734 c -0.24245,-0.4697 -0.9207,-0.6334 -1.50734,-0.3639 -0.58655,0.2695 -1.56397,-0.037 -2.17198,-0.6818 -0.8954,-0.9492 -0.92355,-0.8801 -0.14799,0.3638 0.98125,1.574 4.62266,2.2227 3.82731,0.6819 z m 36.795013,-0.2695 c 0.285216,-0.8899 0.145239,-1.2913 -0.328228,-0.941 -0.45409,0.336 -0.825664,1.0344 -0.825664,1.5519 0,1.4385 0.598661,1.1215 1.153892,-0.6109 z m 28.647107,0.1651 c -0.317704,-0.9912 0.0735,-1.2568 1.37221,-0.9312 1.639135,0.4111 1.671122,0.3445 0.327727,-0.6812 -0.8189,-0.6252 -5.91328,-2.1509 -11.320854,-3.3903 -7.554669,-1.7315 -10.046361,-1.9788 -10.757354,-1.0675 -0.705314,0.9041 0.473717,1.3417 4.960667,1.841 7.46639,0.8309 12.856759,2.448 14.089994,4.2271 1.234821,1.7815 1.898209,1.7826 1.32761,0 z m -25.917471,-4.0785 c -0.849884,-0.7709 -1.321346,-1.8352 -1.047823,-2.3652 0.288139,-0.5582 -0.730871,-0.8944 -2.421954,-0.7992 -1.60556,0.09 -2.919307,-0.2075 -2.919307,-0.662 0,-0.4545 -0.349859,-0.5674 -0.777474,-0.251 -0.427615,0.3164 -1.011159,0.1225 -1.296876,-0.431 -0.333907,-0.6469 -0.919873,-0.5635 -1.640471,0.2337 -1.519285,1.6807 -0.763442,2.8517 1.469258,2.2762 1.005397,-0.2591 3.519221,0.3676 5.586305,1.3927 4.64054,2.3012 4.994992,2.3716 3.048342,0.6058 z m -42.302049,-4.9122 c 0,-1.3077 -0.55958,-2.9337 -1.24351,-3.6133 -1.37463,-1.366 -0.95286,-3.0884 0.64393,-2.6294 0.55949,0.1608 0.73295,0.1027 0.3856,-0.1291 -0.34735,-0.2318 -0.37675,-0.9456 -0.0651,-1.5861 0.31153,-0.6405 -0.18641,-0.3761 -1.10653,0.5876 -0.92013,0.9637 -1.85353,1.536 -2.07427,1.2717 -0.22066,-0.2643 -0.0109,1.5347 0.46653,3.9978 0.91219,4.7076 2.99356,6.1683 2.99356,2.1008 z m 28.396297,-1.5873 c 0,-0.5306 -0.845625,-1.4555 -1.879167,-2.0552 -1.72775,-1.0025 -1.75781,-0.9732 -0.373327,0.3638 1.131342,1.0925 1.235155,1.5841 0.417592,1.9763 -0.702975,0.3372 -0.570765,0.55 0.373328,0.601 0.803866,0.043 1.461574,-0.3553 1.461574,-0.8859 z m -3.844527,-1.4436 c -0.54688,-1.7064 -5.16136,-4.1418 -5.98318,-3.1578 -0.32289,0.3867 0.34685,1.5622 1.48838,2.6124 2.47131,2.2735 5.15293,2.5989 4.4948,0.5454 z m -9.97779,-3.4637 c -1.18446,-1.302 -7.8925,-2.3195 -7.8925,-1.1972 0,0.5249 1.59729,1.1266 3.54954,1.3371 1.95224,0.2105 3.90658,0.4614 4.34296,0.5575 0.50111,0.1104 0.50111,-0.1466 0,-0.6974 z m -19.5851,-3.5546 c 0,-0.7846 0.65771,-1.6324 1.46158,-1.884 0.80386,-0.2515 0.24011,-0.5095 -1.25278,-0.5733 -2.56335,-0.1095 -3.62003,1.4662 -2.15753,3.2173 0.94434,1.1307 1.94873,0.739 1.94873,-0.76 z"
       id="path3780-48"
       inkscape:connector-curvature="0"
       sodipodi:nodetypes="sscsssscsssccsscscccssccsscccsccsscssccscccccccsscccssssscccccccccsccsccsccccsccccccccsccssccsccccssccscssssscccccccsccccsssccsccccccccscssccsscscccscssscssssccsccsccccsscccsscssssscsssscs" />
    <path
       style="fill:#000000"
       d="m 191.65477,1013.7674 c -4.97749,-0.4472 -11.60572,-1.3437 -14.7294,-1.9922 -5.49891,-1.1415 -5.71746,-1.312 -6.87668,-5.3624 -1.99829,-6.98217 -1.67659,-25.34547 0.54192,-30.93337 1.03722,-2.6125 2.29621,-4.75 2.79775,-4.75 0.50154,0 1.97751,-1.1498 3.27995,-2.5552 2.06271,-2.2257 3.05587,-2.5158 7.70225,-2.25 4.11651,0.2356 5.26174,0.6476 5.01683,1.8052 -0.17455,0.825 1.95002,-0.7203 4.72127,-3.4341 4.68968,-4.5924 5.43884,-4.9592 10.81736,-5.297 3.1783,-0.1995 7.80373,0.01 10.27873,0.4573 3.80227,0.693 4.80992,1.3954 6.49882,4.53 1.4428,2.6778 3.07531,4.0623 5.86861,4.9768 4.59675,1.505 5.82781,4.4416 7.44829,17.767 1.75084,14.39737 -1.40508,23.91157 -8.62903,26.01387 -5.02754,1.4631 -23.71782,2.0141 -34.73667,1.0241 z m 32.85442,-5.9141 c 4.29428,-1.7085 7.07254,-8.81227 6.25538,-15.99447 -1.28541,-11.2978 -1.1925,-11.1294 -6.13928,-11.1294 l -4.42054,0 0,4.1139 c 0,5.194 -3.05074,10.697 -7.69391,13.8786 -4.92504,3.37467 -15.23982,3.98607 -20.30609,1.2036 -6.11103,-3.3563 -8.82765,-10.9486 -6.60019,-18.4461 l 0.81701,-2.75 -6.04714,0 -6.04713,0 -0.69819,4.6559 c -0.38401,2.5607 -0.29908,8.5207 0.18872,13.2444 0.81834,7.92437 1.09309,8.68667 3.55312,9.85847 6.17352,2.9407 40.66723,3.9395 47.13824,1.3651 z m -29.30444,-12.44957 c 0,-0.1791 -1.2375,-1.4166 -2.75,-2.75 l -2.75,-2.4243 2.42431,2.75 c 2.26589,2.5703 3.07569,3.2086 3.07569,2.4243 z m 20.51911,-8.8207 c 0.66775,-2.9735 -1.37016,-8.6577 -3.83765,-10.704 -1.50068,-1.2445 -1.50548,-1.1041 -0.0612,1.7911 1.57967,3.1665 1.56175,10.4118 -0.036,14.5593 -0.60763,1.5773 -0.33605,1.4717 1.28503,-0.5 1.13053,-1.375 2.32293,-3.6909 2.64979,-5.1464 z m -6.24042,4.2585 c 0.96464,-0.972 0.82032,-1.0778 -0.68674,-0.5037 -1.70793,0.6507 -1.84873,0.3614 -1.34253,-2.758 0.7485,-4.6124 -1.73869,-6.4921 -5.04634,-3.8137 -1.49949,1.2142 -1.80894,1.9397 -0.95866,2.2475 1.00547,0.364 1.00658,0.8762 0.006,2.5716 -0.6875,1.1644 -1.25003,2.4607 -1.25006,2.8807 -1.1e-4,1.247 7.95255,0.7118 9.27876,-0.6244 z m -12.6832,-0.2666 c 0.43043,-0.6964 0.27551,-0.8838 -0.39046,-0.4722 -1.49146,0.9218 -2.81057,-6.1677 -1.40848,-7.5698 0.57594,-0.576 0.78085,-1.7412 0.45537,-2.5894 -0.39419,-1.0272 -0.19286,-1.2956 0.60292,-0.8038 0.71238,0.4403 1.08378,0.2277 0.91994,-0.5266 -0.15113,-0.6957 0.51272,-1.4371 1.47522,-1.6476 0.9625,-0.2105 1.75,0.1268 1.75,0.7496 0,0.6228 -0.51953,0.8113 -1.15451,0.4188 -0.6991,-0.432 -0.8837,-0.2753 -0.46797,0.3973 0.37759,0.611 1.45962,0.8576 2.4045,0.548 0.94489,-0.3095 0.25117,0.6461 -1.54161,2.1237 -1.79277,1.4776 -2.99918,3.1078 -2.6809,3.6228 0.31828,0.515 1.00493,0.6729 1.5259,0.3509 0.52097,-0.3219 0.71746,-0.9571 0.43665,-1.4115 -0.52796,-0.8542 2.34563,-2.494 3.80227,-2.1697 0.45338,0.101 0.53932,-0.2776 0.19098,-0.8412 -0.34834,-0.5636 -0.12464,-1.0248 0.4971,-1.0248 0.63658,0 0.4188,-0.7116 -0.49849,-1.6289 -0.89592,-0.8959 -1.40098,-2.223 -1.12236,-2.9491 0.34216,-0.8916 -0.0449,-1.126 -1.19249,-0.722 -3.1328,1.1027 -6.22313,4.6483 -7.3606,8.4448 -0.9409,3.1405 -0.8514,4.1865 0.53987,6.3099 1.88322,2.8742 2.21244,3.0165 3.21715,1.3908 z m -6.93321,-5.0955 c -0.27741,-0.6875 -0.50438,-0.125 -0.50438,1.25 0,1.375 0.22697,1.9375 0.50438,1.25 0.27741,-0.6875 0.27741,-1.8125 0,-2.5 z m 40.6816,-9.5 c -1.882,-4.5413 -1.31718,-3.9542 -4.59593,-4.7771 -2.47121,-0.6202 -2.74795,-0.427 -2.74795,1.9187 0,1.6519 -0.55004,2.6084 -1.5,2.6084 -0.93333,0 -1.5,-0.9444 -1.5,-2.5 0,-1.375 0.40916,-2.5 0.90925,-2.5 1.43346,0 -2.65526,-7.6885 -4.45623,-8.3796 -0.88913,-0.3412 -4.84229,-0.6148 -8.78481,-0.6079 l -7.16821,0.013 -5.75,5.5939 c -3.1625,3.0767 -5.75,5.0875 -5.75,4.4685 0,-0.7011 -0.94256,-0.8889 -2.5,-0.498 -2.89688,0.7271 -3.40244,-0.9643 -0.75,-2.5092 1.46924,-0.8558 1.26869,-1.0217 -1.25,-1.0344 -3.47858,-0.018 -4.89122,0.7641 -5.79156,3.2043 -0.35512,0.9625 -1.55979,1.75 -2.67706,1.75 -1.11726,-1e-4 -2.03138,0.6168 -2.03138,1.3708 0,0.9904 2.25196,1.5673 8.11324,2.0786 7.94717,0.6932 8.17285,0.6506 11.02573,-2.0826 1.60188,-1.5347 2.69004,-3.3701 2.41815,-4.0786 -0.27189,-0.7086 -0.13952,-1.2883 0.29416,-1.2883 0.43367,0 2.3054,-1.3543 4.15939,-3.0095 2.87107,-2.5633 3.89862,-2.9145 6.93011,-2.3687 5.89392,1.0613 6.87391,2.7378 2.55922,4.3782 -1.375,0.5228 -2.5,1.4117 -2.5,1.9753 0,1.6347 0.8948,1.225 4.30423,-1.9706 3.69669,-3.4649 4.01757,-3.54 6.12434,-1.4332 1.97228,1.9722 2.0005,3.8275 0.0824,5.4194 -0.81894,0.6797 -1.19512,1.7112 -0.83595,2.2924 0.41312,0.6684 0.011,0.8102 -1.09457,0.386 -1.1707,-0.4493 -1.59623,-0.2578 -1.28905,0.58 0.25221,0.6879 0.96481,1.1382 1.58356,1.0007 0.61875,-0.1375 1.0125,0.2945 0.875,0.96 -0.18039,0.873 1.5984,1.1277 6.38826,0.9147 4.00916,-0.1784 6.90391,0.1345 7.30901,0.79 1.4328,2.3183 1.37816,0.9104 -0.10339,-2.6647 z m -5.07305,0.1459 c 0.33229,-0.3323 1.1948,-0.3679 1.91667,-0.079 0.79773,0.3192 0.56078,0.5561 -0.60417,0.6041 -1.05416,0.043 -1.64479,-0.1929 -1.3125,-0.5252 z m -32.19188,-4.8125 c -0.0434,-1.0542 0.19293,-1.6448 0.52522,-1.3125 0.33229,0.3322 0.36782,1.1947 0.079,1.9166 -0.31923,0.7978 -0.55619,0.5608 -0.60417,-0.6041 z m 28.52522,0.6875 c -0.33229,-0.3323 -0.56864,0.2583 -0.52522,1.3125 0.048,1.1649 0.28494,1.4019 0.60416,0.6041 0.28888,-0.7219 0.25335,-1.5844 -0.0789,-1.9166 z m -6.60417,-3.2709 c 0,-0.55 -0.42344,-1 -0.94098,-1 -0.51754,0 -1.2191,0.45 -1.55902,1 -0.33992,0.55 0.0835,1 0.94098,1 0.85746,0 1.55902,-0.45 1.55902,-1 z m -7.3886,-2.278 c 0.36462,-0.3647 -0.70494,-0.5638 -2.3768,-0.4425 -1.67185,0.1213 -2.83591,0.5517 -2.58678,0.9566 0.51677,0.8397 3.96712,0.4823 4.96358,-0.5141 z"
       id="path3780-8"
       inkscape:connector-curvature="0"
       sodipodi:nodetypes="sssssssssscsssssssscsssscccsssssscsscscsscccssssccccsssssssssscsscsssssssssssssscssssscscsssssscssssssssssscsssssssccccccccsccccccccsssssssss" />
    <path
       style="fill:#000000"
       d="m 183.57259,786.70067 c 0,-0.9401 2.28997,-3.7526 5.08882,-6.25 2.79885,-2.4975 6.96135,-6.2008 9.25,-8.2296 2.75645,-2.4435 3.82359,-4.021 3.16117,-4.6731 -1.39147,-1.3696 -6.49999,-0.2077 -6.49999,1.4784 0,0.8705 -1.11236,1.3835 -3,1.3835 -2.53333,0 -3,-0.3889 -3,-2.5 0,-1.4026 -0.57877,-2.5 -1.3185,-2.5 -3.97735,0 -12.26302,-3.5306 -15.81351,-6.73826 -5.89006,-5.32127 -7.95969,-10.01653 -7.7239,-17.52275 0.10779,-3.43144 0.62456,-6.80149 1.14838,-7.48899 0.62726,-0.82325 0.5692,-1.25 -0.17004,-1.25 -0.68885,0 -1.12244,-2.04899 -1.12244,-5.30422 0,-4.1198 0.63957,-6.31271 2.86421,-9.8206 3.66893,-5.78531 6.97998,-8.34631 14.18915,-10.9749 5.55677,-2.0261 5.75801,-2.22018 4.70304,-4.5356 -1.6303,-3.57811 0.01,-4.59728 6.09744,-3.78968 4.11818,0.54629 5.14617,1.05644 5.14617,2.55383 0,1.38411 0.73113,1.87117 2.80883,1.87117 2.89016,0 12.91662,5.48142 16.98423,9.28521 1.26119,1.17939 3.69035,4.98261 5.39812,8.4516 2.69634,5.47703 3.1094,7.39028 3.13806,14.53522 0.0539,13.4439 -3.34907,20.49448 -13.08288,27.10607 l -5.74637,3.9032 5,-0.6622 c 2.75,-0.3642 7.25,-1.1142 10,-1.6667 17.27159,-3.47016 19.08661,-2.07916 9.36923,7.1808 -6.83259,6.511 -10.00301,8.4293 -20.59333,12.4598 -3.72674,1.4183 -8.3509,3.1954 -10.27589,3.949 -1.925,0.7536 -6.3125,1.3899 -9.75,1.4141 -5.246,0.037 -6.25,-0.2307 -6.25,-1.6653 z m 8.31412,-1.9146 c -0.53434,-1.3925 1.70643,-3.6892 3.68588,-3.7778 0.275,-0.012 1.69446,-1.3302 3.15435,-2.9286 1.45988,-1.5984 3.14738,-2.6014 3.74999,-2.229 0.66247,0.4095 1.09565,-0.1602 1.09565,-1.4408 0,-1.4221 -0.41076,-1.8752 -1.25,-1.3788 -2.04953,1.2121 -15.74999,12.4708 -15.74999,12.943 0,0.2397 1.33588,0.4358 2.96861,0.4358 2.32852,0 2.83426,-0.3502 2.34551,-1.6238 z m 11.1531,-2.259 c 0.56802,-0.4219 2.91868,-1.306 5.22369,-1.9646 6.25858,-1.7883 13.21238,-5.1044 10.75908,-5.1307 -1.1275,-0.012 -2.48527,0.4133 -3.01727,0.9453 -1.95927,1.9593 -13.66187,5.0875 -14.9702,4.0017 -0.92726,-0.7696 -1.21445,-0.5761 -1.10726,0.746 0.0919,1.1334 -0.4941,1.7344 -1.60526,1.6462 -0.9625,-0.076 -1.75,0.4749 -1.75,1.2252 0,1.071 0.58398,1.1421 2.71723,0.3311 1.49447,-0.5682 3.18197,-1.3783 3.74999,-1.8002 z m 8.53277,-8.1763 c 0,-0.5824 -0.45,-0.7809 -1,-0.4409 -0.55,0.3399 -1,0.8164 -1,1.059 0,0.2425 0.45,0.441 1,0.441 0.55,0 1,-0.4766 1,-1.0591 z m 12.5,-3.9409 c -0.33992,-0.55 -0.81648,-1 -1.05902,-1 -0.24254,0 -0.44098,0.45 -0.44098,1 0,0.55 0.47656,1 1.05902,1 0.58246,0 0.7809,-0.45 0.44098,-1 z m -8.5,-2.0586 c 1.925,-0.455 6.08074,-0.9654 9.23499,-1.1343 3.41184,-0.1827 5.93089,-0.8135 6.21861,-1.5571 0.57142,-1.4769 -1.94761,-1.6237 -6.05438,-0.3528 -1.59457,0.4934 -6.14555,1.4626 -10.11329,2.1536 -3.96774,0.691 -6.95972,1.6679 -6.64885,2.171 0.31087,0.503 1.3072,0.6068 2.21407,0.2307 0.90687,-0.3761 3.22385,-1.0561 5.14885,-1.5111 z m 12.34208,0.6095 c 0.37092,-0.9666 0.0755,-1.2647 -0.88726,-0.8952 -0.79384,0.3046 -1.19436,0.9567 -0.89006,1.449 0.76643,1.2401 1.13272,1.126 1.77732,-0.5538 z m -21.34208,-1.11 c 0,-0.2425 -0.45,-0.4409 -1,-0.4409 -0.55,0 -1,0.4765 -1,1.059 0,0.5824 0.45,0.7809 1,0.441 0.55,-0.34 1,-0.8165 1,-1.0591 z m -14.56597,-2.9409 c -0.62239,-3.3177 -0.51185,-3.49996 2.12136,-3.49996 1.52787,0 2.48009,-0.2979 2.11603,-0.662 -0.36405,-0.364 -4.47478,-0.7097 -9.13495,-0.7683 -9.13279,-0.1146 -10.12334,1.0997 -1.70988,2.09606 4.88281,0.5783 5.17342,0.7734 5.17342,3.4734 0,1.5734 0.47039,2.8608 1.04531,2.8608 0.65305,0 0.79892,-1.3135 0.38871,-3.5 z m 11.22911,-1.6322 c -1.02126,-2.75006 -0.92769,-3.26856 0.76704,-4.24996 1.06161,-0.6148 3.53661,-2.64942 5.5,-4.52134 1.9634,-1.87193 2.63439,-2.65943 1.49108,-1.75 -1.14331,0.90942 -2.55766,1.6535 -3.14301,1.6535 -0.58535,0 -1.29358,0.59756 -1.57384,1.32791 -0.28026,0.73036 -2.01591,2.07011 -3.85699,2.97723 -1.84108,0.9071 -2.78491,1.6596 -2.09742,1.6721 0.6875,0.012 1.25,0.8328 1.25,1.82276 0,1.4577 1.70614,4.2 2.61314,4.2 0.11722,0 -0.31028,-1.4095 -0.95,-3.1322 z m -26.53202,-5.20981 c -0.61257,-0.7381 -0.78017,-1.71025 -0.37244,-2.16032 0.40772,-0.45008 0.10123,-0.44666 -0.68111,0.008 -1.00318,0.58248 -2.39881,-0.32817 -4.73512,-3.08968 -1.82198,-2.15398 -3.31939,-3.56844 -3.32757,-3.14365 -0.0226,1.17342 8.09834,9.7277 9.23493,9.7277 0.60115,0 0.55417,-0.5313 -0.11869,-1.34205 z m 5.86889,-1.65799 c 0,-0.55 -0.70156,-1 -1.55902,-1 -0.85746,0 -1.28091,0.45 -0.94099,1 0.33993,0.55 1.04149,1 1.55903,1 0.51754,0 0.94098,-0.45 0.94098,-1 z m 18.44916,-0.33917 c 1.64377,-1.20196 1.66492,-1.40307 0.20638,-1.96276 -1.03545,-0.39734 -2.00615,0.0885 -2.67547,1.33917 -1.21759,2.27509 -0.1561,2.54318 2.46909,0.62359 z m -13.44916,-1.16083 c 0,-0.825 -0.43588,-1.5 -0.96862,-1.5 -0.53273,0 -0.70959,0.675 -0.39301,1.5 0.31659,0.825 0.75246,1.5 0.96862,1.5 0.21615,0 0.39301,-0.675 0.39301,-1.5 z m 6.36163,-1 c 0.31658,-0.825 0.13972,-1.5 -0.39302,-1.5 -0.53273,0 -0.96861,0.675 -0.96861,1.5 0,0.825 0.17686,1.5 0.39301,1.5 0.21616,0 0.65203,-0.675 0.96862,-1.5 z m -14.79177,-4.94091 c -0.30996,-1.1325 -0.85193,-4.42159 -1.20439,-7.30909 l -0.64084,-5.25 -5.36232,0 c -3.6349,0 -5.35525,0.40268 -5.34036,1.25 0.0318,1.80796 3.60307,9.41466 6.00156,12.78303 1.84527,2.59144 2.31553,2.76961 4.58307,1.73645 1.87976,-0.85647 2.38251,-1.67859 1.96328,-3.21039 z m 11.51673,-18.05833 c -0.0361,-16.82586 0.23083,-21.59293 1.18867,-21.22538 0.67939,0.26071 1.77026,-0.0987 2.42413,-0.79866 0.93219,-0.99791 0.76913,-1.38244 -0.75526,-1.78108 -1.97061,-0.51532 -2.78308,-3.69564 -0.94413,-3.69564 0.55,0 1,-0.675 1,-1.5 0,-0.91622 -0.93305,-1.5 -2.39745,-1.5 -2.05858,0 -2.37661,0.44981 -2.25,3.18237 0.12036,2.59762 -0.31192,3.31429 -2.35255,3.90032 -1.375,0.39487 -1.90536,0.76281 -1.17857,0.81763 3.41646,0.25772 4.17857,2.82241 4.17857,14.06204 l 0,11.10522 -6.52105,-0.1794 c -3.58659,-0.0987 -6.81159,0.11112 -7.16668,0.46621 -0.35509,0.35508 2.57939,0.64561 6.52106,0.64561 l 7.16667,0 0,9.66667 c 0,5.31666 0.25497,9.4117 0.56659,9.10007 0.31163,-0.31162 0.54562,-10.33132 0.52,-22.26598 z m 20.62823,16.59443 c 4.14806,-6.1553 2.81243,-9.09519 -4.13206,-9.09519 -3.08182,0 -3.33254,0.28344 -4.74747,5.367 l -1.49383,5.367 2.57926,1.03766 c 3.85102,1.5493 5.27616,1.05991 7.7941,-2.67647 z m 7.09204,0.37835 c -0.30789,-0.30789 -0.86705,0.24711 -1.24258,1.23333 -0.54268,1.4252 -0.42782,1.54006 0.5598,0.5598 0.68342,-0.67834 0.99067,-1.48524 0.68278,-1.79313 z m -31.01068,-5.34825 c -0.28283,-5.3718 -0.42575,-5.64009 -3.1715,-5.9538 l -2.87532,-0.32852 0.72402,4.82852 c 0.92144,6.14516 2.13279,8.41687 4.08806,7.66656 1.17609,-0.45131 1.46228,-1.89128 1.23474,-6.21276 z m 9.30133,3.12471 c 0.57641,-1.5125 1.29652,-3.9875 1.60025,-5.5 0.49036,-2.44184 0.25809,-2.75 -2.07276,-2.75 -2.51515,0 -2.625,0.23016 -2.625,5.5 0,5.94825 1.40373,7.1945 3.09751,2.75 z m 23.55842,-6.51903 c -0.27393,-0.67703 -0.48137,0.11903 -0.46099,1.76903 0.0204,1.65 0.2445,2.20394 0.49804,1.23097 0.25354,-0.97297 0.23687,-2.32297 -0.0371,-3 z m -2.74189,-3.48097 c -0.0645,-4.31762 -0.27816,-5.1171 -0.85753,-3.20934 -0.71856,2.36607 -0.30867,8.95934 0.55698,8.95934 0.21257,0 0.34782,-2.5875 0.30055,-5.75 z m -13.91405,-0.25 c 1.06947,-0.69115 0.0649,-0.93981 -3.49999,-0.86637 -4.35089,0.0896 -4.61053,0.2021 -2,0.86637 1.65,0.41985 3.22499,0.80972 3.49999,0.86637 0.275,0.0567 1.175,-0.33321 2,-0.86637 z m 8.25,0.33772 c -0.6875,-0.27741 -1.8125,-0.27741 -2.5,0 -0.6875,0.27741 -0.125,0.50439 1.25,0.50439 1.375,0 1.9375,-0.22698 1.25,-0.50439 z m 8.40594,-6.60675 c -0.27393,-0.67703 -0.48137,0.11903 -0.46099,1.76903 0.0204,1.65 0.2445,2.20394 0.49804,1.23097 0.25354,-0.97297 0.23687,-2.32297 -0.0371,-3 z m -6.65594,0.44047 c 0,-1.5557 -1.37185,-4.89967 -3.04857,-7.43105 -2.91999,-4.40838 -3.17562,-4.5582 -6.06125,-3.55226 -2.19418,0.76489 -2.84091,1.4933 -2.38042,2.68105 0.34774,0.89695 0.88799,3.76832 1.20054,6.38082 l 0.56828,4.75 4.86071,0 c 4.66865,0 4.86071,-0.11176 4.86071,-2.82856 z m -26.99999,-3.67144 c 0,-6.65114 -2.30279,-7.67203 -3.94742,-1.75 -1.64361,5.91837 -1.37776,7.25 1.44742,7.25 2.36364,0 2.5,-0.3 2.5,-5.5 z m 12,3.46788 c 0,-2.86095 -2.68917,-8.96788 -3.94897,-8.96788 -0.60731,0 -1.05103,2.32199 -1.05103,5.5 0,5.2 0.13636,5.5 2.5,5.5 1.8465,0 2.5,-0.53119 2.5,-2.03212 z m -20.37388,-4.71788 c 0.90209,-4.91082 0.82402,-5.92749 -0.53494,-6.96615 -0.87516,-0.66888 -2.01481,-1.09017 -2.53257,-0.9362 -1.76046,0.52351 -6.57933,7.23778 -7.50096,10.45129 l -0.91805,3.20106 5.21514,0 5.21513,0 z m 36.3327,-3.41435 c -1.45942,-2.83302 -6.0217,-7.83565 -7.14592,-7.83565 -0.4471,0 -0.81291,0.45 -0.81291,1 0,0.55 0.69231,1 1.53848,1 0.84616,0 2.75866,1.97759 4.25,4.39465 2.81301,4.55913 4.27759,5.53154 2.17035,1.441 z m -39.13553,-7.44486 c 0.52212,0.32269 1.18356,-0.30901 1.46985,-1.4038 0.51427,-1.96658 0.48595,-1.96588 -2.35607,0.0578 -1.58213,1.12658 -3.19256,2.58987 -3.57873,3.25176 -0.38618,0.66189 0.24686,0.37186 1.40674,-0.64452 1.15989,-1.01638 2.53608,-1.58394 3.05821,-1.26124 z m 39.1767,2.2642 c 0,-0.18976 -1.0125,-1.20226 -2.25,-2.25 l -2.25,-1.90499 1.90499,2.25 c 1.79022,2.11444 2.59501,2.70524 2.59501,1.90499 z m -12,-1.55716 c 0,-0.4962 -1.33619,-1.36798 -2.96929,-1.93728 -2.78825,-0.97199 -2.89554,-0.91698 -1.75946,0.90217 1.21687,1.94852 4.72875,2.71726 4.72875,1.03511 z m -19.42426,-2.18151 c 1.8801,-2.07749 1.87768,-2.08003 -0.81365,-0.85378 -1.48465,0.67646 -2.46193,1.61411 -2.17171,2.08369 0.72845,1.17865 0.85153,1.12795 2.98536,-1.22991 z"
       id="path3780-2"
       inkscape:connector-curvature="0"
       sodipodi:nodetypes="sssssssssssssssscsssssscsssssssscscssssssscssssssssssssssssssssssssssssssssssssssssssssssssscsssscccsssssssssssssssssssssssscscsssscssssssssscssscscsssscsssssssscssssssssccsccssssssscsssssccsccssssscssssssssssssssscccssssssssssssssscsssssssscs" />
    <path
       style="fill:#000000"
       d="m 195.58918,937.28272 c -1.48426,-1.0008 -4.38953,-6.7583 -4.38953,-8.6991 0,-2.1224 -1.08297,-1.9571 -6.14793,0.9383 -4.47817,2.5601 -8.30089,3.2129 -9.30449,1.5891 -0.31375,-0.5077 0.53582,-3.9708 1.88792,-7.6958 l 2.45837,-6.7727 -4.01115,-4.3516 c -5.70465,-6.1888 -5.02677,-7.7569 3.35321,-7.7569 l 6.68214,0 6.95653,-6.8894 c 8.53531,-8.4529 10.74338,-8.5297 9.78214,-0.3401 -0.33759,2.8762 -0.33853,6.9235 -0.002,8.9939 0.49068,3.0195 1.12945,3.8782 3.22853,4.3398 7.5032,1.6499 9.11683,2.5324 9.11683,4.9859 0,1.9624 -1.01918,2.9068 -5.25,4.8647 -7.34951,3.4012 -8.73502,4.7563 -8.84968,8.6554 -0.20864,7.0952 -2.35565,10.2659 -5.51079,8.1385 z m 2.61047,-7.1266 c 0,-5.3136 2.60116,-11.297 4.78706,-11.0117 0.94212,0.123 3.70324,-0.6065 6.13582,-1.6211 l 4.42288,-1.8448 -6.42288,-2.0723 -6.42288,-2.0722 -0.5,-8.2894 -0.5,-8.2895 -5.9687,6.0395 -5.96869,6.0394 -6.53131,0.01 -6.5313,0.01 3.75,3.5543 c 4.33054,4.1045 4.60478,6.1857 1.76459,13.3913 -2.30105,5.8378 -1.57552,6.244 4.48541,2.511 4.56461,-2.8115 8.5,-3.2475 8.5,-0.9418 0,2.4606 2.80142,8.4678 3.94897,8.4678 0.57807,0 1.05103,-1.7451 1.05103,-3.8779 z m -13.27845,-7.8171 c -0.2465,-0.9927 -0.39719,-3.3707 -0.33486,-5.2843 0.0902,-2.7689 0.76909,-3.892 3.32479,-5.5 1.76631,-1.1114 3.22881,-2.5577 3.25,-3.214 0.0454,-1.4063 3.92525,-4.3067 5.76103,-4.3067 1.61611,0 1.6723,4.2052 0.0775,5.8 -0.93333,0.9333 -0.93333,1.2 0,1.2 1.58094,0 1.54465,4.2528 -0.05,5.8592 -1.00272,1.0102 -0.87201,1.1153 0.66074,0.5314 1.6409,-0.6252 1.81936,-0.3864 1.26365,1.6907 -0.35589,1.3303 -0.65323,2.9812 -0.66074,3.6687 -0.02,1.8346 -3.09338,1.5232 -4.54386,-0.4604 -1.29586,-1.7722 -1.15974,-1.7987 -7.63493,1.4833 -0.36583,0.1855 -0.86682,-0.4751 -1.11332,-1.4679 z m 4.28209,-3.1371 c -0.55886,-0.1863 -0.70192,-0.8628 -0.31791,-1.5033 0.384,-0.6405 -0.0632,-0.547 -0.99377,0.2078 -0.93058,0.7549 -1.69196,1.9962 -1.69196,2.7585 0,1.138 0.35971,1.1614 2.00987,0.1309 1.10543,-0.6904 1.55262,-1.4076 0.99377,-1.5939 z"
       id="path3780-45"
       inkscape:connector-curvature="0"
       sodipodi:nodetypes="csssscsscsscssssccssscccccccccssssssssssssssssscssscssssc" />
    <path
       style="fill:#000000"
       d="m -237.12965,1050.6683 c -1.54608,-4.0291 0.71375,-8.0936 9.0036,-16.194 4.58781,-4.4829 8.34147,-8.429 8.34147,-8.7691 0,-0.34 -1.07424,-0.3486 -2.38719,-0.019 -2.75635,0.6918 -5.61281,-2.4942 -5.61281,-6.2604 0,-2.9248 4.19635,-5.7191 7.38623,-4.9185 1.92686,0.4836 2.51493,0.1479 2.97889,-1.7007 0.59242,-2.3604 -0.6382,-8.0354 -2.30766,-10.6416 -0.80389,-1.255 -1.21347,-1.2086 -2.91395,0.3303 -1.08822,0.9849 -3.02819,1.642 -4.31104,1.4603 -1.99949,-0.2832 -2.33247,-0.9014 -2.33247,-4.33041 0,-3.38685 0.34493,-4.04905 2.25,-4.31955 1.94501,-0.2763 2.25,-0.9176 2.25,-4.731 0,-3.8715 -0.30597,-4.4882 -2.5,-5.0389 -1.75083,-0.4394 -2.5,-1.3096 -2.5,-2.904 0,-1.3397 -1.0546,-2.9676 -2.5627,-3.9557 -6.41387,-4.2025 -12.4373,-18.9632 -12.4373,-30.4781 0,-12.391 5.1898,-21.0798 13.52497,-22.6434 6.0807,-1.1408 13.85916,0 17.445,2.5492 6.69978,4.7707 10.84452,20.7583 8.15281,31.4481 -1.38874,5.5152 -7.22957,14.942 -10.64434,17.1794 -2.14826,1.4076 -2.3863,2.118 -1.84468,5.505 0.41373,2.5873 0.24439,3.8889 -0.50595,3.8889 -0.66786,0 -1.12781,1.8121 -1.12781,4.4433 0,3.2842 0.51291,4.8026 1.96615,5.8204 4.61448,3.23225 6.4164,12.79396 4.07435,21.62036 -0.52772,1.9888 -1.23089,5.416 -1.56259,7.616 -0.50008,3.3167 -1.81912,5.1511 -7.72173,10.7384 -6.14544,5.8171 -7.19638,7.3209 -7.6874,11 -0.49104,3.6791 -0.92719,4.3032 -3.19103,4.5657 -1.66774,0.1934 -2.84086,-0.2656 -3.22282,-1.2609 z m 3.00735,-3.7932 c -0.27741,-0.6875 -0.50439,-0.125 -0.50439,1.25 0,1.375 0.22698,1.9375 0.50439,1.25 0.27741,-0.6875 0.27741,-1.8125 0,-2.5 z m 17.83064,-28.7385 c 0.35034,-0.5669 -0.0511,-0.7345 -0.94098,-0.393 -1.73242,0.6647 -2.04939,1.3815 -0.61096,1.3815 0.51754,0 1.21592,-0.4448 1.55194,-0.9885 z m -9.85403,-17.6539 c -0.0764,-0.90331 0.31111,-1.72831 0.86111,-1.83336 0.55,-0.105 0.6597,0 0.24377,0.22785 -0.41593,0.2303 -0.51201,0.8139 -0.21353,1.29691 0.6193,1.002 4.34512,-2.18326 3.78903,-3.23936 -0.58579,-1.1124 -6.31927,1.266 -6.31927,2.62155 0,1.07691 0.90342,2.56881 1.55556,2.56881 0.12222,0 0.15972,-0.7391 0.0833,-1.6424 z m 4.85894,-19.36756 c -0.57867,-2.6346 -0.11607,-3.5395 3.71105,-7.259 6.83436,-6.6423 9.79955,-13.5383 9.75096,-22.6774 -0.0658,-12.3809 -5.08823,-21.0002 -13.70984,-23.5286 -1.75255,-0.514 -2.24661,-0.2581 -2.23469,1.1575 0.0115,1.3665 0.22359,1.4889 0.85469,0.4935 0.68144,-1.0748 1.13549,-1.0277 2.41325,0.25 0.86564,0.8657 2.05604,1.5739 2.64532,1.5739 0.58929,0 1.07143,0.675 1.07143,1.5 0,0.825 -0.675,1.5 -1.5,1.5 -2.35574,0 -1.75393,1.953 0.91443,2.9675 2.58309,0.9821 4.17624,4.2678 2.99561,6.1781 -0.40874,0.6613 -0.28617,0.8959 0.28401,0.5435 1.15828,-0.7159 5.30595,2.8295 5.30595,4.5354 0,0.6306 -1.0125,2.2607 -2.25,3.6223 -1.2375,1.3617 -1.74493,2.1871 -1.12762,1.8343 1.50892,-0.8623 2.5444,5.75 1.38003,8.8126 -0.49293,1.2965 -1.89323,2.4997 -3.11852,2.6797 -2.95364,0.4338 -6.60352,6.705 -4.6981,8.0722 0.97521,0.6998 0.87229,0.8015 -0.399,0.3942 -1.08034,-0.346 -2.42643,0.3579 -3.64392,1.9057 -2.19784,2.7941 -3.94173,3.1423 -4.78124,0.9545 -0.31659,-0.825 -1.35912,-1.5 -2.31674,-1.5 -1.06404,0 -2.44259,-1.5555 -3.54489,-4 -0.99206,-2.2 -2.18541,-4 -2.65187,-4 -0.46647,0 -0.75882,-0.3375 -0.64967,-0.75 0.56143,-2.1217 -1.43748,-10.0379 -2.49543,-9.8827 -1.25224,0.1838 -1.70303,0.8963 -1.70303,2.6917 0,0.5825 0.41891,0.8002 0.9309,0.4837 1.3687,-0.8459 2.46939,1.457 1.26976,2.6567 -2.03069,2.0306 5.81793,14.037 10.05527,15.3818 1.39419,0.4425 1.8133,1.2763 1.49046,2.9652 -0.3655,1.9119 0.0353,2.4244 2.15224,2.7517 1.43075,0.2212 2.97462,0.4697 3.43083,0.5521 0.4562,0.082 0.53197,-1.2046 0.16837,-2.8601 z m -8.49783,-10.3676 c 0,-0.2077 -0.7875,-0.9952 -1.75,-1.75 -1.58606,-1.2439 -1.62143,-1.2085 -0.37756,0.3775 1.30637,1.6658 2.12756,2.1955 2.12756,1.3725 z m 3.73628,-3.7716 c 0.11422,-1.5163 -0.1508,-1.8364 -0.90007,-1.0871 -0.58407,0.5841 -0.7596,1.5512 -0.39006,2.1491 0.94006,1.521 1.10583,1.3846 1.29013,-1.062 z m 5.26372,-4.0652 c 0,-0.9821 -0.15526,-1.7857 -0.34501,-1.7857 -0.18976,0 -1.07224,0.8036 -1.96106,1.7857 -1.49921,1.6566 -1.47427,1.7857 0.34501,1.7857 1.21595,0 1.96106,-0.6784 1.96106,-1.7857 z m 7.7516,-1.2809 c 0.41162,-0.454 0.0734,-0.4949 -0.7516,-0.091 -0.825,0.4039 -0.62649,0.026 0.44113,-0.8397 1.88943,-1.5322 1.87611,-1.5738 -0.5,-1.5589 -2.7487,0.017 -4.33299,0.9215 -4.66755,2.664 -0.25207,1.3128 4.25972,1.1691 5.47802,-0.1745 z m -20.7516,-0.5048 c 0,-0.55 -0.45,-1 -1,-1 -0.55,0 -1,0.45 -1,1 0,0.55 0.45,1 1,1 0.55,0 1,-0.45 1,-1 z m 19,-6.5386 c 0,-0.6324 -3.37648,0.9001 -5.59316,2.5386 -4.20345,3.1072 -3.34575,3.8911 1.02779,0.9395 2.51095,-1.6947 4.56537,-3.2598 4.56537,-3.4781 z m -7.61309,1.3556 c -0.28881,-0.4673 -0.94401,-0.5907 -1.45601,-0.2743 -1.30838,0.8086 -1.16106,1.124 0.52511,1.124 0.80081,0 1.21971,-0.3824 0.9309,-0.8497 z m -4.95834,-1.3884 c 2.03732,-2.0373 1.98676,-2.5215 -0.17857,-1.71 -1.50166,0.5628 -1.5645,0.4276 -0.44285,-0.9527 1.13479,-1.3964 1.03384,-1.5371 -0.76558,-1.0665 -2.52818,0.6611 -3.4006,1.9226 -2.66157,3.8485 0.72192,1.8813 2.08824,1.841 4.04857,-0.1193 z m -11.82857,-2.864 c 0,-1.8895 -0.27655,-3.2645 -0.61455,-3.0556 -0.96919,0.599 0.81408,-12.2659 2.01,-14.5005 0.5912,-1.1047 0.84323,-2.0085 0.56006,-2.0085 -0.28318,0 -1.43643,1.8064 -2.56279,4.0143 -3.09327,6.0633 -3.48542,18.9857 -0.57614,18.9857 0.68158,0 1.18342,-1.4568 1.18342,-3.4354 z m 4.84721,1.35 c -0.32197,-0.521 -1.01165,-0.6838 -1.53262,-0.3618 -0.52097,0.322 -0.68378,1.0117 -0.3618,1.5326 0.32197,0.521 1.01165,0.6838 1.53262,0.3618 0.52097,-0.3219 0.68378,-1.0116 0.3618,-1.5326 z m 15.52137,-3.1876 c 0.0173,-0.4252 -1.09358,-0.036 -2.46858,0.865 -1.375,0.9009 -2.5,2.0573 -2.5,2.5697 0,1.1002 4.92256,-2.3027 4.96858,-3.4347 z m 1.99962,-6.1681 c 0.0175,-0.5176 -0.62889,-0.068 -1.4364,1 -0.8075,1.0676 -1.4825,2.3646 -1.5,2.8822 -0.0175,0.5177 0.62889,0.068 1.4364,-1 0.8075,-1.0676 1.4825,-2.3646 1.5,-2.8822 z m -17.9682,2.5636 c 0,-0.4827 -0.63887,-1.4078 -1.41971,-2.0558 -1.14602,-0.9512 -1.35355,-0.8302 -1.07651,0.6275 0.18876,0.9932 0.37763,1.9183 0.41971,2.0558 0.21187,0.6923 2.07651,0.1288 2.07651,-0.6275 z m 15.38726,-5.5274 c 0.887,0.3404 1.61274,0.1603 1.61274,-0.4002 0,-0.5605 -1.82811,-1.3279 -4.06247,-1.7054 -3.15041,-0.5323 -4.49667,-0.2934 -5.99647,1.0639 -1.47652,1.3362 -1.66856,2.07 -0.81186,3.1023 0.93025,1.1209 1.6799,1.0074 4.38373,-0.6637 1.79387,-1.1086 3.98732,-1.7373 4.87433,-1.3969 z m -10.81997,-3.3611 c -0.90636,-0.9064 -3.69481,0.7507 -3.04164,1.8075 0.44804,0.725 1.10197,0.6825 2.08754,-0.1354 0.78933,-0.6551 1.21867,-1.4076 0.9541,-1.6721 z m 6.09938,-4.69 c 0,-0.8008 -0.38234,-1.2197 -0.84965,-0.9309 -0.4673,0.2888 -0.59075,0.944 -0.27431,1.456 0.80862,1.3084 1.12396,1.1611 1.12396,-0.5251 z m 5.33333,0.063 c 0,-0.2162 -0.69837,-0.661 -1.55194,-0.9885 -0.88992,-0.3415 -1.29132,-0.1739 -0.94098,0.393 0.58726,0.9502 2.49292,1.4054 2.49292,0.5955 z m -7.23242,-1.9633 c 1.94838,-1.2042 1.43447,-3.6437 -0.76758,-3.6437 -1.11111,0 -2,0.6667 -2,1.5 0,0.825 -0.675,1.5 -1.5,1.5 -0.825,0 -1.5,-0.4538 -1.5,-1.0085 0,-0.5959 -0.83118,-0.4936 -2.03189,0.25 -1.95833,1.213 -1.93118,1.278 0.75,1.796 3.52063,0.6802 5.48965,0.5702 7.04947,-0.3938 z"
       id="path3780-5"
       inkscape:connector-curvature="0"
       sodipodi:nodetypes="sssssssssssssssssssssssssssssssssssscssccccsssccssssssssssssssssssscssssssssssssscssssssssssssssssscssssssssssssssssssssssssssssccccccsscscscsssssssssssssssssssssssssssssssss" />
    <path
       style="fill:#b3b3b3"
       d="m 39.006765,1021.1966 c -5.9583,-1.1493 -9.7068,-2.9217 -15.1978,-7.1859 -8.3568,-6.4896 -12.3048,-14.62256 -12.2024,-25.13706 0.1655,-16.9891 11.8732,-32.5605 27.843,-37.0318 9.867,-2.7626 21.7164,0.4026 29.9623,8.0034 8.5193,7.8528 12.2859,20.6619 9.7126,33.0301 -1.205,5.7917 -7.89,19.95046 -9.4194,19.95046 -0.5008,0 -2.5503,1.2573 -4.5545,2.794 -2.0041,1.5366 -4.9939,3.3791 -6.6439,4.0944 -3.1719,1.375 -15.2833,2.2957 -19.4999,1.4824 z m 2,-3.8708 c 0,-0.825 -0.6892,-1.5 -1.5314,-1.5 -0.8423,0 -1.7713,-0.6252 -2.0646,-1.3895 -0.3257,-0.8487 -1.3479,-1.1764 -2.6265,-0.842 -1.7615,0.4606 -2.0019,0.1974 -1.5162,-1.6597 0.4777,-1.8269 0.2035,-2.1556 -1.5921,-1.9079 -1.6785,0.2315 -2.1522,-0.2008 -2.0941,-1.911 0.041,-1.2156 -0.4703,-2.4194 -1.1368,-2.6752 -0.7571,-0.2905 -1.0376,0.2016 -0.7475,1.3111 0.2555,0.9768 -0.2561,2.4966 -1.1368,3.3773 -1.4683,1.4684 -1.4333,1.6912 0.4224,2.6843 1.3641,0.7301 2.0236,0.7456 2.0236,0.048 0,-0.5694 0.675,-1.0352 1.5,-1.0352 1.8104,0 2.0122,2.6494 0.25,3.2821 -0.6875,0.2469 1,1.153 3.75,2.0137 6.3685,1.9932 6.5,1.9974 6.5,0.2042 z m 13.25,0.8378 c -0.6875,-0.2775 -1.8125,-0.2775 -2.5,0 -0.6875,0.2774 -0.125,0.5043 1.25,0.5043 1.375,0 1.9375,-0.2269 1.25,-0.5043 z m 0.6765,-3.462 c 2.1058,-0.7341 2.8849,-1.4643 2.2451,-2.1041 -1.3092,-1.3093 -8.7388,0 -10.2365,1.8065 -0.9751,1.1749 -0.6636,1.4218 1.7932,1.4218 1.6353,0 4.4245,-0.5059 6.1982,-1.1242 z m -7.9265,-4.4439 c 0,-1.4149 -2.7978,0.039 -4.4619,2.3185 l -1.9618,2.6875 3.2118,-2.287 c 1.7665,-1.2579 3.2119,-2.4814 3.2119,-2.719 z m -7.3378,0.3181 c -0.2774,-0.6875 -0.5043,-0.125 -0.5043,1.25 0,1.375 0.2269,1.9375 0.5043,1.25 0.2775,-0.6875 0.2775,-1.8125 0,-2.5 z m 30.2968,-3.1179 c 0.9028,-1.3993 0.9188,-2.1519 0.064,-3 -0.8528,-0.8458 -0.9729,-0.6896 -0.4751,0.6179 0.4659,1.2239 0.1757,1.75 -0.9655,1.75 -0.8975,0 -2.0595,-1.125 -2.5823,-2.5 -1.2261,-3.225 -1.9968,-3.2128 -1.4101,0.022 0.5334,2.9418 -1.8856,4.3986 -4.5455,2.7375 -1.3147,-0.821 -1.9543,-0.6337 -2.876,0.8422 -1.01,1.6174 -0.9005,1.898 0.7414,1.898 3.0337,0 5.0902,1.084 5.0902,2.6831 0,1.0935 0.7355,0.8744 2.877,-0.857 1.5823,-1.2794 3.4193,-3.1666 4.0821,-4.194 z m -19.7715,2.6848 c -0.7219,-0.2888 -1.5844,-0.2533 -1.9167,0.079 -0.3323,0.3323 0.2583,0.5687 1.3125,0.5252 1.1649,-0.048 1.4019,-0.2849 0.6042,-0.6041 z m -9.5399,-4.1238 c -1.965,-1.965 -2.9441,-2.2281 -6.0933,-1.6373 -2.3138,0.4341 -3.2818,0.9946 -2.5251,1.4623 0.6748,0.4171 0.958,1.1936 0.6292,1.7256 -0.3595,0.5817 1.5805,0.9321 4.8662,0.8789 l 5.4641,-0.088 -2.3411,-2.3411 z m 15.2726,-1.3476 c 2.1697,-3.8838 0.194,-5.84546 -5.8877,-5.84546 -3.449,0 -5.2096,0.5382 -6.5284,1.99546 -1.7531,1.9372 -1.7252,2.0703 0.9546,4.5538 3.7512,3.4766 9.3169,3.1348 11.4615,-0.7038 z m -32.5626,-2.2217 c -0.9504,-1.9931 -2.3355,-3.62376 -3.078,-3.62376 -1.0781,0 -1.1156,0.4532 -0.1863,2.24996 1.4458,2.7956 4.0986,5.8914 4.6101,5.38 0.2102,-0.2103 -0.3953,-2.0131 -1.3458,-4.0062 z m 39.6423,-0.357 c 0,-1.0077 0.6565,-1.3284 2,-0.977 1.3281,0.3473 2,0.031 2,-0.9424 0,-0.80596 0.45,-1.18726 1,-0.84736 0.55,0.34 1,-0.083 1,-0.9409 0,-2.0303 -0.4896,-1.9739 -5.0335,0.58 -4.1283,2.32016 -6.1627,5.98646 -2.8397,5.11746 1.0303,-0.2694 1.8732,-1.1648 1.8732,-1.9898 z m -28.475,-0.3773 c 5.9522,-1.4988 6.5969,-3.83936 2.3878,-8.66976 -5.2501,-6.0249 -7.9127,-6.3146 -7.9127,-0.8606 0,1.7825 -0.4154,3.6684 -0.9231,4.1909 -1.1212,1.1539 -0.2206,6.44996 1.0968,6.44996 0.5174,0 2.9254,-0.4997 5.3512,-1.1105 z m -14.2068,-6.32826 c 1.75,0.3795 3.5125,1.1961 3.9166,1.8145 0.5354,0.8194 0.7388,0.8076 0.75,-0.044 0.01,-0.6426 0.2972,-1.9029 0.6417,-2.8008 0.5196,-1.354 0.1357,-1.5248 -2.25,-1.0009 -1.8419,0.4045 -2.4167,0.3053 -1.5981,-0.2758 0.957,-0.6793 0.6517,-1.193 -1.2142,-2.0432 -1.5609,-0.7111 -2.715,-0.776 -3.0874,-0.1734 -0.9147,1.4799 -2.4767,1.1407 -2.4767,-0.5378 0,-0.825 0.6181,-1.5 1.3737,-1.5 1.0182,0 1.2024,-0.8372 0.7118,-3.236 -0.4562,-2.2309 -0.1927,-3.7839 0.8486,-5 2.4207,-2.8272 4.0659,-2.1486 4.0659,1.677 0,1.8926 0.4512,3.7199 1.0027,4.0607 0.6668,0.4121 0.655,1.2694 -0.035,2.559 -0.7145,1.3351 -0.7154,1.9393 0,1.9393 0.5693,0 1.0351,-0.6846 1.0351,-1.5214 0,-0.8368 1.1232,-2.0332 2.496,-2.6587 2.3445,-1.0682 2.386,-1.2142 0.6839,-2.4065 -0.9967,-0.6981 -2.4106,-3.0824 -3.1419,-5.2984 -1.1336,-3.4347 -1.5974,-3.886 -3.1433,-3.0586 -0.9975,0.5339 -2.3594,0.8521 -3.0265,0.7071 -3.0501,-0.6626 -4.8283,13.3428 -2.6182,20.6205 l 1.25,4.11596 0.3182,-3.31436 c 0.3036,-3.1623 0.4643,-3.2828 3.5,-2.6244 z m 53.0587,-1.3638 c 1.6308,-6.9904 0.489,-7.6929 -1.2539,-0.7715 -1.1547,4.5859 -1.4802,8.26466 -0.6585,7.44296 0.2554,-0.2554 1.116,-3.25756 1.9124,-6.67146 z m -4.9174,-2.8918 c 0.5902,-2.3514 0.1411,-3.2835 -2.944,-6.1108 -2.9362,-2.6909 -3.9183,-3.1053 -5.0779,-2.143 -0.7906,0.6562 -1.4376,2.0525 -1.4376,3.1028 0,1.0503 -0.649,3.4629 -1.4422,5.3613 -1.349,3.2289 -1.3074,3.5461 0.6456,4.914 1.8598,1.3027 2.4956,1.2542 5.8237,-0.4437 2.4702,-1.2602 3.9719,-2.846 4.4324,-4.6806 z m -13.7323,0.7293 c 0.604,-2.4942 1.3799,-5.2422 1.7242,-6.1067 0.4238,-1.0643 -0.194,-1.9455 -1.9127,-2.7286 -2.1772,-0.992 -2.5555,-0.9106 -2.6571,0.5719 -0.1956,2.8531 0.248,4.7089 1.2101,5.0619 2.656,0.9746 -1.8622,5.1666 -5.5688,5.1666 -1.7422,0 -4.153,-3.4008 -4.8377,-6.8244 -0.7054,-3.5271 1.0065,-4.341 3.6244,-1.7232 0.7988,0.7988 1.7252,1.1796 2.0586,0.8461 0.7487,-0.7487 -0.3487,-8.4943 -1.3622,-9.6147 -0.4061,-0.4489 -2.4108,1.462 -4.4548,4.2466 -2.044,2.7845 -4.3268,5.4044 -5.0729,5.8219 -1.0442,0.5844 -0.5391,1.819 2.1943,5.3635 3.4363,4.456 3.7185,4.602 8.7536,4.5292 l 5.2028,-0.075 z m -27.7271,-0.9758 c 0,-0.5176 -0.45,-1.2191 -1,-1.5591 -0.55,-0.3399 -1,0.083 -1,0.941 0,0.8575 0.45,1.559 1,1.559 0.55,0 1,-0.4234 1,-0.9409 z m 48.7499,-6.0454 c 1.5849,-0.017 1.6248,-5.0309 0.081,-10.1833 -0.7074,-2.3614 -1.4571,-3.4353 -1.899,-2.7203 -0.8093,1.3095 -3.932,0.5081 -3.932,-1.0091 0,-0.529 0.88,-1.1057 1.9557,-1.2814 1.9298,-0.3154 1.9304,-0.3525 0.04,-2.8196 -1.8469,-2.4101 -1.895,-2.4191 -1.3391,-0.25 0.4855,1.894 0.175,2.25 -1.9624,2.25 -2.0526,0 -2.7704,0.7185 -3.7469,3.75 -0.6643,2.0625 -1.6634,4.3234 -2.2201,5.0242 -0.5567,0.7008 -0.8355,1.3995 -0.6196,1.5527 0.2158,0.1531 1.7425,1.1131 3.3925,2.1332 1.65,1.0201 3.3826,2.4996 3.8502,3.2878 0.5216,0.879 1.6814,1.21 3,0.8562 1.1824,-0.3172 2.7123,-0.5829 3.3998,-0.5904 z m -5.0263,-4.2637 c -3.1569,-3.001 -3.9129,-5.75 -1.5813,-5.75 0.5366,0 0.7235,0.4081 0.4153,0.9068 -0.3082,0.4987 0.4075,0.6536 1.5905,0.3442 2.5307,-0.6618 4.8518,1.9408 4.8518,5.4402 0,3.1257 -1.2288,2.9065 -5.2763,-0.9412 z m -51.1195,1.5209 c -0.3323,-0.3323 -0.5686,0.2583 -0.5252,1.3125 0.048,1.1649 0.285,1.4019 0.6042,0.6041 0.2888,-0.7218 0.2533,-1.5843 -0.079,-1.9166 z m 20.2743,-2.6132 c 4.5681,-5.9212 5.2261,-8.6577 2.0817,-8.6577 -1.1219,0 -3.7841,-0.8899 -5.9161,-1.9775 l -3.8763,-1.9775 -3.0839,3.5123 c -3.3391,3.8031 -3.6056,4.9401 -2.0914,8.9227 0.8178,2.151 5.5188,5.3179 8.136,5.4809 0.3456,0.022 2.4831,-2.3649 4.75,-5.3032 z m 12.1216,0.9648 c 0,-0.2077 -0.7875,-0.9952 -1.75,-1.75 -1.5861,-1.2439 -1.6215,-1.2085 -0.3776,0.3775 1.3064,1.6658 2.1276,2.1955 2.1276,1.3725 z m 9.073,-5.7657 c 2.6272,-5.1497 2.4576,-6.2146 -1.4658,-9.2071 l -3.3926,-2.5878 -4.1073,2.9754 c -2.259,1.6364 -4.1073,3.7429 -4.1073,4.6812 0,0.9382 1.8814,3.6229 4.1809,5.9659 4.7166,4.8059 5.6007,4.6242 8.8921,-1.8276 z m -32.073,-10.7309 c 0,-0.275 -1.35,0.7933 -3,2.3741 -1.65,1.5808 -3,3.0992 -3,3.3742 0,0.275 1.35,-0.7934 3,-2.3742 1.65,-1.5808 3,-3.0991 3,-3.3741 z m 17.6617,2.5576 2.1617,-2.2819 -5.6617,0 c -3.114,0 -4.8412,0.1759 -3.8383,0.3867 1.0426,0.2191 1.6016,0.9613 1.3054,1.7331 -0.4367,1.1382 0.4721,1.7695 3.3712,2.3419 0.275,0.054 1.4727,-0.9281 2.6617,-2.1832 z m -10.0805,-3.4335 c -0.3177,-1.5125 -0.1354,-3.425 0.4052,-4.25 0.6571,-1.0027 0.988,-1.0856 0.9983,-0.25 0.01,0.6875 0.4653,1.25 1.0153,1.25 0.55,0 1,-0.5768 1,-1.2819 0,-0.705 1.1773,-1.3793 2.6162,-1.4984 2.135,-0.1767 2.5237,0.1373 2.1132,1.7071 -0.3528,1.3491 -0.089,1.7647 0.8837,1.3914 0.7628,-0.2927 1.3869,-0.934 1.3869,-1.4252 0,-1.3403 4.4088,-1.0743 5.9176,0.357 1.0893,1.0335 1.0931,0.8775 0.022,-0.9002 -0.7699,-1.2775 -1.8989,-1.9188 -2.7817,-1.58 -0.9633,0.3696 -1.2315,0.1587 -0.7627,-0.5998 0.3977,-0.6435 1.709,-1.2222 2.914,-1.286 1.6098,-0.085 1.7407,-0.2346 0.4934,-0.5632 -0.9337,-0.246 -2.611,0.042 -3.7275,0.6391 -1.723,0.9222 -1.9314,0.8299 -1.3788,-0.6103 0.5046,-1.3149 0.256,-1.5452 -1.1043,-1.0232 -0.9655,0.3705 -2.9561,0.6805 -4.4236,0.6889 -1.9147,0.011 -2.2779,0.2626 -1.2861,0.8907 1.0943,0.6931 0.9596,1.0095 -0.6464,1.5192 -1.1157,0.3541 -2.4127,0.5751 -2.8821,0.4909 -2.4239,-0.4343 -3.1772,0.4368 -3.5242,4.0754 -0.348,3.6488 0.1901,4.7097 2.5001,4.9296 0.4562,0.043 0.5694,-1.1586 0.2517,-2.6711 z"
       id="path3780-1"
       inkscape:connector-curvature="0"
       sodipodi:nodetypes="sssssssccscscccscccscssssccsssssscsssscsscscccccsccscsscccccccccscssccccscsccssccscssssssssssssccccscccssccsccssscccsccscccccccccsccscscsccssccsscsscsssssscccscccscscsccccsssssssccsssscsscsscsscccssscssssscccscscccccssscssccsscsscsscscsccc" />
    <path
       style="fill:#000000"
       d="m -71.272444,828.78523 c -0.825,-0.5331 -2.557,-0.9762 -3.8489,-0.9846 -6.3899,-0.042 -13.1225,-6.8563 -16.1368,-16.33342 -1.9548,-6.1462 -1.5496,-15.0799 0.8611,-18.9804 2.6369,-4.2665 5.8262,-5.7016 12.6716,-5.7016 2.9991,0 5.453,-0.2979 5.453,-0.6621 0,-0.3642 -1.1616,-2.6443 -2.5814,-5.0669 -3.7618,-6.4191 -2.1571,-8.9483 3.7289,-5.8773 2.5155,1.3125 2.674,1.2499 3.1806,-1.2561 0.6379,-3.156 7.2483,-11.1376 9.2241,-11.1376 3.4527,0 6.4378,11.7548 4.6392,18.2687 -0.996,3.6072 -0.9303,3.7507 2.6436,5.7829 6.0854,3.4601 7.6649,6.4375 7.6649,14.4484 0,5.4389 -0.576,8.228 -2.583,12.50612 -3.7549,8.0043 -7.6237,11.4063 -15.7928,13.8876 -8.0315,2.4395 -7.2145,2.3405 -9.1241,1.1063 z m 4.2499,-2.6622 c -2.0065,-0.8097 -1.4384,-3.3378 0.75,-3.3378 1.1,0 2,0.45 2,1 0,2.2946 5.2216,0.8213 8.7647,-2.4729 2.7697,-2.5751 3.2829,-3.4799 1.9853,-3.5 -2.2835,-0.035 -2.2259,-2.2177 0.1354,-5.1338 1.6986,-2.09772 2.0702,-2.18302 3.75,-0.86082 1.7049,1.34182 1.7502,1.32142 0.5285,-0.2387 -1.4579,-1.8618 -0.8126,-3.7938 1.2673,-3.7938 1.6569,0 3.0623,-7.9809 1.6149,-9.1705 -0.5661,-0.4654 -0.8296,-0.5638 -0.5853,-0.2187 0.451,0.6372 -1.8696,3.3892 -2.858,3.3892 -0.297,0 -0.2574,-0.7875 0.088,-1.75 0.3454,-0.9625 0.2975,-1.4537 -0.1064,-1.0916 -0.4039,0.3621 -0.8257,1.2621 -0.9374,2 -0.1117,0.7379 -0.5545,1.9041 -0.984,2.5916 -0.4402,0.7047 -0.3189,1.25 0.2781,1.25 0.5825,0 1.059,-0.45 1.059,-1 0,-0.55 0.675,-1 1.5,-1 0.825,0 1.5,0.675 1.5,1.5 0,0.825 -0.7015,1.5 -1.559,1.5 -0.8574,0 -1.3009,0.4176 -0.9855,0.928 0.3155,0.5104 -0.3329,1.2158 -1.4409,1.5674 -1.108,0.3517 -2.0146,1.2316 -2.0146,1.9554 0,0.7238 -0.9614,1.5674 -2.1365,1.8747 -1.8066,0.47242 -2.0381,1.05142 -1.4987,3.74822 0.5038,2.5189 0.1849,3.5823 -1.5165,5.0579 -1.1848,1.0277 -2.9854,1.8684 -4.0013,1.8684 -1.5136,0 -1.847,-0.7871 -1.847,-4.3613 0,-4.1128 -0.1424,-4.3341 -2.5,-3.8834 -1.375,0.2628 -2.5,1.0583 -2.5,1.7677 0,0.7975 0.7635,1.0902 2,0.7668 2.9627,-0.7748 2.5757,2.4908 -0.459,3.8735 -1.9692,0.8973 -2.9652,0.7888 -5,-0.5445 -1.3975,-0.9157 -2.5409,-2.3355 -2.5409,-3.1552 0,-1.2994 -0.425,-1.3129 -3.3152,-0.1052 -5.3534,2.2368 -7.7902,-0.9267 -5.2016,-6.75302 0.5788,-1.3028 0.3715,-2.2399 -0.6637,-3 -1.6661,-1.2234 -2.2215,-7.2389 -0.7522,-8.147 0.513,-0.317 0.9327,-1.659 0.9327,-2.9822 0,-2.6316 2.5275,-4.4673 6.1842,-4.4915 1.2737,-0.01 2.9908,-0.4721 3.8158,-1.0304 1.1129,-0.7531 0.7903,-0.8502 -1.25,-0.3762 -1.7302,0.4019 -2.75,0.2277 -2.75,-0.4697 0,-0.6096 -0.6539,-1.1084 -1.453,-1.1084 -3.1827,0 -6.8049,2.5852 -8.6272,6.1573 -2.3113,4.5304 -2.3384,4.8427 -0.4198,4.8427 0.825,0 1.5,0.6892 1.5,1.5314 0,0.8423 -0.675,1.7904 -1.5,2.107 -2.0392,0.7825 -1.8842,2.0523 0.5,4.0937 2.1921,1.8769 2.5926,3.2679 0.9409,3.2679 -0.5824,0 -0.7379,-0.5195 -0.3454,-1.1545 0.4512,-0.73 0.2733,-0.8824 -0.4839,-0.4145 -0.8634,0.5337 -0.279,2.4137 2.0955,6.74092 1.8111,3.3005 3.7429,6.005 4.2929,6.01 0.55,0.01 1.3015,0.497 1.67,1.0933 0.8429,1.3638 3.83,1.8601 3.83,0.6364 0,-0.5014 1.6274,-0.9116 3.6166,-0.9116 3.1243,0 3.5454,0.2723 3.0936,2 -0.4072,1.5572 -0.045,1.9826 1.6334,1.9211 1.186,-0.043 1.5938,-0.3059 0.9063,-0.5833 z m -11.3006,-5.2431 c 1.2292,-2.2968 2.5704,-2.6807 3.5918,-1.0281 0.7979,1.291 0.6049,1.4862 -2.377,2.4038 -2.1273,0.6547 -2.2357,0.5319 -1.2148,-1.3757 z m 7.4477,4.072 c 0.2832,-0.4583 -0.1204,-0.8333 -0.897,-0.8333 -0.7766,0 -1.1803,0.375 -0.897,0.8333 0.2832,0.4583 0.6869,0.8333 0.897,0.8333 0.21,0 0.6137,-0.375 0.897,-0.8333 z m -9.397,-9.2257 c 0,-0.5824 -0.45,-0.7809 -1,-0.441 -0.55,0.34 -1,0.8165 -1,1.0591 0,0.2425 0.45,0.4409 1,0.4409 0.55,0 1,-0.4765 1,-1.059 z m 30.3815,-0.4929 c 0.3415,-0.8899 0.1738,-1.2913 -0.393,-0.941 -0.5437,0.336 -0.9886,1.0344 -0.9886,1.552 0,1.4384 0.7168,1.1214 1.3816,-0.611 z m -22.9714,-2.5473 c -2.2563,-2.49332 -2.4567,-2.39822 -1.0824,0.5139 0.6267,1.328 1.5137,2.1833 1.971,1.9007 0.4574,-0.2827 0.057,-1.3692 -0.8886,-2.4146 z m 6.9515,-1.40082 c 0.3166,-0.825 0.4198,-1.5 0.2294,-1.5 -0.1904,0 -0.9064,0.675 -1.5911,1.5 -0.7175,0.86462 -0.8147,1.50002 -0.2294,1.50002 0.5585,0 1.2745,-0.67502 1.5911,-1.50002 z m -1.8617,-1.5 c 1.7471,-1.9304 1.7467,-2 -0.012,-2 -1.0019,0 -1.5255,0.2961 -1.1636,0.658 0.3619,0.3619 0.1568,1.2619 -0.4558,2 -1.7585,2.11902 -0.3779,1.562 1.6311,-0.658 z m 13.8053,-3.0593 c 0.4354,-1.665 0.1246,-2.0001 -1.6232,-1.75 -1.1889,0.1701 -2.3117,1.0968 -2.4952,2.0593 -0.4913,2.5781 3.4406,2.2828 4.1184,-0.3093 z m -18.3072,-4.4419 c 0.4751,0.2936 1.192,-0.036 1.5932,-0.7324 0.4012,-0.6965 0.3611,-0.9328 -0.089,-0.525 -0.4501,0.4077 -1.5086,0.1827 -2.3523,-0.5 -0.9786,-0.792 -1.2855,-0.8268 -0.8477,-0.096 0.7306,1.2194 -1.9228,2.7074 -3.3048,1.8532 -0.4521,-0.2794 -0.6943,0.2817 -0.5382,1.2468 0.1561,0.9651 -0.1836,2.4297 -0.755,3.2547 -0.5713,0.825 0.4167,0.03 2.1955,-1.7675 1.7789,-1.7972 3.6231,-3.0273 4.0982,-2.7337 z m 1.0111,3.0122 c -1.0921,-1.3159 -3.0091,-1.2477 -3.0091,0.1071 0,0.275 0.4189,0.2411 0.9309,-0.075 0.512,-0.3165 1.2135,-0.118 1.559,0.441 0.3454,0.5589 0.8816,1.0163 1.1915,1.0163 0.3099,0 0.01,-0.6701 -0.6723,-1.489 z m 7.7965,-2.0381 c -0.7851,-1.7232 -1.477,-2.2016 -2.1748,-1.5037 -0.6978,0.6978 -0.4043,1.4916 0.9229,2.4953 2.5724,1.9455 2.5854,1.9351 1.2519,-0.9916 z m 4.1943,-3.0319 c 0,-0.2425 -0.45,-0.441 -1,-0.441 -0.55,0 -1,0.4766 -1,1.0591 0,0.5824 0.45,0.7809 1,0.4409 0.55,-0.3399 1,-0.8164 1,-1.059 z m -10.2475,-3.0849 c -1.0673,-2.3426 -0.9509,-2.8123 1.0215,-4.1219 2.2287,-1.4798 3.1081,-5.2342 1.226,-5.2342 -0.55,0 -1,-1.3465 -1,-2.9924 0,-1.6458 -0.9811,-4.1208 -2.1803,-5.5 -2.9859,-3.4341 -4.4297,-3.1731 -1.9227,0.3477 1.1182,1.5704 2.3314,4.7204 2.6959,7 0.549,3.4336 0.3835,4.1447 -0.965,4.1447 -0.8953,0 -1.6278,0.4645 -1.6278,1.0322 0,1.4721 2.7942,7.9678 3.4275,7.9678 0.2912,0 -0.012,-1.1897 -0.6751,-2.6439 z m 8.0705,-0.2108 c 0.1777,-1.209 0.95,-3.4066 1.7163,-4.8835 0.9621,-1.8546 1.0612,-2.8907 0.3202,-3.3486 -0.7409,-0.4579 -0.7494,-0.8631 -0.028,-1.3092 0.5749,-0.3553 1.5093,0.1509 2.0764,1.125 0.567,0.9741 1.0447,1.2636 1.0614,0.6435 0.069,-2.5515 -2.4434,-3.2202 -4.8303,-1.2857 -1.7877,1.4487 -1.9698,1.9132 -0.75,1.9132 2.3614,0 1.9664,2.6738 -0.4899,3.3161 -1.1567,0.3025 -1.8042,1.0289 -1.441,1.6166 0.3628,0.5871 -0.015,1.0673 -0.8403,1.0673 -0.825,0 -1.7781,-0.45 -2.1181,-1 -0.972,-1.5727 -2.5013,-1.1671 -1.8638,0.4943 0.3154,0.8218 0.8943,1.2959 1.2865,1.0536 0.3921,-0.2424 1.3469,0.4387 2.1216,1.5136 1.7321,2.4031 3.3486,2.0112 3.7788,-0.9162 z m -14.0999,-1.181 c 2.1388,-2.4396 2.1482,-2.5357 0.25,-2.5357 -1.2417,0 -1.973,0.675 -1.973,1.8209 0,1.5668 -0.314,1.6584 -2.25,0.6562 l -2.25,-1.1647 2,2.0005 c 1.1,1.1003 2,1.9461 2,1.8795 0,-0.067 1.0003,-1.262 2.223,-2.6567 z m 22.9953,-0.9885 c -0.1201,-0.459 0.6816,-1.519 1.7816,-2.3554 1.9651,-1.4943 1.9608,-1.511 -0.25,-0.954 -1.2375,0.3118 -2.25,1.0169 -2.25,1.5669 0,0.55 -0.8731,0.7717 -1.9402,0.4926 -1.6504,-0.4316 -1.7731,-0.2398 -0.8218,1.2836 1.073,1.7181 3.9316,1.6904 3.4804,-0.034 z m 5.3016,0.062 c -0.5989,-1.119 -1.6696,-1.7252 -2.4907,-1.4101 -1.1355,0.4357 -1.1852,0.8428 -0.2347,1.9247 1.9496,2.2191 3.9829,1.8351 2.7254,-0.5146 z m -4.02,-4.5021 c 0,-0.2556 -0.9,-0.9465 -2,-1.5352 -1.2052,-0.645 -2,-0.6881 -2,-0.1085 0,0.529 0.7875,1.1677 1.75,1.4192 0.9625,0.2515 1.8625,0.5095 2,0.5733 0.1375,0.064 0.25,-0.093 0.25,-0.3488 z m -10.3958,-15.2643 c -0.3323,-0.3323 -0.5686,0.2583 -0.5252,1.3125 0.048,1.1649 0.2849,1.4019 0.6042,0.6041 0.2888,-0.7218 0.2533,-1.5843 -0.079,-1.9166 z m -1.6042,-2.3299 c 0,-0.5824 -0.45,-0.7809 -1,-0.441 -0.55,0.3399 -1,0.8165 -1,1.059 0,0.2426 0.45,0.441 1,0.441 0.55,0 1,-0.4765 1,-1.059 z m 5.8998,-4.191 c -1.5594,-2.9971 -1.6056,-3.035 -2.3088,-1.8971 -0.3352,0.5422 0.1019,1.6972 0.9713,2.5665 2.215,2.2151 2.7094,1.9676 1.3375,-0.6694 z"
       id="path3780-71"
       inkscape:connector-curvature="0"
       sodipodi:nodetypes="cscssscscsssscsccsssscccsccsscscssssscsssscsssscscsscccscsssscssscsccsccsssccccccccscscsssssscssccccsscsscsscccsscsccscccscccccsccscccsccssscscssscsssssccccccccsccscccccccssscssccsssccccccccscsssssccsscssscccc" />
    <path
       style="fill:#000000"
       d="m -107.12654,921.52686 c -0.9011,-1.8989 -1.6383,-3.9423 -1.6383,-4.5409 0,-0.5986 -1.1499,-3.9606 -2.5552,-7.4711 -2.776,-6.93427 -2.8556,-6.99677 -15.9448,-12.53147 -8.92858,-3.7754 -9.46011,-5.6511 -2.8016,-9.8859 2.6409,-1.6796 9.0766,-4.8459 14.3016,-7.0362 12.2825,-5.1488 40.714998,-18.3854 45.890898,-21.3642 6.4115,-3.6901 6.945,-1.9811 3.2302,10.3469 -2.8593,9.4889 -9.9965,39.18897 -11.5547,48.08257 -0.8314,4.7452 -2.3476,4.813 -11.1972,0.5 -3.6678,-1.7875 -6.8341,-2.8 -7.0364,-2.25 -0.2022,0.55 -1.3845,2.8 -2.6273,5 -3.011198,5.3306 -5.888798,5.7409 -8.067198,1.1503 z m 5.7118,-2.6503 c 1.2774,-2.5605 1.2881,-3 0.073,-3 -1.6144,0 -1.949,-3.557 -0.4234,-4.5 0.55,-0.3399 1,-1.3362 1,-2.214 0,-1.3899 -0.2581,-1.3623 -2,0.214 -1.1,0.9955 -2,2.6028 -2,3.5717 0,0.9689 -0.4157,1.9117 -0.9238,2.095 -0.8834,0.3188 1.3115,6.8333 2.3023,6.8333 0.2613,0 1.1485,-1.35 1.9716,-3 z m 22.966798,-13.6021 c 1.5493,-6.92857 2.6593,-12.75487 2.4668,-12.94747 -0.1925,-0.1925 -1.3815,3.5649 -2.6422,8.3498 -1.2607,4.78487 -2.8716,10.61227 -3.5798,12.94977 -0.9137,3.0159 -0.9644,4.2493 -0.1747,4.2476 0.6122,-10e-4 2.3806,-5.6712 3.9299,-12.5997 z m -1.3267,-9.89787 c 5.7881,-20.4107 5.6557,-19.5703 2.522,-16 -4.9526,5.643 -20.5122,26.56237 -20.5122,27.57817 0,0.5578 2.8125,2.284 6.25,3.836 5.4967,2.4817 6.3245,2.6268 6.8682,1.2038 0.34,-0.8899 2.5324,-8.36797 4.872,-16.61797 z m -29.210898,8.5577 c 0.06,-2.1031 -0.3076,-2.7922 -1.2881,-2.4159 -1.0743,0.4122 -1.133,1.0503 -0.271,2.9423 1.392,3.05517 1.4579,3.03297 1.5591,-0.5264 z m 5.4082,-1.7408 c -0.7219,-0.2888 -1.5844,-0.2533 -1.9167,0.079 -0.3323,0.3323 0.2583,0.5687 1.3125,0.5253 1.1649,-0.048 1.4019,-0.285 0.6042,-0.6042 z m -0.6321,-9.0206 c 3.8195,-3.137 11.444598,-10.1225 16.944598,-15.5232 l 10,-9.8196 -10,4.6175 c -5.5,2.5396 -13.900398,6.3499 -18.667498,8.4672 -13.3329,5.9219 -21.1026,10.0251 -20.3702,10.7575 0.6705,0.6705 13.5619,6.9588 14.5931,7.1184 0.3055,0.047 3.6805,-2.4807 7.5,-5.6178 z m 9.841598,3.8704 c 0.2832,-0.4583 -0.1204,-0.8333 -0.897,-0.8333 -0.7766,0 -1.1803,0.375 -0.897,0.8333 0.2832,0.4583 0.6869,0.8333 0.897,0.8333 0.21,0 0.6137,-0.375 0.897,-0.8333 z m -2.8821,-4.1667 c 0.6991,0 1.5301,-0.675 1.8467,-1.5 0.3166,-0.825 1.2382,-1.5 2.048,-1.5 1.9708,0 2.9151,-1.6812 1.4522,-2.5854 -0.7313,-0.4519 -0.903,-0.2901 -0.4573,0.4309 0.4152,0.672 0.1014,1.1545 -0.7509,1.1545 -1.9459,0 -9.751898,6.5685 -8.862698,7.4577 0.3825,0.3825 1.3159,-0.239 2.074198,-1.3811 0.7584,-1.1421 1.9508,-2.0766 2.6498,-2.0766 z m 11.8952,-7.9007 c 1.2927,-1.4283 1.417,-2.088 0.5005,-2.6545 -0.7789,-0.4814 -0.9618,-0.3366 -0.5061,0.4007 0.3924,0.635 0.2369,1.1545 -0.3455,1.1545 -0.5825,0 -1.059,-0.5197 -1.059,-1.1549 0,-0.655 -0.8658,-0.3715 -2,0.6549 -1.1,0.9955 -2,2.1903 -2,2.655 0,1.5743 3.6799,0.8562 5.4101,-1.0557 z m 7.7938,-10.5993 c 0.6078,-1.1 -0.8894,-0.2 -3.3269,2 -2.6615,2.4021 -4.0215,4.2979 -3.4045,4.7457 1.0116,0.734 4.5677,-2.8296 6.7314,-6.7457 z m 9.2087,-9.0077 c 0.3183,-1.2686 0.89,-3.1358 1.2703,-4.1494 0.6092,-1.6233 0.4905,-1.6794 -0.9957,-0.4704 -0.928,0.7548 -1.6872,1.8508 -1.6872,2.4355 0,0.5847 -0.9242,2.0469 -2.0537,3.2492 l -2.0537,2.186 2.4705,-0.4722 c 1.5246,-0.2915 2.6922,-1.3555 3.0495,-2.7787 z"
       id="path3780-15"
       inkscape:connector-curvature="0"
       sodipodi:nodetypes="sscssssssscsscscscsssccscsscsscsscscscccccccsscssscscscscsssccsccscccsssscccsccccsccsc" />
    <path
       style="fill:#000000"
       d="m 408.96901,895.58418 c -2.0437,-5.326 0.3314,-16.4182 3.5156,-16.4182 3.769,0 4.6026,7.565 1.6805,15.25 -1.1481,3.0192 -4.2207,3.71 -5.1961,1.1682 z m 3.1964,-6.2724 c -1.4536,-0.5545 -1.9145,0.401 -1.152,2.388 0.6636,1.7293 0.7328,1.724 1.3894,-0.1069 0.38,-1.0598 0.2732,-2.0863 -0.2374,-2.2811 z m 1.1966,-6.2048 c 0,-0.5825 -0.45,-0.7809 -1,-0.441 -0.55,0.3399 -1,0.8165 -1,1.059 0,0.2426 0.45,0.441 1,0.441 0.55,0 1,-0.4766 1,-1.059 z m -22.7163,7.3559 c -0.3934,-1.0251 0.547,-3.9112 2.3624,-7.25 2.5954,-4.7736 3.4228,-5.5469 5.9349,-5.5469 3.8365,0 4.3382,3.0922 1.3613,8.389 -3.0272,5.3861 -8.3509,7.8157 -9.6586,4.4079 z m 8.7163,-8.8127 c 0,-0.8163 -0.2087,-1.4842 -0.4639,-1.4842 -0.7528,0 -5.5387,7.3718 -5.5067,8.4821 0.046,1.6041 5.9706,-5.3397 5.9706,-6.9979 z m 26.7246,2.764 c -1.9254,-2.1276 -3.7246,-6.6585 -3.7246,-9.3797 0,-1.5885 0.5607,-1.9361 2.7177,-1.6849 3.304,0.3847 7.2823,5.8282 7.2823,9.9643 0,2.3253 -0.4331,2.8521 -2.345,2.8521 -1.2897,0 -3.0584,-0.7883 -3.9304,-1.7518 z m 3.2754,-2.2482 c 0,-0.55 -0.4765,-1 -1.059,-1 -0.5824,0 -0.7809,0.45 -0.441,1 0.34,0.55 0.8165,1 1.0591,1 0.2425,0 0.4409,-0.45 0.4409,-1 z m 0,-2.345 c 0,-0.1898 -0.9,-1.1595 -2,-2.155 -1.8514,-1.6755 -2,-1.6826 -2,-0.096 0,0.9427 0.4189,1.4551 0.9309,1.1387 0.512,-0.3165 1.2136,-0.118 1.5591,0.441 0.6056,0.9799 1.51,1.382 1.51,0.6713 z m -26.5495,-4.0616 c -10.404,-4.53173 -12.5622,-21.53273 -3.8122,-30.03063 3.0273,-2.94 3.2939,-3.611 2.385,-6.0015 -0.5628,-1.4803 -1.0233,-5.1069 -1.0233,-8.059 0,-4.575 0.3102,-5.466 2.1007,-6.0342 3.2425,-1.0292 4.1779,0.8158 4.2932,8.4681 0.1033,6.8583 0.175,7.0488 2.6553,7.0562 2.2828,0.01 2.5125,-0.3321 2.1974,-3.2424 -0.494,-4.564 3.504,-12.144 6.6391,-12.5873 2.2908,-0.3239 2.3666,-0.1402 1.909,4.6222 -0.2798,2.9128 -1.4126,6.2742 -2.7447,8.1449 -1.2475,1.752 -2.1065,3.2719 -1.909,3.3778 0.1975,0.1058 1.8215,0.959 3.609,1.8959 l 3.25,1.7035 0,-2.7573 c 0,-5.9728 10.7969,-12.2307 11.8223,-6.8522 0.4267,2.2382 -4.2211,8.4715 -7.3952,9.9177 -2.2787,1.0382 -2.3067,1.18 -0.7518,3.8122 l 1.615,2.7339 3.2851,-1.9383 c 4.2393,-2.5012 12.7317,-2.2444 13.2338,0.4002 0.7404,3.8999 -11.463,7.723 -14.6092,4.5768 -0.9333,-0.9333 -1.1993,-0.2111 -1.1968,3.25 l 0,4.45 3.786,0.041 c 5.7673,0.063 10.3734,2.2955 10.0086,4.851 -0.2381,1.6674 -1.1223,2.1747 -4.2335,2.4289 -4.5397,0.3708 -7.9208,-1.1351 -9.398,-4.1858 -0.8037,-1.6597 -1.0491,-1.7627 -1.1017,-0.4622 -0.109,2.6933 -5.1537,7.96083 -9.5264,9.94713 -4.7374,2.1519 -10.8002,2.342 -15.0909,0.473 z m 8.7995,-1.2557 c -0.6875,-0.2774 -1.8125,-0.2774 -2.5,0 -0.6875,0.2774 -0.125,0.5044 1.25,0.5044 1.375,0 1.9375,-0.227 1.25,-0.5044 z m 4.0322,-3.70883 c 5.3561,-2.2822 8.2178,-6.1602 8.2178,-11.1361 0,-5.4822 -2.6032,-9.1703 -8.8179,-12.4928 -4.3472,-2.324 -4.8666,-2.3937 -7.3791,-0.9898 -4.2843,2.394 -6.3187,6.8963 -6.5751,14.5514 -0.2248,6.7106 -0.1827,6.8318 3.17,9.1197 3.891,2.6552 6.8071,2.89793 11.3843,0.9476 z m -15.8268,-19.8789 c 0.4173,-0.9625 0.4625,-1.75 0.1006,-1.75 -0.3619,0 -1.31,1.5606 -2.107,3.4679 -1.5664,3.749 -1.8604,9.5385 -0.6872,13.5321 0.5256,1.789 0.9052,0.2249 1.3347,-5.5 0.3302,-4.4 0.9417,-8.7875 1.3589,-9.75 z m 38.1035,15.7182 c -1.0676,-0.8075 -2.8676,-1.4539 -4,-1.4364 -2.0253,0.031 -2.0272,0.056 -0.1177,1.5 1.0676,0.8075 2.8676,1.4539 4,1.4364 2.0253,-0.031 2.0272,-0.056 0.1177,-1.5 z m 0.8594,-14.0752 c 0.8699,-0.3338 1.5817,-1.0446 1.5817,-1.5794 0,-1.1204 -5.9918,-0.081 -7.45,1.2918 -1.0845,1.0213 3.3852,1.2404 5.8683,0.2876 z m -9.9661,-12.5186 c 3.5533,-4.2227 2.2615,-5.1015 -1.479,-1.0062 -3.1741,3.4753 -3.5018,4.1318 -2.062,4.1318 0.5011,0 2.0946,-1.4065 3.541,-3.1256 z m -24.3139,-6.678 c -0.1663,-2.033 -0.7154,-4.1239 -1.2203,-4.6464 -1.0862,-1.1241 -1.1569,0.3708 -0.2711,5.7308 0.7802,4.7212 1.8997,3.9072 1.4914,-1.0844 z m 13.2526,-2.6964 0.6893,-3 -2.0335,3 c -1.1184,1.65 -2.0364,3.8876 -2.0401,4.9725 -0.01,1.9634 -3e-4,1.9634 1.3442,0 0.743,-1.0849 1.661,-3.3225 2.0401,-4.9725 z m -38.1409,44.83773 c -2.0389,-0.8227 -1.4339,-3.04793 1.4445,-5.31203 3.4302,-2.6982 11.5902,-2.5652 12.1147,0.1975 0.6585,3.46863 -8.7982,7.03563 -13.5592,5.11453 z m 8.2912,-3.40423 c 1.0602,-1.7155 0.165,-1.8398 -3.0412,-0.4223 l -3,1.32643 2.691,0.081 c 1.4801,0.045 2.9876,-0.39883 3.3502,-0.98533 z m -7.0412,-10.2884 c -4.9252,-1.4791 -6.1388,-5.017 -2.0712,-6.0379 6.3824,-1.6019 12.5712,1.2668 12.5712,5.8271 0,1.9013 -4.5656,1.9929 -10.5,0.2108 z m 6.0589,-2.1769 c -1.0676,-0.8075 -3.0926,-1.421 -4.5,-1.3633 -2.1235,0.087 -1.8783,0.3291 1.4411,1.4231 5.1622,1.7013 5.3816,1.697 3.0589,-0.06 z m 0.7791,-7.4089 c -1.6078,-0.9777 -4.1415,-3.2256 -5.6306,-4.9952 -6.4744,-7.6945 -0.4284,-10.0483 6.9242,-2.6957 6.346,6.346 5.4319,11.7809 -1.2936,7.6909 z m -0.5495,-5.4887 c -1.7947,-1.8861 -3.461,-3.2314 -3.7029,-2.9895 -0.5666,0.5666 5.0197,6.4189 6.1273,6.4189 0.4612,0 -0.6298,-1.5432 -2.4244,-3.4294 z m 3.1669,-6.0135 c -4.7551,-6.2981 -5.1369,-10.229 -0.9521,-9.8028 3.2606,0.3321 6.657,4.2704 8.0073,9.2847 2.1046,7.8159 -1.3536,8.0699 -7.0552,0.5181 z m 4.0446,-1.5013 c 0,-1.3689 -4.9307,-6.7684 -4.9684,-5.4407 -0.031,1.1072 3.7222,6.3849 4.541,6.3849 0.2351,0 0.4274,-0.4249 0.4274,-0.9442 z"
       id="path3780-27"
       inkscape:connector-curvature="0"
       sodipodi:nodetypes="csccsscssssssccsscsscscsssscsscsscsscccccsssssccscscscsscscsscccccsccsccsssssscsssscsccccssssscscccsscscssscsccsccsccsccccssssssssscssccscsscsscss" />
    <path
       style="fill:#000000"
       d="m 43.431687,818.74476 c -0.54,-1.009 -2.5875,-2.9215 -4.55,-4.25 -7.2377,-4.8995 -9.9342,-16.3162 -4.958,-20.9912 3.5046,-3.2923 10.7814,-3.4304 13.354,-0.2534 1.7477,2.1583 1.7747,2.1598 4.6617,0.2566 3.6753,-2.4229 9.2389,-2.4155 12.1537,0.016 4.771,3.9801 1.7544,11.4689 -8.2357,20.4454 -7.547,6.78133 -10.7034,7.99473 -12.4257,4.7765 z m 9.2313,-5.8679 c 4.142,-3.8743 5.0408,-5.3272 5.1037,-8.25 0.07,-3.2327 0.3205,-3.5309 2.8264,-3.3593 2.2929,0.157 2.75,-0.2132 2.75,-2.2269 0,-3.3359 -3.9147,-5.8245 -7.1983,-4.5761 -1.3576,0.5162 -2.4683,1.6682 -2.4683,2.56 0,1.1158 0.3222,1.2992 1.0333,0.5881 1.4744,-1.4744 3.6333,-1.2772 3.6333,0.3318 0,0.7508 -0.9,2.5093 -2,3.9077 -1.1,1.3984 -2,3.4683 -2,4.5997 0,1.1314 -0.7875,2.4784 -1.75,2.9934 -1.4961,0.8005 -1.7465,0.4792 -1.7264,-2.2148 0.013,-1.7332 0.3511,-3.6717 0.7514,-4.3079 0.4929,-0.7833 0.077,-0.9865 -1.2892,-0.6293 -2.6064,0.6816 -3.4983,2.1521 -1.7193,2.8348 1.9396,0.7443 1.4643,4.4437 -0.782,6.0863 -1.0267,0.7507 -1.4207,1.3649 -0.8756,1.3649 0.5451,0 1.5311,-0.54 2.1911,-1.2 1.6181,-1.618 1.4709,0.2594 -0.192,2.45 -1.827,2.4068 -3.0848,2.1937 -4.426,-0.75 -0.6265,-1.375 -1.953,-2.5 -2.9477,-2.5 -2.2361,0 -2.6672,-3.3958 -0.6442,-5.0747 1.2081,-1.0027 1.3397,-0.8864 0.7735,0.6833 -0.3752,1.0403 -0.3095,1.553 0.146,1.1393 0.4555,-0.4137 1.6522,-0.01 2.6593,0.9049 1.7072,1.545 1.8311,1.5412 1.8311,-0.057 0,-0.9427 -0.4189,-1.4551 -0.9309,-1.1386 -2.1927,1.3552 -2.1591,-1.8837 0.037,-3.5723 1.3166,-1.0123 2.1689,-1.885 1.8939,-1.9393 -3.353,-0.6622 -3.9334,-0.6468 -3.4768,0.092 0.293,0.4741 -0.3525,1.3358 -1.4345,1.9149 -1.3055,0.6987 -2.1758,0.7156 -2.5871,0.05 -0.3408,-0.5515 -1.1291,-1.0027 -1.7518,-1.0027 -0.6226,0 -0.3029,0.6063 0.7105,1.3474 1.2768,0.9336 1.489,1.5659 0.6912,2.059 -3.1879,1.9702 -4.2258,-3.4282 -1.6259,-8.456 1.7009,-3.289 4.8387,-3.9141 6.0261,-1.2004 0.4212,0.9625 0.6832,2.121 0.5822,2.5743 -0.1009,0.4534 0.3076,0.5209 0.9078,0.1499 0.6002,-0.371 1.7221,0.1581 2.493,1.1757 0.8632,1.1393 1.4139,1.3569 1.4335,0.5664 0.053,-2.1248 -5.8683,-7.2163 -8.3919,-7.2163 -3.9372,0 -6.9942,3.2427 -6.8792,7.2972 0.1315,4.6415 2.5243,8.5401 7.3759,12.0177 2.1598,1.5481 3.927,3.2356 3.927,3.75 0,2.0214 2.5151,0.727 7.3198,-3.7673 z m 9.1801,-9.2976 c -0.3399,-0.55 -1.1539,-0.9931 -1.809,-0.9847 -0.7156,0.01 -0.5923,0.4023 0.309,0.9847 1.9212,1.2416 2.2673,1.2416 1.5,0 z m -20.5,-1.3775 c 0,-0.2077 -0.7875,-0.9952 -1.75,-1.75 -1.586,-1.2439 -1.6214,-1.2085 -0.3775,0.3775 1.3063,1.6658 2.1275,2.1955 2.1275,1.3725 z"
       id="path3780-27-6"
       inkscape:connector-curvature="0"
       sodipodi:nodetypes="ssssssssccsssscssscccccsscsssscscsccccscscccccsccsccsccccccsccs" />
  </g>
</svg>
