<?xml version="1.0" encoding="UTF-8" standalone="no"?>
<!-- Created with Inkscape (http://www.inkscape.org/) -->

<svg
   xmlns:dc="http://purl.org/dc/elements/1.1/"
   xmlns:cc="http://creativecommons.org/ns#"
   xmlns:rdf="http://www.w3.org/1999/02/22-rdf-syntax-ns#"
   xmlns:svg="http://www.w3.org/2000/svg"
   xmlns="http://www.w3.org/2000/svg"
   xmlns:sodipodi="http://sodipodi.sourceforge.net/DTD/sodipodi-0.dtd"
   xmlns:inkscape="http://www.inkscape.org/namespaces/inkscape"
   width="92.125984"
   height="131.10236"
   id="svg2"
   version="1.1"
   inkscape:version="0.48.5 r10040"
   sodipodi:docname="ship.svg">
  <defs
     id="defs4" />
  <sodipodi:namedview
     id="base"
     pagecolor="#ffffff"
     bordercolor="#666666"
     borderopacity="1.0"
     inkscape:pageopacity="0.0"
     inkscape:pageshadow="2"
     inkscape:zoom="3.959798"
     inkscape:cx="95.541002"
     inkscape:cy="95.624087"
     inkscape:document-units="px"
     inkscape:current-layer="layer1"
     showgrid="false"
     inkscape:window-width="1536"
     inkscape:window-height="801"
     inkscape:window-x="-8"
     inkscape:window-y="-8"
     inkscape:window-maximized="1"
     showguides="true"
     inkscape:guide-bbox="true" />
  <metadata
     id="metadata7">
    <rdf:RDF>
      <cc:Work
         rdf:about="">
        <dc:format>image/svg+xml</dc:format>
        <dc:type
           rdf:resource="http://purl.org/dc/dcmitype/StillImage" />
        <dc:title />
      </cc:Work>
    </rdf:RDF>
  </metadata>
  <g
     inkscape:label="Layer 1"
     inkscape:groupmode="layer"
     id="layer1"
     transform="translate(0,-921.25977)">
    <path
       style="fill:#b3b3b3"
       d="m 28.16842,1005.5774 c -4.29276,-1.024 -8.33522,-4.0723 -14.35905,-10.82788 -5.67001,-6.35876 -10.5502,-15.358 -9.62954,-17.7572 0.69382,-1.80808 9.69037,-6.00895 15.00323,-7.00565 3.00961,-0.5646 5.01974,-2.29969 11.66558,-10.0694 4.41617,-5.16299 8.47851,-9.38726 9.02743,-9.38726 1.34094,0 5.27979,2.53253 11.9899,7.70903 5.55604,4.28618 5.57177,4.29097 14.11043,4.29097 11.59866,0 17.87179,0.95229 18.58924,2.82193 1.42834,3.72218 -1.88203,15.68333 -7.03216,25.40891 l -5.20906,9.83685 -6.13852,1.896 c -11.4419,3.534 -29.86491,5.0283 -38.01748,3.0837 z m 18.24621,-5.79737 c -0.28813,-0.9625 -1.27231,-4.78412 -2.18706,-8.49245 l -1.66318,-6.74244 -3.4714,5.74244 c -1.90925,3.15833 -4.11696,6.97995 -4.90599,8.49245 l -1.43462,2.74997 7.09306,0 c 6.28822,0 7.03363,-0.1986 6.56919,-1.74997 z m 13.96329,-0.373 c 2.4529,-0.6177 4.66529,-1.4555 4.91642,-1.8618 0.25113,-0.4064 -3.42158,-4.26916 -8.16158,-8.58404 l -8.6182,-7.84522 0.71339,4.75717 c 1.21713,8.11646 3.52494,14.65686 5.17171,14.65686 0.83514,0 3.52536,-0.5054 5.97826,-1.12297 z m -28.46071,-8.12702 c 2.27468,-4.5375 4.99011,-9.45907 6.03427,-10.93682 l 1.89846,-2.68682 -3.26649,0.93682 c -1.79658,0.51525 -6.64448,0.97018 -10.77311,1.01094 -4.12863,0.0408 -9.46223,0.37827 -11.85244,0.75 l -4.34585,0.67588 3.34585,4.96118 c 2.77615,4.11645 12.77848,13.53884 14.37214,13.53884 0.24826,0 2.31249,-3.71252 4.58717,-8.25002 z m 40.88653,3.65894 c 0,-0.19039 -0.675,-0.0872 -1.5,0.22943 -0.825,0.31659 -1.5,1.03256 -1.5,1.59105 0,0.5853 0.63541,0.4881 1.5,-0.2294 0.825,-0.68471 1.5,-1.40069 1.5,-1.59108 z m -6,-1.78649 c 0,-0.20766 -0.7875,-0.99516 -1.75,-1.75 -1.58606,-1.24388 -1.62143,-1.20851 -0.37756,0.37755 1.30637,1.66575 2.12756,2.19548 2.12756,1.37245 z m 9.05323,-10.12245 c 3.50179,-7.4344 4.76623,-13.50657 2.80805,-13.48502 -0.7487,0.008 -7.30688,1.48795 -14.57373,3.28824 l -13.21244,3.27326 9.71244,8.08606 c 11.05843,9.20665 10.35634,9.26011 15.26568,-1.16254 z m -29.44906,2.77083 c -0.33229,-0.33229 -0.56864,0.25834 -0.52522,1.3125 0.048,1.16495 0.28494,1.4019 0.60416,0.60417 0.28888,-0.72187 0.25335,-1.58437 -0.0789,-1.91667 z m -7.60417,-0.27083 c 0.58869,-1.1 0.84536,-2 0.57036,-2 -0.275,0 -0.98166,0.9 -1.57036,2 -0.5887,1.1 -0.84537,2 -0.57037,2 0.275,0 0.98167,-0.9 1.57037,-2 z m 21,1.62245 c 0,-0.20766 -0.7875,-0.99516 -1.75,-1.75 -1.58606,-1.24388 -1.62143,-1.20851 -0.37756,0.37755 1.30637,1.66575 2.12756,2.19548 2.12756,1.37245 z m -14.07029,-6.87245 c -0.0572,-2.64657 -0.21721,-2.87866 -0.86161,-1.25 -0.43523,1.1 -0.58046,2.5625 -0.32273,3.25 0.80419,2.14515 1.25744,1.37975 1.18434,-2 z m -1.67212,-3.31718 c 0.61591,-3.22188 0.1228,-3.06908 -1.7437,0.54032 -1.26732,2.45073 -1.29006,2.8782 -0.12941,2.43282 0.77443,-0.29718 1.61733,-1.63509 1.87311,-2.97314 z m -25.25759,-0.19569 c 0,-0.41958 1.0125,-1.20708 2.25,-1.75 2.31656,-1.01633 2.6214,-2.69666 0.6108,-3.36686 -0.62798,-0.20933 -0.82904,0.1221 -0.44806,0.73854 0.42808,0.69265 0.14429,0.90844 -0.74562,0.56695 -0.79021,-0.30323 -4.07608,0.58344 -7.30193,1.97039 l -5.86519,2.52172 5.75,0.0411 c 3.1625,0.0226 5.75,-0.30223 5.75,-0.72181 z m 16.03724,-2.24419 c 2.92062,-0.55389 5.48662,-1.18346 5.70221,-1.39906 0.2156,-0.2156 -0.0425,-2.12492 -0.57344,-4.24294 -0.53101,-2.11802 -1.25418,-5.1284 -1.60707,-6.68974 -0.63629,-2.81523 -0.69111,-2.77809 -6.60028,4.472 -3.27726,4.02094 -5.95866,7.6609 -5.95866,8.0888 0,1.04681 2.66591,0.97924 9.03724,-0.22906 z m 22.58653,-5.28338 c 0.22929,-0.22928 -1.27976,-1.59011 -3.35344,-3.02407 -2.07368,-1.43395 -4.9,-3.48378 -6.2807,-4.55518 l -2.51037,-1.94801 0.94502,6.26963 0.94502,6.26963 4.91879,-1.29756 c 2.70534,-0.71365 5.10639,-1.48515 5.33568,-1.71444 z M 42.83814,961.7951 c -0.64409,-2.87921 -0.91791,-5.64455 -0.60848,-6.14522 0.30942,-0.50066 -0.025,-1.13579 -0.74325,-1.4114 -1.48514,-0.5699 -1.35345,2.08559 0.58473,11.79153 0.82129,4.11278 1.31452,5.21366 1.56811,3.5 0.20349,-1.375 -0.15702,-4.85571 -0.80111,-7.73491 z m 21.83892,5.73491 c 0.39968,0 1.15418,0.36567 1.67668,0.8126 0.5225,0.44693 4.325,0.04 8.45,-0.90426 7.36563,-1.6861 7.41595,-1.71858 2.80902,-1.8126 -2.58004,-0.0527 -4.9691,0.35426 -5.30902,0.90426 -0.91009,1.47256 -3.5,1.21684 -3.5,-0.34557 0,-1.76156 -4.84632,-1.52111 -5.96947,0.29617 -0.46502,0.75242 -0.56292,2.08384 -0.21755,2.95872 0.54976,1.39265 0.67186,1.37282 0.9808,-0.15932 0.19408,-0.9625 0.67987,-1.75 1.07954,-1.75 z"
       id="path3780-7"
       inkscape:connector-curvature="0"
       sodipodi:nodetypes="sssssssssscsssscsscssssscssssscssscssssssssssssscscsscccccssssssssscsscsssssssssscsssccssssssscccsssccscsssssssssss" />
    <path
       style="fill:#000000"
       d="m 1262.167,125.25604 c 0.3468,-3.63665 0.2493,-3.77459 -2.395,-3.3865 -2.9739,0.43649 -3.6437,-1.29616 -1.8189,-4.70582 0.8079,-1.50958 0.5477,-1.69467 -1.8815,-1.33814 -1.5506,0.22757 -3.1159,-0.0663 -3.4785,-0.65298 -1.7953,-2.90489 7.2733,-12.63565 16.1827,-17.364353 2.3431,-1.24363 4.5194,-3.16114 4.8362,-4.26114 0.6278,-2.18032 2.2204,-3.69677 13.2191,-12.5869 l 7.3155,-5.9131 -4.8155,0.0439 c -2.6486,0.0241 -6.6156,0.69237 -8.8156,1.48494 -5.6989,2.0531 -7.5,1.88195 -7.5,-0.71267 0,-2.93891 8.2522,-10.76253 14.5205,-13.76642 4.1223,-1.97547 7.1507,-2.48869 17.5918,-2.98126 7.659,-0.36133 13.1937,-1.07751 14.0926,-1.82355 4.837,-4.01434 25.9093,-10.5424 38.0451,-11.78615 l 6.75,-0.69178 0,2.61837 c 0,4.13268 -5.5708,19.13058 -8.907,23.97956 -1.6682,2.42459 -5.3879,6.98498 -8.2662,10.1342 -4.9013,5.36282 -5.2782,6.14867 -5.9456,12.39473 -1.3728,12.847593 -8.5207,27.702143 -14.9983,31.168833 -3.0386,1.62622 -4.5967,-0.20052 -3.0557,-3.58262 1.34,-2.94096 1.5502,-12.33695 0.3194,-14.27717 -0.6018,-0.94873 -3.7295,1.13275 -11.6451,7.75 -5.9523,4.97591 -11.2451,9.0471 -11.7619,9.0471 -1.0523,0 -5.2091,-4.11173 -11.4518,-11.32765 l -4.1766,-4.82766 -6.8056,7.32416 c -14.8176,15.94671 -15.7781,16.58306 -15.1541,10.04007 z m 4.4233,-11.40568 c -1.8881,-2.69565 -2.0585,-6.4414 -0.3248,-7.14097 0.6875,-0.27741 0.125,-0.57544 -1.25,-0.66228 -1.375,-0.0868 -1.9375,-0.38487 -1.25,-0.66228 0.6875,-0.27741 1.25,-0.97199 1.25,-1.5435 0,-0.63077 -0.5851,-0.5535 -1.4889,0.19664 -0.819,0.67967 -1.2675,1.59416 -0.9968,2.03221 0.8057,1.30372 -0.6201,3.97693 -2.1212,3.97693 -0.7662,0 -1.3931,0.40787 -1.3931,0.90638 0,0.49851 0.7875,0.71766 1.75,0.487 0.9625,-0.23066 2.425,0.0227 3.25,0.56311 1.2361,0.80961 1.2801,1.33739 0.25,2.99943 -1.6109,2.59932 -1.5744,3.04408 0.25,3.04408 0.825,0 1.5356,0.7875 1.579,1.75 0.05,1.11228 0.4418,0.75725 1.0747,-0.97424 0.7633,-2.08804 0.6281,-3.24929 -0.5789,-4.97251 z m -1.4315,3.28971 c -1.006,-0.62501 -1.0534,-1.03044 -0.1835,-1.56809 1.3722,-0.84807 2.4024,-0.0973 1.8944,1.38059 -0.208,0.60526 -0.914,0.68262 -1.7109,0.1875 z m 29.7165,-3.24399 c -3.1883,-3.43482 -5.9918,-6.04349 -6.2301,-5.79705 -0.6002,0.621 10.6764,12.87695 11.4233,12.41533 0.3321,-0.20524 -2.0048,-3.18347 -5.1932,-6.61828 z m 32.7398,4.54988 c -0.3009,-0.78413 0.073,-1.39885 0.8503,-1.39885 0.7629,0 2.3237,-1.51561 3.4686,-3.36803 2.4747,-4.00418 2.5176,-4.29864 0.6255,-4.29864 -0.8008,0 -1.2805,0.28399 -1.0659,0.63108 0.2145,0.3471 -0.023,1.2846 -0.5287,2.08334 -0.6823,1.07854 -0.9408,0.68026 -1.0043,-1.54775 -0.072,-2.53754 -0.2097,-2.6917 -0.8902,-1 -0.4425,1.1 -0.5495,2.45 -0.2378,3 0.3118,0.55 -0.222,0.35963 -1.1861,-0.42305 -1.633,-1.32573 -1.7318,-1.0757 -1.4444,3.65605 0.1696,2.79351 0.6778,4.85086 1.1291,4.5719 0.4514,-0.27896 0.5791,-1.13668 0.2839,-1.90605 z m -11.8207,-10.39068 c 5.5618,-4.85255 7.555,-6.07429 8.45,-5.17936 1.4357,1.43571 4.1318,1.56376 3.2611,0.15488 -0.3455,-0.55897 -1.1166,-0.71445 -1.7136,-0.34549 -0.6935,0.42864 -0.7933,0.19823 -0.2764,-0.6382 0.5354,-0.86617 0.4185,-1.06763 -0.3454,-0.59549 -0.635,0.39244 -1.1546,0.19035 -1.1546,-0.44909 0,-0.63943 -1.6875,0.24966 -3.75,1.97577 -2.0625,1.7261 -4.4158,3.68522 -5.2297,4.35359 -0.8139,0.66837 -1.8264,1.10272 -2.25,0.96522 -0.4236,-0.1375 -0.6578,0.25625 -0.5203,0.875 0.1375,0.61875 -0.3751,1.35213 -1.1392,1.62973 -0.8069,0.29319 -1.1144,0.0602 -0.7336,-0.5559 0.3605,-0.58335 0.1908,-1.34782 -0.3772,-1.69883 -0.5679,-0.35101 -0.7737,-1.0571 -0.4572,-1.5691 0.3164,-0.51199 0.099,-0.9309 -0.4837,-0.9309 -0.5825,0 -1.0591,-0.42416 -1.0591,-0.94258 0,-0.51842 0.9121,-0.76694 2.0268,-0.55227 1.1146,0.21467 1.7631,-0.0362 1.4409,-0.55742 -0.9842,-1.5926 -3.0088,-1.0651 -5.3089,1.38324 l -2.1898,2.33097 2.1205,1.91903 c 1.1663,1.05547 2.2983,1.80653 2.5155,1.66903 1.2275,-0.77686 1.4672,-0.0419 0.4042,1.23899 -0.6797,0.81895 -1.604,1.26142 -2.054,0.98327 -0.8701,-0.53774 -3.9552,3.31343 -3.9552,4.93734 0,0.53052 1.2375,-0.16389 2.75,-1.54315 1.5125,-1.37925 6.0255,-5.36548 10.0289,-8.85828 z m -8.7789,0.82516 c 0,-0.45833 0.4235,-0.83333 0.941,-0.83333 0.5176,0 1.1728,0.375 1.456,0.83333 0.2833,0.45834 -0.1401,0.83334 -0.941,0.83334 -0.8007,0 -1.456,-0.375 -1.456,-0.83334 z m -33.8537,4.84288 c -0.8023,-0.9667 -0.7814,-1.64108 0.078,-2.5 0.7262,-0.72624 0.7785,-1.17621 0.1367,-1.17621 -0.5718,0 -1.5521,1.125 -2.1786,2.5 -1.0183,2.23484 -0.9162,2.5 0.9619,2.5 1.6299,0 1.8547,-0.29684 1.0024,-1.32379 z m 29.3,-0.21176 c 1.5104,-1.14228 1.6783,-1.73986 0.75,-2.6682 -0.6579,-0.65793 -1.2008,-2.11875 -1.2064,-3.24625 -0.01,-1.44943 -1.2134,-2.55557 -4.1171,-3.77573 -3.729,-1.56695 -4.066,-2.00398 -3.663,-4.750003 0.3613,-2.46206 0.09,-3.02427 -1.4599,-3.02427 -1.047,0 -3.1706,-1.26691 -4.7191,-2.81535 -2.3992,-2.39923 -3.0715,-2.62804 -4.5485,-1.54805 -0.9532,0.69702 -1.4976,1.85143 -1.2097,2.56536 0.8012,1.98684 16.646,20.802413 17.4875,20.766243 0.407,-0.0175 1.6158,-0.69418 2.6862,-1.50375 z m -23.4463,-4.02347 c 0,-0.24254 -0.45,-0.44098 -1,-0.44098 -0.55,0 -1,0.47656 -1,1.05902 0,0.58246 0.45,0.7809 1,0.44098 0.55,-0.33992 1,-0.81647 1,-1.05902 z m 0.9367,-5.93153 c -0.057,-1.81604 -0.1528,-1.78671 -0.9916,0.3048 -0.5105,1.27283 -1.307,2.08013 -1.7699,1.79398 -0.463,-0.28614 -0.8418,0.0919 -0.8418,0.84015 0,1.06885 0.3929,1.11503 1.8333,0.21546 1.0083,-0.62971 1.8048,-2.04919 1.77,-3.15439 z m -5.9367,1.21944 c 1.1948,-0.45481 1.144,-0.58706 -0.25,-0.64994 -1.9993,-0.0902 -2.3856,-2.68526 -0.5,-3.35871 0.6875,-0.24554 0.9119,-0.808723 0.4985,-1.251513 -0.9966,-1.06764 -5.7485,1.520303 -5.7485,3.130703 0,0.69381 1.0125,1.45649 2.25,1.69484 2.1378,0.41175 2.1253,0.44367 -0.25,0.63983 -2.2901,0.18914 -2.3321,0.27306 -0.5,0.99969 1.1,0.43628 2.225,0.47212 2.5,0.0797 0.275,-0.39246 1.175,-0.97051 2,-1.28456 z m 55,0.66412 c 0,-0.21615 -0.675,-0.39301 -1.5,-0.39301 -0.825,0 -1.5,0.43588 -1.5,0.96862 0,0.53274 0.675,0.70959 1.5,0.39301 0.825,-0.31658 1.5,-0.75246 1.5,-0.96862 z m 7.9963,-4.2425 c 0.5694,-2.007783 1.3078,-6.350513 1.6408,-9.650513 l 0.6055,-6 -7.1169,6.96889 -7.117,6.96889 2.2457,2.133903 c 1.2351,1.17364 2.4706,1.86264 2.7456,1.53111 1.2053,-1.45306 3,-0.93509 3,0.86583 0,3.25228 2.8433,1.24722 3.9963,-2.81811 z m -7.9963,-0.31492 c 0,-0.57726 0.6521,-0.79934 1.4491,-0.49351 0.9215,0.3536 1.2646,0.0754 0.9425,-0.764073 -0.5816,-1.5157 2.3546,-4.85294 3.5952,-4.08621 0.9691,0.59897 0.166,4.29573 -1.1037,5.080483 -1.7959,1.10992 -4.8831,1.27639 -4.8831,0.26331 z m -4.4919,-5.420063 c 9.1984,-8.3077 9.4423,-8.63818 7.5646,-10.25 -3.6373,-3.1222 -13.0727,-16.6493 -13.0727,-18.74167 0,-1.20117 1.0598,-2.65305 2.4985,-3.42305 1.3742,-0.73544 2.2876,-1.54807 2.0298,-1.80585 -0.7703,-0.77032 -13.4668,7.80219 -21.8994,14.7861 -6.8651,5.68578 -7.573,6.56331 -5.5391,6.86612 3.1998,0.47639 5.0304,3.11183 4.4474,6.40282 -0.4069,2.29712 -0.1337,2.75 1.6591,2.75 3.101,0 5.8037,2.86628 5.8037,6.15499 0,2.377423 0.4161,2.845013 2.5314,2.845013 1.3923,0 2.7904,0.675 3.107,1.5 0.3166,0.825 0.7532,1.5 0.9703,1.5 0.217,0 4.6718,-3.86301 9.8994,-8.584473 z m -47.1442,6.090213 c -0.3154,-0.82184 -0.9763,-1.24528 -1.4686,-0.94098 -1.412,0.87262 -1.044,2.43524 0.5734,2.43524 0.892,0 1.2435,-0.5866 0.8952,-1.49426 z m 24.9793,-1.05378 c -0.3422,-0.891953 0.2008,-2.157603 1.2814,-2.986273 1.6686,-1.27955 1.4923,-1.31004 -1.5977,-0.27634 -1.9102,0.63904 -2.9227,1.34535 -2.25,1.5696 0.6727,0.22424 1.2231,0.87532 1.2231,1.446833 0,0.64157 -0.5567,0.57706 -1.4552,-0.16861 -1.1434,-0.948943 -1.2076,-1.604153 -0.2998,-3.057773 0.6354,-1.01752 1.4842,-1.6468 1.8861,-1.39841 0.4019,0.2484 0.989,0.0338 1.3046,-0.47689 0.8287,-1.34091 -1.9494,-0.75252 -3.8348,0.81218 -1.9062,1.58199 -2.1087,4.712113 -0.3509,5.421443 2.7196,1.09738 4.6906,0.67087 4.0932,-0.88576 z m -25.9562,-3.634943 c -0.2889,-0.4673 -0.9441,-0.59075 -1.4561,-0.27432 -1.3083,0.80863 -1.161,1.12397 0.5251,1.12397 0.8009,0 1.2198,-0.38234 0.931,-0.84965 z m 2.9028,-2.81702 c -0.2877,-1.1 -0.9364,-2 -1.4416,-2 -0.5074,0 -0.4395,0.89508 0.1518,2 0.5887,1.1 1.2375,2 1.4416,2 0.2042,0 0.1358,-0.9 -0.1518,-2 z m 17.3696,-3.82262 c -1.33,-0.25974 -1.442,-0.71492 -0.5747,-2.33564 0.5926,-1.10717 0.8159,-2.27449 0.4964,-2.59405 -0.3196,-0.31956 -0.5811,-9.2e-4 -0.5811,0.70809 0,1.00078 -0.3179,1.02527 -1.4213,0.10951 -1.1662,-0.9679 -1.3248,-0.81041 -0.8833,0.87756 0.3791,1.44971 0.061,2.05715 -1.0787,2.05715 -2.3236,0 -1.9903,1.3523 0.6333,2.57014 1.5696,0.72854 2.6752,0.72465 3.6558,-0.0129 1.1816,-0.88872 1.1423,-1.1087 -0.2464,-1.37989 z m -12.1594,-3.17738 c 0.9955,-1.1 1.585,-2 1.31,-2 -0.275,0 -1.3145,0.9 -2.31,2 -0.9954,1.1 -1.5849,2 -1.3099,2 0.275,0 1.3145,-0.9 2.3099,-2 z m 5.8816,0.44806 c 0.3415,-0.88992 0.1739,-1.29132 -0.393,-0.94098 -0.5437,0.33602 -0.9886,1.0344 -0.9886,1.55194 0,1.43843 0.7168,1.12146 1.3816,-0.61096 z m 43.0757,-5.37896 c 0.3165,-0.512 0.193,-1.1672 -0.2743,-1.45601 -0.4673,-0.28881 -0.8496,0.13009 -0.8496,0.9309 0,1.68617 0.3153,1.83349 1.1239,0.52511 z m 8.9727,-3.18241 c -0.3014,-0.48768 -0.8214,-0.88669 -1.1556,-0.88669 -0.3342,0 -0.3116,0.2961 0.05,0.65799 0.3619,0.3619 0.099,1.3744 -0.5834,2.25 -1.0965,1.40633 -1.0385,1.433 0.4977,0.2287 0.9564,-0.74982 1.4924,-1.76232 1.191,-2.25 z m -4.3421,-1.81121 c -1.0927,-0.69173 -0.8666,-0.99698 1,-1.34971 1.3267,-0.2507 0.3957,-0.43871 -2.0689,-0.41781 -2.4646,0.0209 -3.9243,0.2236 -3.2438,0.45044 0.6805,0.22683 0.9829,0.82399 0.6721,1.32701 -0.3109,0.50302 0.6988,0.9077 2.2437,0.89928 2.0402,-0.0111 2.4225,-0.25999 1.3969,-0.90921 z m -9.5879,-1.07548 c -0.34,-0.55014 0.4207,-1.03552 1.691,-1.07895 1.27,-0.0434 1.7317,-0.31087 1.0261,-0.59433 -1.8129,-0.72821 -4.4668,0.46009 -3.7214,1.66622 0.3423,0.55388 0.8474,1.00706 1.1224,1.00706 0.275,0 0.2219,-0.45 -0.1181,-1 z m -1.7697,-3.93072 c -0.08,-1.0619 -0.4824,-1.72249 -0.8942,-1.46798 -0.4118,0.25451 -0.4952,1.12334 -0.1854,1.93072 0.7812,2.03586 1.2526,1.83382 1.0796,-0.46274 z m 11.2697,1.27865 c -0.825,-0.27179 -2.4,-0.87836 -3.5,-1.34793 -1.1,-0.46957 -2.675,-1.07614 -3.5,-1.34793 -0.825,-0.2718 -0.064,-0.5297 1.691,-0.57312 5.623,-0.13912 4.3234,-1.57447 -1.5388,-1.69957 -3.3588,-0.0717 -4.8407,0.17208 -3.6522,0.60078 1.1,0.39677 1.775,1.12605 1.5,1.62062 -0.275,0.49457 0.5125,1.04302 1.75,1.21877 1.2375,0.17575 2.25,0.73825 2.25,1.25 0,0.51175 1.4625,0.89492 3.25,0.8515 1.7875,-0.0434 2.575,-0.30132 1.75,-0.57312 z m 18.6853,-10.85499 c 1.5604,-4.02049 1.7695,-5.28531 0.7312,-4.42362 -1.1525,0.95646 -1.8177,0.8775 -3.2081,-0.38072 -1.075,-0.97292 -2.2704,-1.26829 -3.088,-0.76301 -0.8448,0.52213 -0.9594,1.05586 -0.3125,1.45564 0.5617,0.34718 1.2311,0.0659 1.4875,-0.625 0.2575,-0.69389 0.9922,0.0695 1.6412,1.70541 1.3391,3.3755 -0.1674,7.53836 -2.728,7.53836 -1.1786,0 -1.218,0.28368 -0.2086,1.5 0.7033,0.84732 0.8073,1.5 0.2391,1.5 -0.5532,0 -1.2564,1.0125 -1.5628,2.25 -1.0521,4.2505 4.657,-3.69704 7.009,-9.75706 z m -68.1613,8.4317 c 0.9831,-3.09758 0.1262,-3.21625 -3.1124,-0.431 l -2.9116,2.50392 2.6827,10e-4 c 1.8374,8.3e-4 2.8901,-0.65262 3.3413,-2.07414 z m 60.8377,-0.42464 c 0.3166,-0.825 0.1397,-1.5 -0.393,-1.5 -0.5328,0 -0.9687,0.675 -0.9687,1.5 0,0.825 0.1769,1.5 0.3931,1.5 0.2161,0 0.652,-0.675 0.9686,-1.5 z m -44.3617,-1.05902 c 0,-0.24254 -0.45,-0.44098 -1,-0.44098 -0.55,0 -1,0.47656 -1,1.05902 0,0.58246 0.45,0.7809 1,0.44098 0.55,-0.33992 1,-0.81648 1,-1.05902 z m 37,0.55902 c 0,-0.55 -0.6484,-1 -1.4409,-1 -0.7926,0 -1.7191,0.45 -2.0591,1 -0.3399,0.55 0.3086,1 1.441,1 1.1325,0 2.059,-0.45 2.059,-1 z m -48,-2.62804 c 0,-0.12401 -1.3575,-0.90273 -3.0168,-1.73047 -1.6593,-0.82775 -2.7104,-1.00924 -2.336,-0.40331 0.4233,0.68476 0.1142,0.88424 -0.8164,0.5271 -0.8236,-0.31603 -1.4961,-0.055 -1.4945,0.58006 0,0.66289 1.6344,1.17541 3.8334,1.20338 2.1067,0.0268 3.8303,-0.0527 3.8303,-0.17676 z m 39.1875,-0.0551 c -0.7218,-0.28887 -1.5843,-0.25334 -1.9166,0.079 -0.3323,0.3323 0.2583,0.56865 1.3125,0.52522 1.1649,-0.048 1.4019,-0.28494 0.6041,-0.60416 z m -32.5066,-0.92908 c 1.1994,-0.32169 2.4031,-1.16417 2.6748,-1.87219 0.3734,-0.97312 -0.2338,-0.92425 -2.4879,0.20025 -1.64,0.81816 -3.8568,1.25875 -4.9262,0.97911 -1.0694,-0.27965 -1.6921,-0.10042 -1.3839,0.39829 0.6395,1.03478 2.9489,1.14587 6.1232,0.29454 z m 41.5066,-0.0709 c -0.7218,-0.28887 -1.5843,-0.25334 -1.9166,0.079 -0.3323,0.33229 0.2583,0.56864 1.3125,0.52522 1.1649,-0.048 1.4019,-0.28494 0.6041,-0.60416 z m -35.3536,-1.19303 c 1.0675,-0.67671 1.0072,-0.97086 -0.3019,-1.47324 -0.8997,-0.34524 -1.3847,-0.22129 -1.0777,0.27543 0.307,0.49673 -0.01,1.13104 -0.698,1.4096 -0.691,0.27855 -0.8063,0.5351 -0.2563,0.5701 0.55,0.035 1.6003,-0.31685 2.3339,-0.78189 z m -9.4722,-1.62385 c -0.6474,-1.68702 -1.9591,-1.9604 -2.8089,-0.58541 -0.3109,0.50302 1e-4,1.1425 0.691,1.42105 2.2149,0.89297 2.7067,0.69892 2.1179,-0.83564 z m 19.555,-2.19734 c 0.2292,-0.16646 -0.9119,-0.30266 -2.5357,-0.30266 -2.2244,0 -2.9524,0.46423 -2.9524,1.88265 0,1.76395 0.1599,1.78304 2.5357,0.30266 1.3947,-0.869 2.7232,-1.71619 2.9524,-1.88265 z m 26.8294,2.23325 c 0.1353,-0.10708 -0.7818,-1.1603 -2.038,-2.34048 l -2.2841,-2.14579 -5.962,2.93342 -5.962,2.93342 8,-0.59294 c 4.4,-0.32611 8.1108,-0.68054 8.2461,-0.78763 z m 5.3708,-4.05556 c -1.6226,-1.84807 -3.3526,-4.07916 -3.8444,-4.95798 -0.6976,-1.24658 -1.4304,-1.38365 -3.3333,-0.6235 -1.6217,0.6478 -1.876,0.9956 -0.7589,1.03774 0.9241,0.0349 3.3991,2.04316 5.5,4.46288 2.1008,2.41973 4.1723,4.18384 4.6033,3.92025 0.431,-0.2636 -0.544,-1.99132 -2.1667,-3.83939 z m -43.1169,1.86973 c 0,-0.2371 -1.7731,-0.32648 -3.9403,-0.1986 -2.1672,0.12787 -3.7695,0.50893 -3.5607,0.84679 0.4132,0.66864 7.501,0.0562 7.501,-0.64819 z m 40,0.32423 c 0,-0.17912 -1.2375,-1.41662 -2.75,-2.75 l -2.75,-2.42431 2.4243,2.75 c 2.2659,2.57029 3.0757,3.20859 3.0757,2.42431 z m 7,-8.67431 c 1.1,-1.1 2.7875,-1.96837 3.75,-1.92972 1.517,0.0609 1.4909,0.17171 -0.1964,0.832 -1.8106,0.70853 -1.7787,0.80558 0.4563,1.39005 2.8603,0.74798 2.8233,0.77637 3.9039,-2.99165 l 0.8521,-2.97095 -7.3708,1.15628 c -7.2342,1.13488 -10.8339,2.51399 -6.5617,2.51399 1.5,0 2.1666,0.61538 2.1666,2 0,1.1 0.225,2 0.5,2 0.275,0 1.4,-0.9 2.5,-2 z m -98,45.09361 c 0,-0.49851 0.9,-0.67103 2,-0.38337 1.1,0.28766 2,0.69553 2,0.90638 0,0.21085 -0.9,0.38337 -2,0.38337 -1.1,0 -2,-0.40787 -2,-0.90638 z m 2,-2.09362 c 0,-0.55 0.1985,-1 0.441,-1 0.2426,0 0.7191,0.45 1.059,1 0.34,0.55 0.1415,1 -0.4409,1 -0.5825,0 -1.0591,-0.45 -1.0591,-1 z m 14,-23.44098 c 0,-0.24254 0.45,-0.7191 1,-1.05902 0.55,-0.33992 1,-0.14148 1,0.44098 0,0.58246 -0.45,1.05902 -1,1.05902 -0.55,0 -1,-0.19844 -1,-0.44098 z"
       id="path3780-4"
       inkscape:connector-curvature="0"
       sodipodi:nodetypes="sssscscsccsssscscsscssscssscsssscssccsssccsccscccccccccscscccccscccscccccsssssccccssccscscccssssscssccssscccscscsccsccssssscccssccsscsssscccssssscscccssscsscccssssccsscssssssccscccscsccccsccccsccscsccccsscscscccscscscsscssccsccccccssccsccccsscsssscscssssssccssccccsscscsccccccsssssssssssscsssscccssccsccccsssccccccscscssccscssscscccccsccssccccsscssscssscssccsssssssssssscsssssss" />
    <path
       style="fill:#000000"
       d="m 1284.4073,387.6332 c -0.1834,-0.54593 -1.9084,-1.12598 -3.8334,-1.28899 -3.078,-0.26066 -3.4952,-0.62319 -3.4605,-3.00739 0.028,-1.95269 -0.4612,-2.71101 -1.75,-2.71101 -0.9842,0 -1.7895,-0.62079 -1.7895,-1.37954 0,-1.43884 -8.1407,-8.62046 -9.7717,-8.62046 -1.1516,0 -3.2362,-12.15292 -3.2063,-18.69263 0.044,-9.73036 6.8825,-18.30737 14.5956,-18.30737 4.1757,0 11.1889,3.02369 13.8607,5.97595 1.6371,1.80906 1.8937,1.82643 4.2428,0.28727 3.8328,-2.51136 14.0122,-2.20923 18.474,0.54832 3.9172,2.42098 8.8049,9.10098 8.8049,12.03367 0,2.79571 -3.9626,12.04373 -7.2572,16.93706 -6.2605,9.29831 -27.4263,22.64168 -28.9094,18.22512 z m 4.0716,-3.62193 c -1.1541,-1.39063 -0.9554,-1.94535 1.4333,-4 3.5652,-3.06661 5.0184,-3.03158 4.4185,0.10649 -0.473,2.47454 -0.4443,2.46827 4.0992,-0.89723 2.5165,-1.86405 4.7652,-3.99793 4.997,-4.74195 0.2317,-0.74403 -0.7713,-0.25623 -2.229,1.08399 -2.045,1.88014 -2.9215,2.16567 -3.8372,1.25 -1.5861,-1.58607 -3.782,-1.49812 -5.708,0.22863 -2.1603,1.93676 -9.0788,3.18415 -9.0788,1.63688 0,-0.64367 -0.3697,-0.9418 -0.8216,-0.66251 -1.3834,0.85497 -4.1753,-3.22347 -3.5065,-5.12234 0.5084,-1.44351 0.3756,-1.53833 -0.7247,-0.51742 -2.5564,2.37205 -3.9472,1.42394 -3.9472,-2.69098 0,-2.16754 0.45,-4.2191 1,-4.55902 0.55,-0.33992 0.9858,-1.15398 0.9684,-1.80902 -0.017,-0.65504 -0.955,0.0465 -2.0834,1.55902 -1.1285,1.5125 -2.9248,2.75 -3.9919,2.75 -1.6241,0 -1.8773,-0.57013 -1.5545,-3.5 0.2729,-2.47578 -0.013,-3.5 -0.9764,-3.5 -1.8051,0 -1.7259,-2.03566 0.1853,-4.76433 1.3967,-1.99399 1.3967,-2.15146 0,-1.61552 -2.6209,1.00574 -1.7925,-2.43249 1.6045,-6.65963 2.8704,-3.57184 6.1636,-5.66967 8.098,-5.15865 0.4125,0.10897 0.75,-0.25187 0.75,-0.80187 0,-1.27161 -0.3454,-1.25538 -3.4571,0.16244 -3.7906,1.72711 -4.2818,0.21827 -1.0329,-3.17287 4.3962,-4.58863 0.6764,-3.74241 -4.2166,0.95925 -5.1735,4.97111 -6.3234,9.63945 -5.0083,20.33242 0.5221,4.24532 1.3043,7.71876 1.7383,7.71876 0.434,0 3.0331,2.1375 5.7758,4.75 2.7427,2.6125 5.8224,5.26228 6.8438,5.88839 1.0214,0.62612 1.7985,1.83972 1.727,2.69689 -0.08,0.95354 0.9835,1.80307 2.7385,2.18855 1.5778,0.34652 3.1253,1.04542 3.4391,1.55311 0.3138,0.50768 1.274,0.92306 2.1339,0.92306 1.3256,0 1.3596,-0.24558 0.2235,-1.61454 z m 23.229,-20.06067 c 1.4199,0.37131 2.2399,-0.70813 3.8918,-5.12305 1.151,-3.07641 1.8548,-6.54165 1.5639,-7.70053 -0.6027,-2.40151 -7.369,-9.51676 -9.0063,-9.4708 -0.5959,0.0167 -0.2959,0.48908 0.6666,1.04969 2.774,1.61566 2.2371,4.24617 -0.75,3.67515 -1.375,-0.26285 -2.5,-0.0903 -2.5,0.38342 0,0.47373 0.63,0.86133 1.4,0.86133 0.9334,0 1.4,1.16667 1.4,3.5 0,2.17895 -0.4836,3.5 -1.2813,3.5 -1.8966,0 -6.6026,6.61772 -5.9378,8.35009 0.3152,0.8215 0.073,2.42879 -0.539,3.57177 -0.9568,1.78777 -0.8279,2.07814 0.923,2.07814 1.1193,0 2.0351,0.46566 2.0351,1.0348 0,0.56913 1.4254,-0.58864 3.1676,-2.57283 2.0789,-2.36779 3.7857,-3.44594 4.9664,-3.13718 z m -4.1022,-5.07479 c 0.017,-0.9625 0.6781,-2.60379 1.468,-3.64732 0.7899,-1.04353 1.1832,-2.3066 0.8741,-2.80684 -1.0055,-1.62688 0.6214,-5.79584 2.2618,-5.79584 1.1648,0 1.468,0.67718 1.1196,2.5 -0.3344,1.74945 -0.037,2.5 0.9918,2.5 1.0945,0 1.3035,0.70208 0.8187,2.75 -0.7043,2.97498 -3.9408,6.25 -6.1765,6.25 -0.7641,0 -1.3749,-0.7875 -1.3575,-1.75 z m -14.0318,7.25 c 0.6847,-0.825 1.0199,-1.5 0.7449,-1.5 -0.275,0 -1.0602,0.675 -1.7449,1.5 -0.6846,0.825 -1.0198,1.5 -0.7448,1.5 0.275,0 1.0602,-0.675 1.7448,-1.5 z m -2,-5 c 0.6847,-0.825 1.0199,-1.5 0.7449,-1.5 -0.275,0 -1.0602,0.675 -1.7449,1.5 -0.6846,0.825 -1.0198,1.5 -0.7448,1.5 0.275,0 1.0602,-0.675 1.7448,-1.5 z m 5.5262,-7.12834 c 0.9634,0.3697 1.2999,1.11465 0.8453,1.87128 -0.4631,0.77058 -0.058,0.69071 1.0462,-0.20639 1.0779,-0.87553 1.3559,-1.61204 0.692,-1.83333 -1.7867,-0.59558 -1.2812,-3.3917 1.0646,-5.88877 l 2.1744,-2.31445 -3.7057,0 c -2.3511,0 -3.9136,-0.54162 -4.2743,-1.48169 -0.4395,-1.14526 -1.0177,-1.2413 -2.5468,-0.42299 -1.088,0.58228 -2.574,0.83004 -3.3022,0.55058 -1.8682,-0.71688 -2.6141,0.33738 -1.2625,1.78431 0.6253,0.66941 2.1733,1.019 3.4399,0.77687 2.6573,-0.50798 3.0694,1.36247 0.9413,4.27283 -0.7489,1.02419 -1.1417,2.70319 -0.8729,3.73111 0.4572,1.74831 0.6072,1.76171 2.3244,0.20768 1.0096,-0.9137 2.5559,-1.38486 3.4363,-1.04704 z m -10.5262,0.12834 c 0.6847,-0.825 1.0199,-1.5 0.7449,-1.5 -0.275,0 -1.0602,0.675 -1.7449,1.5 -0.6846,0.825 -1.0198,1.5 -0.7448,1.5 0.275,0 1.0602,-0.675 1.7448,-1.5 z m -8,-2 c 0.6847,-0.825 1.0199,-1.5 0.7449,-1.5 -0.275,0 -1.0602,0.675 -1.7449,1.5 -0.6846,0.825 -1.0198,1.5 -0.7448,1.5 0.275,0 1.0602,-0.675 1.7448,-1.5 z m -6.613,-3.68298 c -0.2889,-0.4673 -0.9441,-0.59075 -1.4561,-0.27431 -1.3083,0.80862 -1.161,1.12396 0.5251,1.12396 0.8009,0 1.2198,-0.38234 0.931,-0.84965 z m 6.613,-3.31702 c 0.6847,-0.825 1.0199,-1.5 0.7449,-1.5 -0.275,0 -1.0602,0.675 -1.7449,1.5 -0.6846,0.825 -1.0198,1.5 -0.7448,1.5 0.275,0 1.0602,-0.675 1.7448,-1.5 z"
       id="path3780-0"
       inkscape:connector-curvature="0"
       sodipodi:nodetypes="cscssscscsssscsscscsssssccssccscsccssssssssssccssssccccsssssccsscscscscscsccscsccscscccccccscccsssscccscsccscscccsccscsc" />
    <path
       style="fill:#000000"
       d="m 1297.5306,261.80907 c -13.5086,-2.40527 -16.505,-3.94225 -16.505,-8.46629 0,-2.13781 2.5619,-4.96064 4.5021,-4.96064 2.5354,0 8.4718,-4.48769 9.1338,-6.90478 0.3639,-1.32842 0.1387,-3.11878 -0.503,-4 -4.0398,-5.54741 -5.1268,-7.99996 -5.1393,-11.59522 -0.013,-3.6808 -0.3174,-4.12735 -3.8166,-5.59584 -6.3242,-2.65397 -9.1957,-12.09967 -5.721,-18.81897 1.3892,-2.68636 6.8285,-6.09533 9.6952,-6.07618 0.7419,0.005 2.4738,-1.32608 3.8488,-2.95788 l 2.5,-2.96689 6,1.45308 c 3.3,0.7992 7.35,1.64 9,1.86845 1.65,0.22845 4.2277,0.89071 5.7281,1.4717 1.5004,0.58099 5.6963,1.57324 9.3241,2.205 5.6322,0.98081 6.7655,1.53358 7.7558,3.78309 0.6379,1.44894 2.361,3.78677 3.8291,5.19518 4.0373,3.87316 5.5966,10.10837 3.7995,15.19318 -1.7952,5.07962 -5.4102,7.81971 -11.1736,8.46933 -3.5725,0.40267 -4.8022,1.07321 -6.1487,3.35264 -0.9257,1.56712 -3.6526,4.26366 -6.0597,5.9923 -4.8113,3.4552 -6.2257,6.53207 -4.089,8.89493 2.1256,2.35062 4.7219,10.87094 4.0029,13.13638 -0.5678,1.78876 -4.4492,4.11806 -6.2836,3.77087 -0.3766,-0.0713 -6.5326,-1.17084 -13.6799,-2.44344 z m 15.172,-3.77057 c 0.2235,-0.2235 -0.7374,-0.40636 -2.1353,-0.40636 -1.3979,0 -2.5417,0.36791 -2.5417,0.81758 0,0.77877 3.8232,0.44262 4.677,-0.41122 z m -24.6923,-2.40636 c -0.012,-1.3762 -0.2007,-1.45737 -0.8831,-0.38002 -0.7008,1.10617 -1.0771,1.00989 -1.9543,-0.5 -0.5975,-1.02849 -1.1001,-1.39748 -1.1168,-0.81998 -0.035,1.22545 2.0082,3.45 3.1695,3.45 0.44,0 0.7932,-0.7875 0.7847,-1.75 z m 22.3802,-0.74157 c -0.3268,-0.85162 0.1157,-1.75562 1.0314,-2.10699 2.1465,-0.82368 2.0442,-2.40144 -0.1557,-2.40144 -0.9677,0 -2.3592,0.96031 -3.0922,2.13402 -1.1115,1.77988 -1.11,2.27519 0.01,2.98469 2.0217,1.28132 2.8455,1.05351 2.2071,-0.61028 z m 4.1351,0.49157 c -0.3399,-0.55 -1.1539,-0.99311 -1.809,-0.98469 -0.7156,0.009 -0.5922,0.40223 0.309,0.98469 1.9212,1.24153 2.2673,1.24153 1.5,0 z m -9.1705,-2.58385 c -0.3343,-0.87111 -0.8827,-1.16359 -1.2186,-0.64994 -0.336,0.51365 -1.2859,1.19085 -2.1109,1.5049 -0.8816,0.33559 -0.3792,0.60354 1.2187,0.64994 2.0857,0.0606 2.5771,-0.28975 2.1108,-1.5049 z m -4.8365,-0.4047 c 0.3503,-0.56686 -0.051,-0.7345 -0.941,-0.39301 -1.7324,0.66479 -2.0494,1.38156 -0.611,1.38156 0.5176,0 1.2159,-0.44485 1.552,-0.98855 z m -3.5083,-0.76145 c -0.01,-0.4125 -0.5008,-1.425 -1.0943,-2.25 -0.9108,-1.26612 -0.9912,-1.22714 -0.5161,0.25 0.3628,1.12781 0.041,1.75 -0.9056,1.75 -0.8302,0 -1.4687,-0.92265 -1.4687,-2.12244 0,-1.77324 -0.2468,-1.91763 -1.5,-0.87756 -1.9794,1.64277 -1.8958,2.74991 0.25,3.31067 2.9103,0.76054 5.2509,0.73341 5.2347,-0.0607 z m 13.5728,-2.43616 c 0.4198,0.37739 0.4656,0.16591 0.1019,-0.46996 -0.3638,-0.63587 -1.5609,-0.92088 -2.6604,-0.63337 -2.2662,0.59264 -2.5888,-1.02882 -1.0237,-5.14541 0.8301,-2.18322 0.6985,-2.5651 -0.8834,-2.5651 -1.1885,0 -2.031,0.90145 -2.3366,2.5 -0.2629,1.375 -0.09,2.5 0.3834,2.5 0.4737,0 0.8613,0.72748 0.8613,1.61663 0,1.1243 -0.609,1.45735 -2,1.09362 -2.7186,-0.71094 -2.5377,0.15342 0.25,1.19432 1.2375,0.46207 3.2163,0.4763 4.3972,0.0316 1.181,-0.44467 2.4906,-0.49973 2.9103,-0.12235 z m -11.5575,-0.70685 c 0,-0.49116 -0.7386,-1.17646 -1.6414,-1.52289 -1.3725,-0.52667 -1.4343,-0.38034 -0.3776,0.89301 1.4402,1.73524 2.019,1.91584 2.019,0.62988 z m 2,-5.66601 c 0,-0.79254 -0.45,-1.44098 -1,-1.44098 -0.55,0 -1,0.92656 -1,2.05902 0,1.13246 0.45,1.7809 1,1.44098 0.55,-0.33992 1,-1.26648 1,-2.05902 z m 11.5,-4.09776 c 1.9509,-1.55403 1.9386,-1.57815 -0.5,-0.98185 -1.375,0.33623 -3.4,0.62436 -4.5,0.64029 -1.6588,0.024 -1.7441,0.19434 -0.5,0.99834 2.0613,1.33207 3.1694,1.19974 5.5,-0.65678 z m -12.5,-0.73623 c 0,-0.21616 -0.6983,-0.661 -1.5519,-0.98855 -0.8899,-0.34149 -1.2913,-0.17385 -0.941,0.39301 0.5873,0.95021 2.4929,1.40545 2.4929,0.59554 z m 11,-2.16601 c 0,-0.24254 -0.45,-0.44098 -1,-0.44098 -0.55,0 -1,0.47656 -1,1.05902 0,0.58246 0.45,0.7809 1,0.44098 0.55,-0.33992 1,-0.81648 1,-1.05902 z m -5.206,-0.98806 c 2.8998,-1.44664 4.9482,-4.71498 4.3336,-6.91471 -0.1478,-0.52899 0.3689,-1.42899 1.1482,-2 2.1963,-1.60928 4.7775,-7.23582 4.1134,-8.96644 -0.3533,-0.92068 0.055,-1.80503 1.0013,-2.16813 0.879,-0.33726 1.3425,-1.02672 1.0301,-1.53212 -0.3123,-0.5054 0.2094,-2.95413 1.1594,-5.44163 1.0097,-2.64389 1.3518,-4.85709 0.8236,-5.32761 -1.0151,-0.90424 -13.4486,-4.43799 -13.8248,-3.9292 -0.133,0.17981 -1.5304,3.41225 -3.1054,7.18321 -3.091,7.40031 -4.9871,9.02926 -7.118,6.11506 -1.1962,-1.636 -1.3547,-1.15613 -1.3498,4.08752 0.01,7.94002 1.4783,12.78365 5.1526,16.96846 1.677,1.90997 3.1583,3.47267 3.2918,3.47267 0.1335,0 1.6383,-0.69619 3.344,-1.54708 z m 7.648,-1.35904 c 0.308,-0.49837 1.3785,-0.69208 2.3789,-0.43048 1.0004,0.26161 2.405,-0.23064 3.1214,-1.09388 0.8744,-1.05349 0.9336,-1.56952 0.1802,-1.56952 -0.6174,0 -1.1225,0.45 -1.1225,1 0,0.55 -0.675,1 -1.5,1 -0.825,0 -1.5,-0.45 -1.5,-1 0,-0.55 0.3976,-1 0.8834,-1 0.7982,0 2.3719,-4.0973 1.8384,-4.78647 -0.122,-0.15757 0.4532,-0.71317 1.2782,-1.23469 1.2913,-0.81628 1.2656,-0.95035 -0.1852,-0.96353 -1.0252,-0.009 -2.181,1.3555 -2.9509,3.48469 -0.6961,1.925 -1.6252,3.5 -2.0647,3.5 -0.4396,0 -0.7992,0.6375 -0.7992,1.41667 0,0.77916 -0.5625,1.64364 -1.25,1.92105 -0.9013,0.36368 -0.9177,0.52641 -0.059,0.58333 0.6551,0.0434 1.443,-0.3288 1.751,-0.82717 z m -20.1626,-4.13354 c -0.2933,-1.12182 -0.7568,-1.81623 -1.0299,-1.54313 -0.541,0.54099 0.4146,3.58279 1.1255,3.58279 0.2408,0 0.1978,-0.91785 -0.096,-2.03966 z m 34.9703,-2.96034 c 3.5934,0 8.3765,-2.43304 9.7207,-4.94461 1.9519,-3.64708 1.2122,-8.82352 -1.7204,-12.04058 -1.5873,-1.74133 -3.2167,-2.69926 -3.854,-2.26578 -0.7482,0.5089 -0.4569,1.39565 0.9036,2.75097 1.1042,1.1 1.687,1.4375 1.2951,0.75 -0.392,-0.6875 -0.2361,-1.25 0.3463,-1.25 0.5825,0 1.059,0.675 1.059,1.5 0,0.825 -0.45,1.5 -1,1.5 -0.55,0 -1,1.51431 -1,3.36514 0,4.39512 -3.5079,8.96208 -6.4516,8.39936 -1.5636,-0.29892 -2.4973,0.28818 -3.3577,2.11129 -0.9273,1.96482 -0.9253,2.25887 0.01,1.32478 0.6601,-0.66031 2.4827,-1.20057 4.05,-1.20057 z m 6.7503,-11.5 c 0,-0.825 0.675,-1.5 1.5,-1.5 0.825,0 1.5,0.675 1.5,1.5 0,0.825 -0.675,1.5 -1.5,1.5 -0.825,0 -1.5,-0.675 -1.5,-1.5 z m -43.3106,6.75 c -0.2516,-0.9625 -0.4574,-0.175 -0.4574,1.75 0,1.925 0.2058,2.7125 0.4574,1.75 0.2515,-0.9625 0.2515,-2.5375 0,-3.5 z m 29.0519,-0.5 c 0.5424,-0.6875 1.2874,-3.9312 1.6557,-7.20822 0.3682,-3.27702 0.9079,-7.10202 1.1994,-8.5 0.4965,-2.38188 0.4508,-2.41596 -0.7267,-0.54178 -0.6911,1.1 -1.5856,3.8 -1.9877,6 -0.4021,2.2 -1.1677,5.6875 -1.7012,7.75 -0.9714,3.755 -0.2904,4.84608 1.5605,2.5 z m 10.8171,-5.25 c 0.4886,-2.09429 0.3803,-2.6981 -0.3585,-2 -0.5821,0.55 -1.3733,2.35 -1.7582,4 -0.4886,2.09429 -0.3804,2.6981 0.3585,2 0.5821,-0.55 1.3733,-2.35 1.7582,-4 z m -40.5584,2 c 0,-1.62882 -0.9147,-1.85367 -3.502,-0.86084 -1.3287,0.50987 -1.3958,0.81021 -0.3318,1.48469 2.0727,1.31388 3.8338,1.0273 3.8338,-0.62385 z m 35.8069,-1.02646 c -0.3079,-0.30789 -0.867,0.24711 -1.2426,1.23333 -0.5426,1.4252 -0.4278,1.54006 0.5598,0.5598 0.6835,-0.67834 0.9907,-1.48524 0.6828,-1.79313 z m -41.6629,-5.91221 c -0.1253,-2.42014 -0.416,-5.37778 -0.6461,-6.57253 -0.2944,-1.52863 -0.014,-2.01692 0.9479,-1.64797 0.7515,0.28836 2.1534,-0.34536 3.1153,-1.40827 0.9619,-1.06291 2.3383,-1.93256 3.0587,-1.93256 0.7205,0 1.8494,-1.0125 2.5088,-2.25 1.0152,-1.90527 0.9823,-2.07431 -0.2148,-1.10327 -0.7776,0.63069 -3.3199,1.71253 -5.6497,2.40407 -2.473,0.73407 -4.9228,2.30564 -5.8864,3.77621 -2.2039,3.36366 -2.128,9.68639 0.1465,12.1997 2.3503,2.59703 2.8962,1.87488 2.6198,-3.46538 z m 45.5641,-10.18665 c -0.3299,-0.32982 -4.7866,-1.48636 -9.9039,-2.57009 -13.3701,-2.83148 -14.8571,-3.02685 -9.8042,-1.28808 2.475,0.85168 6.9495,1.97444 9.9434,2.49503 7.6706,1.33383 8.7127,2.63433 7.2364,9.03019 -1.8611,8.06245 -1.2089,8.18241 1.0625,0.19545 1.136,-3.99455 1.7956,-7.53267 1.4658,-7.8625 z m -41.0665,4.19243 c -0.7506,-1.98681 -2.6979,4.68081 -1.9902,6.81497 0.5905,1.78098 0.8367,1.49224 1.5478,-1.81497 0.4651,-2.16308 0.6642,-4.41308 0.4424,-5 z m 13.5459,-7.25022 c -0.7218,-0.28887 -1.5843,-0.25335 -1.9166,0.0789 -0.3323,0.33229 0.2583,0.56864 1.3125,0.52522 1.1649,-0.048 1.4019,-0.28494 0.6041,-0.60416 z m 2,-3 c -0.7218,-0.28887 -1.5843,-0.25335 -1.9166,0.0789 -0.3323,0.3323 0.2583,0.56864 1.3125,0.52522 1.1649,-0.048 1.4019,-0.28494 0.6041,-0.60416 z m -5.6635,-1.37681 c -1.8404,-0.54914 -3.3477,-0.51634 -3.95,0.086 -0.6319,0.63196 0.4131,0.94379 2.976,0.88802 3.9037,-0.085 3.9151,-0.0964 0.974,-0.97397 z"
       id="path3780-9"
       inkscape:connector-curvature="0"
       sodipodi:nodetypes="ssscccsscscsssscscscssccscsscccccscccsccccccccccsccccsccccssssccccccscsscscccsscssssssssccssscsssssscsssccssccccsscsscssssscsccssscscsscccscsscsssscscccssssscsccsccsscscccccsssssccscscssscscsccssscscccscccccccccccccccc" />
    <path
       style="fill:#000000"
       d="m 1178.5976,153.06208 c -5.5337,-1.80622 -9.464,-3.72399 -10.6809,-5.21177 -1.8914,-2.31239 -6.0675,-17.18815 -6.0649,-21.60397 9e-4,-1.57182 -0.592,-2.25 -1.9673,-2.25 -1.3251,0 -1.7834,0.48263 -1.402,1.47656 0.3278,0.85425 -0.9498,3.24811 -3.0314,5.67999 -1.9789,2.3119 -3.598,4.71326 -3.598,5.33636 0,0.6231 -1.365,2.44074 -3.0335,4.0392 -2.6246,2.51452 -3.9603,2.95867 -9.9087,3.29478 -9.0277,0.51012 -12.8141,-0.87668 -18.6665,-6.83676 -5.2059,-5.30163 -6.7347,-8.58088 -7.8789,-16.9001 -0.6889,-5.00899 -2.6588,-8.3055 -5.5362,-9.26466 -0.9008,-0.30026 -1.0706,-1.50839 -0.5797,-4.125 0.8606,-4.58772 1.2785,-4.60891 15.9439,-0.8082 6.1378,1.5907 13.3428,3.16334 16.011,3.49477 5.0695,0.62968 13.3648,3.14171 15.1241,4.57998 2.1306,1.74177 10.3128,3.36261 18.0245,3.57059 11.4402,0.30852 39.4346,7.1438 42.8768,10.46907 1.4275,1.37894 -0.1919,5.71181 -2.3451,6.2749 -1.3015,0.34034 -3.4559,3.54667 -6.2252,9.26444 -6.4854,13.39086 -10.6807,14.86667 -27.062,9.51982 z m 16.5854,-1.6485 c -0.7207,-1.87817 -0.9992,-1.78977 -1.6,0.50794 -0.3437,1.31432 -0.083,1.76401 0.8202,1.41724 0.728,-0.27936 1.0789,-1.1457 0.7798,-1.92518 z m -14.8299,-3.41724 c 0.2405,-1.24884 0.1553,-1.98863 -0.1893,-1.64398 -0.3447,0.34464 -1.2306,0.12543 -1.9686,-0.48714 -0.7382,-0.61257 -1.349,-0.72117 -1.3574,-0.24132 -0.01,0.47984 -0.4879,0.19744 -1.0655,-0.62756 -0.8074,-1.15321 -0.8927,-0.94484 -0.3693,0.90127 0.5467,1.9279 0.3688,2.2815 -0.9024,1.79368 -0.8709,-0.33418 -1.8111,-0.23926 -2.0893,0.21093 -0.2782,0.4502 0.4949,0.75898 1.718,0.68617 1.2231,-0.0728 2.8399,0.46064 3.5929,1.18541 1.6162,1.55566 2.0448,1.26607 2.6309,-1.77746 z m -2.471,0.0391 c -0.8091,-0.51167 -1.2107,-1.19066 -0.8925,-1.50885 0.3182,-0.3182 1.1478,0.10733 1.8435,0.94562 1.4426,1.73822 1.166,1.90204 -0.951,0.56323 z m 14.8921,1.21094 c -0.048,-1.05575 -0.2799,-1.25163 -0.5854,-0.49377 -0.2786,0.69093 -0.9876,0.9589 -1.5756,0.59549 -0.6319,-0.39053 -0.7773,-0.18861 -0.3556,0.49377 1.0785,1.74489 2.6059,1.38346 2.5166,-0.59549 z m -22.2544,-4.70601 c 0,-0.80081 -0.375,-1.22425 -0.8333,-0.94098 -0.4584,0.28322 -0.8334,-1.08657 -0.8334,-3.04403 0,-1.95746 -0.4857,-3.55902 -1.0794,-3.55902 -1.2517,0 -0.269,5.78074 1.3174,7.75 1.2815,1.59087 1.4287,1.56965 1.4287,-0.20601 z m 23.4767,-2.57398 c 8.8733,-9.32787 5.1878,-13.70933 -13.8702,-16.48937 -5.0617,-0.73835 -6.7277,0.57455 -6.7277,5.30164 0,6.50487 2.9458,11.60597 7.7748,13.46304 6.6171,2.54474 8.567,2.19875 12.8231,-2.27531 z m 7.4211,0.0147 c 1.6158,-0.0129 1.6878,-0.17551 0.4355,-0.98475 -1.3333,-0.86167 -1.3333,-0.97278 0,-1 1.3334,-0.0272 1.3334,-0.13833 0,-1 -1,-0.64625 -1.0833,-0.97448 -0.25,-0.98469 0.6875,-0.008 1.236,-0.80281 1.2188,-1.76531 -0.02,-1.11825 -0.8578,-0.40584 -2.3209,1.97344 -1.2594,2.04789 -3.1546,4.74789 -4.2117,6 l -1.9218,2.27656 2.5573,-2.25 c 1.4065,-1.2375 3.4282,-2.25689 4.4928,-2.26531 z m -59.5645,-2.15076 c 0,-0.57638 -0.6421,-0.80157 -1.4268,-0.50042 -0.7848,0.30115 -1.9649,-0.1007 -2.6225,-0.89301 -0.6575,-0.79231 -0.8254,-1.44056 -0.3731,-1.44056 0.4523,0 0.3114,-0.51107 -0.3133,-1.13571 -0.8476,-0.84762 -1.5431,-0.72829 -2.7418,0.47044 -1.4749,1.47487 -1.4018,1.65745 0.8947,2.23382 1.3754,0.34522 3.0203,1.25357 3.6551,2.01855 1.2155,1.4646 2.9277,1.02416 2.9277,-0.75311 z m -17.3148,-3.21213 c -0.2909,-0.75798 -0.075,-1.83219 0.4801,-2.38714 1.5104,-1.51034 -0.7882,-2.55333 -2.9073,-1.31925 -1.6641,0.96908 -1.6614,1.02534 0.051,1.05412 0.9949,0.0167 1.5309,0.48041 1.1909,1.03041 -0.3399,0.55 -0.3399,1.45 0,2 0.9198,1.48826 1.7943,1.20924 1.1852,-0.37814 z m 15.6599,-0.16499 c -0.3257,-0.84872 -0.8066,-1.32866 -1.0687,-1.06653 -0.2622,0.26213 -0.18,0.95654 0.1825,1.54313 0.9861,1.59546 1.5624,1.28551 0.8862,-0.4766 z m 31.4618,-0.98333 c -0.3079,-0.30789 -0.867,0.24711 -1.2426,1.23333 -0.5426,1.4252 -0.4278,1.54006 0.5598,0.5598 0.6835,-0.67834 0.9907,-1.48524 0.6828,-1.79313 z m -40.2027,-1.20271 c -0.3323,-0.33229 -0.5686,0.25834 -0.5252,1.3125 0.048,1.16495 0.2849,1.4019 0.6042,0.60417 0.2888,-0.72187 0.2533,-1.58437 -0.079,-1.91667 z m 14.6902,0.35689 c 0.752,0.75201 3.7056,-2.08258 3.7056,-3.55629 0,-1.85431 -1.8361,-1.1629 -2.5046,0.94309 -0.3516,1.10799 -1.006,1.78794 -1.454,1.51101 -0.4481,-0.27693 -1.4282,0.27904 -2.178,1.23548 -1.2043,1.53617 -1.1777,1.59421 0.2287,0.49767 0.8756,-0.68273 1.8666,-0.96666 2.2023,-0.63096 z m 22.9556,0.71 c -0.6875,-0.27741 -1.8125,-0.27741 -2.5,0 -0.6875,0.27741 -0.125,0.50439 1.25,0.50439 1.375,0 1.9375,-0.22698 1.25,-0.50439 z m 40.0429,-2.58772 c 1.4803,-0.6875 2.6882,-1.925 2.684,-2.75 -0.01,-1.2027 -0.1751,-1.23563 -0.853,-0.16615 -0.6931,1.09333 -0.9455,1.07327 -1.4001,-0.11124 -0.8264,-2.15376 -4.5767,-2.90325 -4.2591,-0.85119 0.1386,0.89572 -0.2467,1.99556 -0.8563,2.44409 -0.6106,0.44924 0.014,0.53827 1.3916,0.19822 2.4051,-0.59384 2.4263,-0.55835 0.5589,0.93449 -2.3388,1.86968 -0.9679,2.021 2.734,0.30178 z m -66.6726,-2.5 c 0.9166,-1.5125 2.5382,-4.01837 3.6038,-5.56861 1.0655,-1.55023 1.7307,-3.35023 1.4783,-4 -0.6813,-1.75349 -15.3912,-6.00286 -20.512,-5.92545 -6.4548,0.0976 -7.3782,1.53417 -5.1947,8.08188 2.2023,6.6043 2.7248,7.12917 8.6935,8.73382 7.6827,2.06545 10.0367,1.80469 11.9311,-1.32164 z m 28.3644,-0.55902 c 0.01,-0.44495 -0.4347,-0.5309 -0.9847,-0.19098 -0.55,0.33992 -0.9931,1.37898 -0.9846,2.30902 0.013,1.45727 0.1492,1.48367 0.9846,0.19098 0.5332,-0.825 0.9763,-1.86406 0.9847,-2.30902 z m -49.6592,-1.97344 c -0.2903,-0.46964 -1.1024,-0.63337 -1.8048,-0.36386 -0.7023,0.26952 -1.8726,-0.0373 -2.6006,-0.68182 -1.0721,-0.94922 -1.1058,-0.88009 -0.1772,0.36386 1.1749,1.57395 5.5349,2.22265 4.5826,0.68182 z m 44.0561,-0.26948 c 0.3415,-0.88992 0.1739,-1.29132 -0.393,-0.94098 -0.5437,0.33603 -0.9886,1.0344 -0.9886,1.55194 0,1.43843 0.7168,1.12146 1.3816,-0.61096 z m 34.3003,0.16513 c -0.3804,-0.99117 0.088,-1.25683 1.643,-0.9312 1.9626,0.41109 2.0009,0.34453 0.3924,-0.68118 -0.9805,-0.62524 -7.0802,-2.15088 -13.5549,-3.39031 -9.0455,-1.73153 -12.0289,-1.97879 -12.8802,-1.0675 -0.8445,0.90412 0.5672,1.34168 5.9396,1.84099 8.9398,0.83087 15.3939,2.44803 16.8705,4.22711 1.4785,1.78152 2.2728,1.78256 1.5896,0.002 z m -31.032,-4.07846 c -1.0176,-0.77091 -1.5821,-1.83528 -1.2546,-2.36526 0.345,-0.55817 -0.8751,-0.89443 -2.8999,-0.7992 -1.9224,0.0904 -3.4954,-0.20746 -3.4954,-0.66195 0,-0.45449 -0.4189,-0.56745 -0.9309,-0.25102 -0.512,0.31643 -1.2107,0.12247 -1.5528,-0.43103 -0.3998,-0.64692 -1.1014,-0.56346 -1.9642,0.23369 -1.8191,1.6807 -0.9141,2.85169 1.7592,2.27627 1.2038,-0.25911 4.2137,0.36758 6.6887,1.39264 5.5563,2.30121 5.9807,2.37166 3.6499,0.60586 z m -50.6499,-4.91228 c 0,-1.30766 -0.67,-2.93365 -1.4889,-3.61331 -1.6459,-1.36597 -1.1409,-3.08839 0.771,-2.62936 0.6699,0.16084 0.8776,0.10275 0.4617,-0.12908 -0.4159,-0.23184 -0.4511,-0.94558 -0.078,-1.58611 0.373,-0.64052 -0.2232,-0.37611 -1.3249,0.58759 -1.1017,0.9637 -2.2193,1.53596 -2.4836,1.27167 -0.2642,-0.26428 -0.013,1.53474 0.5586,3.99782 1.0922,4.70765 3.5843,6.16827 3.5843,2.10078 z m 34,-1.58726 c 0,-0.53065 -1.0125,-1.45548 -2.25,-2.05517 -2.0687,-1.0025 -2.1047,-0.97319 -0.447,0.36381 1.3546,1.09245 1.4789,1.58403 0.5,1.97622 -0.8417,0.33724 -0.6834,0.55001 0.447,0.601 0.9625,0.0434 1.75,-0.35522 1.75,-0.88586 z m -4.6032,-1.44363 c -0.6548,-1.70641 -6.1799,-4.14179 -7.1639,-3.15777 -0.3866,0.38665 0.4153,1.56221 1.7821,2.61237 2.959,2.2735 6.1698,2.59889 5.3818,0.5454 z m -11.9468,-3.4637 c -1.4182,-1.30197 -9.45,-2.31948 -9.45,-1.19717 0,0.52487 1.9125,1.12657 4.25,1.33711 2.3375,0.21053 4.6775,0.46141 5.2,0.55749 0.6,0.11035 0.6,-0.1466 0,-0.69743 z m -23.45,-3.55453 c 0,-0.78468 0.7875,-1.63248 1.75,-1.884 0.9625,-0.25153 0.2875,-0.50953 -1.5,-0.57333 -3.0692,-0.10955 -4.3344,1.46621 -2.5833,3.21733 1.1307,1.13067 2.3333,0.73894 2.3333,-0.76 z"
       id="path3780-48"
       inkscape:connector-curvature="0"
       sodipodi:nodetypes="sscsssscsssccsscscccssccsscccsccsscssccscccccccsscccssssscccccccccsccsccsccccsccccccccsccssccsccccssccscssssscccccccsccccsssccsccccccccscssccsscscccscssscssssccsccsccccsscccsscssssscsssscs" />
    <path
       style="fill:#000000"
       d="m 848.28279,230.22721 c -4.97749,-0.44721 -11.60572,-1.34369 -14.7294,-1.99216 -5.49891,-1.14157 -5.71746,-1.31199 -6.87668,-5.36242 -1.99829,-6.98225 -1.67659,-25.34552 0.54192,-30.93338 1.03722,-2.6125 2.29621,-4.75 2.79775,-4.75 0.50154,0 1.97751,-1.14983 3.27995,-2.55518 2.06271,-2.2257 3.05587,-2.51583 7.70225,-2.25 4.11651,0.23551 5.26174,0.6476 5.01683,1.80518 -0.17455,0.825 1.95002,-0.72035 4.72127,-3.43411 4.68968,-4.5924 5.43884,-4.95924 10.81736,-5.29698 3.1783,-0.19957 7.80373,0.006 10.27873,0.4573 3.80227,0.69299 4.80992,1.39537 6.49882,4.52997 1.4428,2.67783 3.07531,4.06226 5.86861,4.97682 4.59675,1.50501 5.82781,4.44157 7.44829,17.767 1.75084,14.39742 -1.40508,23.91155 -8.62903,26.01384 -5.02754,1.4631 -23.71782,2.01414 -34.73667,1.02412 z m 32.85442,-5.91411 c 4.29428,-1.70847 7.07254,-8.81225 6.25538,-15.99447 -1.28541,-11.29781 -1.1925,-11.12938 -6.13928,-11.12938 l -4.42054,0 0,4.11385 c 0,5.19398 -3.05074,10.69704 -7.69391,13.87858 -4.92504,3.3747 -15.23982,3.9861 -20.30609,1.20363 -6.11103,-3.35627 -8.82765,-10.9486 -6.60019,-18.44606 l 0.81701,-2.75 -6.04714,0 -6.04713,0 -0.69819,4.65586 c -0.38401,2.56072 -0.29908,8.52071 0.18872,13.24441 0.81834,7.92441 1.09309,8.68675 3.55312,9.85854 6.17352,2.94064 40.66723,3.93951 47.13824,1.36504 z m -29.30444,-12.44954 c 0,-0.17912 -1.2375,-1.41662 -2.75,-2.75 l -2.75,-2.42431 2.42431,2.75 c 2.26589,2.57029 3.07569,3.20859 3.07569,2.42431 z m 20.51911,-8.82072 c 0.66775,-2.97351 -1.37016,-8.65768 -3.83765,-10.704 -1.50068,-1.24453 -1.50548,-1.10411 -0.0612,1.7911 1.57967,3.16652 1.56175,10.41176 -0.036,14.55931 -0.60763,1.57732 -0.33605,1.47165 1.28503,-0.5 1.13053,-1.375 2.32293,-3.69088 2.64979,-5.14641 z m -6.24042,4.25847 c 0.96464,-0.97194 0.82032,-1.07779 -0.68674,-0.50367 -1.70793,0.65065 -1.84873,0.36139 -1.34253,-2.75799 0.7485,-4.61245 -1.73869,-6.49213 -5.04634,-3.81376 -1.49949,1.21421 -1.80894,1.9397 -0.95866,2.24751 1.00547,0.364 1.00658,0.87627 0.006,2.57163 -0.6875,1.16439 -1.25003,2.46069 -1.25006,2.88065 -1.1e-4,1.24702 7.95255,0.71188 9.27876,-0.62437 z m -12.6832,-0.26657 c 0.43043,-0.69644 0.27551,-0.8838 -0.39046,-0.47221 -1.49146,0.92178 -2.81057,-6.16774 -1.40848,-7.56983 0.57594,-0.57594 0.78085,-1.74115 0.45537,-2.58935 -0.39419,-1.02723 -0.19286,-1.29564 0.60292,-0.80382 0.71238,0.44028 1.08378,0.22769 0.91994,-0.52656 -0.15113,-0.69572 0.51272,-1.43716 1.47522,-1.64765 0.9625,-0.2105 1.75,0.12684 1.75,0.74962 0,0.62279 -0.51953,0.81126 -1.15451,0.41882 -0.6991,-0.43207 -0.8837,-0.27535 -0.46797,0.39731 0.37759,0.61096 1.45962,0.85755 2.4045,0.54798 0.94489,-0.30956 0.25117,0.64608 -1.54161,2.12366 -1.79277,1.47757 -2.99918,3.10785 -2.6809,3.62283 0.31828,0.51498 1.00493,0.6729 1.5259,0.35092 0.52097,-0.32197 0.71746,-0.95716 0.43665,-1.41152 -0.52796,-0.85425 2.34563,-2.49399 3.80227,-2.16967 0.45338,0.10094 0.53932,-0.27762 0.19098,-0.84124 -0.34834,-0.56363 -0.12464,-1.02478 0.4971,-1.02478 0.63658,0 0.4188,-0.71165 -0.49849,-1.62894 -0.89592,-0.89592 -1.40098,-2.223 -1.12236,-2.94907 0.34216,-0.89165 -0.0449,-1.12601 -1.19249,-0.72205 -3.1328,1.10277 -6.22313,4.64831 -7.3606,8.44485 -0.9409,3.14047 -0.8514,4.18652 0.53987,6.30989 1.88322,2.87415 2.21244,3.01647 3.21715,1.39081 z m -6.93321,-5.09549 c -0.27741,-0.6875 -0.50438,-0.125 -0.50438,1.25 0,1.375 0.22697,1.9375 0.50438,1.25 0.27741,-0.6875 0.27741,-1.8125 0,-2.5 z m 40.6816,-9.5 c -1.882,-4.54129 -1.31718,-3.95421 -4.59593,-4.77712 -2.47121,-0.62024 -2.74795,-0.42701 -2.74795,1.91871 0,1.65192 -0.55004,2.60841 -1.5,2.60841 -0.93333,0 -1.5,-0.94444 -1.5,-2.5 0,-1.375 0.40916,-2.5 0.90925,-2.5 1.43346,0 -2.65526,-7.68856 -4.45623,-8.37966 -0.88913,-0.34118 -4.84229,-0.61473 -8.78481,-0.60787 l -7.16821,0.0125 -5.75,5.59391 c -3.1625,3.07665 -5.75,5.08747 -5.75,4.46848 0,-0.70111 -0.94256,-0.88886 -2.5,-0.49796 -2.89688,0.72707 -3.40244,-0.96436 -0.75,-2.50926 1.46924,-0.85575 1.26869,-1.0217 -1.25,-1.03438 -3.47858,-0.0175 -4.89122,0.76407 -5.79156,3.20428 -0.35512,0.9625 -1.55979,1.75 -2.67706,1.75 -1.11726,-4e-5 -2.03138,0.61685 -2.03138,1.37083 0,0.99037 2.25196,1.56732 8.11324,2.07861 7.94717,0.69324 8.17285,0.65061 11.02573,-2.08262 1.60188,-1.5347 2.69004,-3.37007 2.41815,-4.07861 -0.27189,-0.70854 -0.13952,-1.28825 0.29416,-1.28825 0.43367,0 2.3054,-1.35429 4.15939,-3.00952 2.87107,-2.56329 3.89862,-2.9145 6.93011,-2.36866 5.89392,1.06124 6.87391,2.73774 2.55922,4.37818 -1.375,0.52277 -2.5,1.41164 -2.5,1.97525 0,1.63469 0.8948,1.22502 4.30423,-1.97062 3.69669,-3.46489 4.01757,-3.53998 6.12434,-1.4332 1.97228,1.97228 2.0005,3.82758 0.0824,5.41943 -0.81894,0.67967 -1.19512,1.71124 -0.83595,2.29239 0.41312,0.66844 0.011,0.81025 -1.09457,0.38601 -1.1707,-0.44924 -1.59623,-0.25775 -1.28905,0.58006 0.25221,0.68787 0.96481,1.13818 1.58356,1.00068 0.61875,-0.1375 1.0125,0.29448 0.875,0.95995 -0.18039,0.87304 1.5984,1.12773 6.38826,0.91468 4.00916,-0.17832 6.90391,0.13458 7.30901,0.79005 1.4328,2.31831 1.37816,0.91035 -0.10339,-2.66468 z m -5.07305,0.14583 c 0.33229,-0.33229 1.1948,-0.36781 1.91667,-0.0789 0.79773,0.31922 0.56078,0.55618 -0.60417,0.60416 -1.05416,0.0434 -1.64479,-0.19293 -1.3125,-0.52522 z m -32.19188,-4.8125 c -0.0434,-1.05416 0.19293,-1.64479 0.52522,-1.3125 0.33229,0.33229 0.36782,1.19479 0.079,1.91667 -0.31923,0.79773 -0.55619,0.56078 -0.60417,-0.60417 z m 28.52522,0.6875 c -0.33229,-0.33229 -0.56864,0.25834 -0.52522,1.3125 0.048,1.16495 0.28494,1.4019 0.60416,0.60417 0.28888,-0.72188 0.25335,-1.58438 -0.0789,-1.91667 z m -6.60417,-3.27083 c 0,-0.55 -0.42344,-1 -0.94098,-1 -0.51754,0 -1.2191,0.45 -1.55902,1 -0.33992,0.55 0.0835,1 0.94098,1 0.85746,0 1.55902,-0.45 1.55902,-1 z m -7.3886,-2.27807 c 0.36462,-0.36462 -0.70494,-0.56371 -2.3768,-0.44244 -1.67185,0.12128 -2.83591,0.55173 -2.58678,0.95655 0.51677,0.83973 3.96712,0.48236 4.96358,-0.51411 z"
       id="path3780-8"
       inkscape:connector-curvature="0"
       sodipodi:nodetypes="sssssssssscsssssssscsssscccsssssscsscscsscccssssccccsssssssssscsscsssssssssssssscssssscscsssssscssssssssssscsssssssccccccccsccccccccsssssssss" />
    <path
       style="fill:#000000"
       d="m 874.27948,373.72371 c 0,-0.94006 2.28997,-3.75256 5.08882,-6.25 2.79885,-2.49744 6.96135,-6.20074 9.25,-8.22955 2.75645,-2.44351 3.82359,-4.02104 3.16117,-4.67308 -1.39147,-1.36966 -6.49999,-0.20775 -6.49999,1.47841 0,0.87047 -1.11236,1.38342 -3,1.38342 -2.53333,0 -3,-0.38889 -3,-2.5 0,-1.4026 -0.57877,-2.5 -1.3185,-2.5 -3.97735,0 -12.26302,-3.53056 -15.81351,-6.73822 -5.89006,-5.32131 -7.95969,-10.01657 -7.7239,-17.52279 0.10779,-3.43144 0.62456,-6.80149 1.14838,-7.48899 0.62726,-0.82325 0.5692,-1.25 -0.17004,-1.25 -0.68885,0 -1.12244,-2.04899 -1.12244,-5.30422 0,-4.1198 0.63957,-6.31271 2.86421,-9.8206 3.66893,-5.78531 6.97998,-8.34631 14.18915,-10.9749 5.55677,-2.0261 5.75801,-2.22018 4.70304,-4.5356 -1.6303,-3.57811 0.01,-4.59728 6.09744,-3.78968 4.11818,0.54629 5.14617,1.05644 5.14617,2.55383 0,1.38411 0.73113,1.87117 2.80883,1.87117 2.89016,0 12.91662,5.48142 16.98423,9.28521 1.26119,1.17939 3.69035,4.98261 5.39812,8.4516 2.69634,5.47703 3.1094,7.39028 3.13806,14.53522 0.0539,13.4439 -3.34907,20.49448 -13.08288,27.10611 l -5.74637,3.90319 5,-0.66217 c 2.75,-0.36419 7.25,-1.11423 10,-1.66676 17.27159,-3.4702 19.08661,-2.07912 9.36923,7.18088 -6.83259,6.511 -10.00301,8.42923 -20.59333,12.45975 -3.72674,1.41835 -8.3509,3.1954 -10.27589,3.949 -1.925,0.7536 -6.3125,1.38994 -9.75,1.41408 -5.246,0.0368 -6.25,-0.23068 -6.25,-1.66531 z m 8.31412,-1.91459 c -0.53434,-1.39247 1.70643,-3.68913 3.68588,-3.7778 0.275,-0.0123 1.69446,-1.33017 3.15435,-2.92854 1.45988,-1.59838 3.14738,-2.60142 3.74999,-2.22899 0.66247,0.40944 1.09565,-0.16023 1.09565,-1.44088 0,-1.42202 -0.41076,-1.87511 -1.25,-1.37879 -2.04953,1.21209 -15.74999,12.47085 -15.74999,12.94303 0,0.23967 1.33588,0.43576 2.96861,0.43576 2.32852,0 2.83426,-0.35013 2.34551,-1.62379 z m 11.1531,-2.25897 c 0.56802,-0.42189 2.91868,-1.30596 5.22369,-1.9646 6.25858,-1.78834 13.21238,-5.1044 10.75908,-5.13068 -1.1275,-0.0121 -2.48527,0.41331 -3.01727,0.94531 -1.95927,1.95927 -13.66187,5.08745 -14.9702,4.00163 -0.92726,-0.76956 -1.21445,-0.57606 -1.10726,0.74602 0.0919,1.13343 -0.4941,1.73438 -1.60526,1.64619 -0.9625,-0.0764 -1.75,0.47497 -1.75,1.22525 0,1.07096 0.58398,1.14211 2.71723,0.33105 1.49447,-0.5682 3.18197,-1.37827 3.74999,-1.80017 z m 8.53277,-8.17626 c 0,-0.58246 -0.45,-0.7809 -1,-0.44098 -0.55,0.33992 -1,0.81648 -1,1.05902 0,0.24254 0.45,0.44098 1,0.44098 0.55,0 1,-0.47656 1,-1.05902 z m 12.5,-3.94098 c -0.33992,-0.55 -0.81648,-1 -1.05902,-1 -0.24254,0 -0.44098,0.45 -0.44098,1 0,0.55 0.47656,1 1.05902,1 0.58246,0 0.7809,-0.45 0.44098,-1 z m -8.5,-2.05855 c 1.925,-0.45497 6.08074,-0.96542 9.23499,-1.13433 3.41184,-0.18271 5.93089,-0.81347 6.21861,-1.55712 0.57142,-1.4769 -1.94761,-1.62369 -6.05438,-0.3528 -1.59457,0.49347 -6.14555,1.4626 -10.11329,2.15363 -3.96774,0.69103 -6.95972,1.66796 -6.64885,2.17097 0.31087,0.503 1.3072,0.60682 2.21407,0.23071 0.90687,-0.37611 3.22385,-1.05609 5.14885,-1.51106 z m 12.34208,0.60948 c 0.37092,-0.96661 0.0755,-1.26467 -0.88726,-0.89522 -0.79384,0.30462 -1.19436,0.95671 -0.89006,1.44907 0.76643,1.24011 1.13272,1.12596 1.77732,-0.55385 z m -21.34208,-1.10995 c 0,-0.24254 -0.45,-0.44098 -1,-0.44098 -0.55,0 -1,0.47656 -1,1.05902 0,0.58246 0.45,0.7809 1,0.44098 0.55,-0.33992 1,-0.81648 1,-1.05902 z m -14.56597,-2.94098 c -0.62239,-3.31763 -0.51185,-3.5 2.12136,-3.5 1.52787,0 2.48009,-0.29786 2.11603,-0.66192 -0.36405,-0.36406 -4.47478,-0.70978 -9.13495,-0.76829 -9.13279,-0.11464 -10.12334,1.09963 -1.70988,2.09608 4.88281,0.57829 5.17342,0.77341 5.17342,3.47342 0,1.57339 0.47039,2.86071 1.04531,2.86071 0.65305,0 0.79892,-1.31343 0.38871,-3.5 z m 11.22911,-1.63218 c -1.02126,-2.7501 -0.92769,-3.26853 0.76704,-4.25 1.06161,-0.6148 3.53661,-2.6494 5.5,-4.52132 1.9634,-1.87193 2.63439,-2.65943 1.49108,-1.75 -1.14331,0.90942 -2.55766,1.6535 -3.14301,1.6535 -0.58535,0 -1.29358,0.59756 -1.57384,1.32791 -0.28026,0.73036 -2.01591,2.07011 -3.85699,2.97723 -1.84108,0.90713 -2.78491,1.65957 -2.09742,1.67209 0.6875,0.0125 1.25,0.83277 1.25,1.82277 0,1.45778 1.70614,4.2 2.61314,4.2 0.11722,0 -0.31028,-1.40948 -0.95,-3.13218 z m -26.53202,-5.20983 c -0.61257,-0.7381 -0.78017,-1.71025 -0.37244,-2.16032 0.40772,-0.45008 0.10123,-0.44666 -0.68111,0.008 -1.00318,0.58248 -2.39881,-0.32817 -4.73512,-3.08968 -1.82198,-2.15398 -3.31939,-3.56844 -3.32757,-3.14365 -0.0226,1.17342 8.09834,9.72766 9.23493,9.72766 0.60115,0 0.55417,-0.53127 -0.11869,-1.34201 z m 5.86889,-1.65799 c 0,-0.55 -0.70156,-1 -1.55902,-1 -0.85746,0 -1.28091,0.45 -0.94099,1 0.33993,0.55 1.04149,1 1.55903,1 0.51754,0 0.94098,-0.45 0.94098,-1 z m 18.44916,-0.33917 c 1.64377,-1.20196 1.66492,-1.40307 0.20638,-1.96276 -1.03545,-0.39734 -2.00615,0.0885 -2.67547,1.33917 -1.21759,2.27509 -0.1561,2.54318 2.46909,0.62359 z m -13.44916,-1.16083 c 0,-0.825 -0.43588,-1.5 -0.96862,-1.5 -0.53273,0 -0.70959,0.675 -0.39301,1.5 0.31659,0.825 0.75246,1.5 0.96862,1.5 0.21615,0 0.39301,-0.675 0.39301,-1.5 z m 6.36163,-1 c 0.31658,-0.825 0.13972,-1.5 -0.39302,-1.5 -0.53273,0 -0.96861,0.675 -0.96861,1.5 0,0.825 0.17686,1.5 0.39301,1.5 0.21616,0 0.65203,-0.675 0.96862,-1.5 z M 869.84934,335.992 c -0.30996,-1.1325 -0.85193,-4.42159 -1.20439,-7.30909 l -0.64084,-5.25 -5.36232,0 c -3.6349,0 -5.35525,0.40268 -5.34036,1.25 0.0318,1.80796 3.60307,9.41466 6.00156,12.78303 1.84527,2.59144 2.31553,2.76961 4.58307,1.73645 1.87976,-0.85647 2.38251,-1.67859 1.96328,-3.21039 z m 11.51673,-18.05833 c -0.0361,-16.82586 0.23083,-21.59293 1.18867,-21.22538 0.67939,0.26071 1.77026,-0.0987 2.42413,-0.79866 0.93219,-0.99791 0.76913,-1.38244 -0.75526,-1.78108 -1.97061,-0.51532 -2.78308,-3.69564 -0.94413,-3.69564 0.55,0 1,-0.675 1,-1.5 0,-0.91622 -0.93305,-1.5 -2.39745,-1.5 -2.05858,0 -2.37661,0.44981 -2.25,3.18237 0.12036,2.59762 -0.31192,3.31429 -2.35255,3.90032 -1.375,0.39487 -1.90536,0.76281 -1.17857,0.81763 3.41646,0.25772 4.17857,2.82241 4.17857,14.06204 l 0,11.10522 -6.52105,-0.1794 c -3.58659,-0.0987 -6.81159,0.11112 -7.16668,0.46621 -0.35509,0.35508 2.57939,0.64561 6.52106,0.64561 l 7.16667,0 0,9.66667 c 0,5.31666 0.25497,9.4117 0.56659,9.10007 0.31163,-0.31162 0.54562,-10.33132 0.52,-22.26598 z m 20.62823,16.59443 c 4.14806,-6.1553 2.81243,-9.09519 -4.13206,-9.09519 -3.08182,0 -3.33254,0.28344 -4.74747,5.367 l -1.49383,5.367 2.57926,1.03766 c 3.85102,1.5493 5.27616,1.05991 7.7941,-2.67647 z m 7.09204,0.37835 c -0.30789,-0.30789 -0.86705,0.24711 -1.24258,1.23333 -0.54268,1.4252 -0.42782,1.54006 0.5598,0.5598 0.68342,-0.67834 0.99067,-1.48524 0.68278,-1.79313 z m -31.01068,-5.34825 c -0.28283,-5.3718 -0.42575,-5.64009 -3.1715,-5.9538 l -2.87532,-0.32852 0.72402,4.82852 c 0.92144,6.14516 2.13279,8.41687 4.08806,7.66656 1.17609,-0.45131 1.46228,-1.89128 1.23474,-6.21276 z m 9.30133,3.12471 c 0.57641,-1.5125 1.29652,-3.9875 1.60025,-5.5 0.49036,-2.44184 0.25809,-2.75 -2.07276,-2.75 -2.51515,0 -2.625,0.23016 -2.625,5.5 0,5.94825 1.40373,7.1945 3.09751,2.75 z m 23.55842,-6.51903 c -0.27393,-0.67703 -0.48137,0.11903 -0.46099,1.76903 0.0204,1.65 0.2445,2.20394 0.49804,1.23097 0.25354,-0.97297 0.23687,-2.32297 -0.0371,-3 z m -2.74189,-3.48097 c -0.0645,-4.31762 -0.27816,-5.1171 -0.85753,-3.20934 -0.71856,2.36607 -0.30867,8.95934 0.55698,8.95934 0.21257,0 0.34782,-2.5875 0.30055,-5.75 z m -13.91405,-0.25 c 1.06947,-0.69115 0.0649,-0.93981 -3.49999,-0.86637 -4.35089,0.0896 -4.61053,0.2021 -2,0.86637 1.65,0.41985 3.22499,0.80972 3.49999,0.86637 0.275,0.0567 1.175,-0.33321 2,-0.86637 z m 8.25,0.33772 c -0.6875,-0.27741 -1.8125,-0.27741 -2.5,0 -0.6875,0.27741 -0.125,0.50439 1.25,0.50439 1.375,0 1.9375,-0.22698 1.25,-0.50439 z m 8.40594,-6.60675 c -0.27393,-0.67703 -0.48137,0.11903 -0.46099,1.76903 0.0204,1.65 0.2445,2.20394 0.49804,1.23097 0.25354,-0.97297 0.23687,-2.32297 -0.0371,-3 z m -6.65594,0.44047 c 0,-1.5557 -1.37185,-4.89967 -3.04857,-7.43105 -2.91999,-4.40838 -3.17562,-4.5582 -6.06125,-3.55226 -2.19418,0.76489 -2.84091,1.4933 -2.38042,2.68105 0.34774,0.89695 0.88799,3.76832 1.20054,6.38082 l 0.56828,4.75 4.86071,0 c 4.66865,0 4.86071,-0.11176 4.86071,-2.82856 z m -26.99999,-3.67144 c 0,-6.65114 -2.30279,-7.67203 -3.94742,-1.75 -1.64361,5.91837 -1.37776,7.25 1.44742,7.25 2.36364,0 2.5,-0.3 2.5,-5.5 z m 12,3.46788 c 0,-2.86095 -2.68917,-8.96788 -3.94897,-8.96788 -0.60731,0 -1.05103,2.32199 -1.05103,5.5 0,5.2 0.13636,5.5 2.5,5.5 1.8465,0 2.5,-0.53119 2.5,-2.03212 z m -20.37388,-4.71788 c 0.90209,-4.91082 0.82402,-5.92749 -0.53494,-6.96615 -0.87516,-0.66888 -2.01481,-1.09017 -2.53257,-0.9362 -1.76046,0.52351 -6.57933,7.23778 -7.50096,10.45129 l -0.91805,3.20106 5.21514,0 5.21513,0 z m 36.3327,-3.41435 c -1.45942,-2.83302 -6.0217,-7.83565 -7.14592,-7.83565 -0.4471,0 -0.81291,0.45 -0.81291,1 0,0.55 0.69231,1 1.53848,1 0.84616,0 2.75866,1.97759 4.25,4.39465 2.81301,4.55913 4.27759,5.53154 2.17035,1.441 z m -39.13553,-7.44486 c 0.52212,0.32269 1.18356,-0.30901 1.46985,-1.4038 0.51427,-1.96658 0.48595,-1.96588 -2.35607,0.0578 -1.58213,1.12658 -3.19256,2.58987 -3.57873,3.25176 -0.38618,0.66189 0.24686,0.37186 1.40674,-0.64452 1.15989,-1.01638 2.53608,-1.58394 3.05821,-1.26124 z m 39.1767,2.2642 c 0,-0.18976 -1.0125,-1.20226 -2.25,-2.25 l -2.25,-1.90499 1.90499,2.25 c 1.79022,2.11444 2.59501,2.70524 2.59501,1.90499 z m -12,-1.55716 c 0,-0.4962 -1.33619,-1.36798 -2.96929,-1.93728 -2.78825,-0.97199 -2.89554,-0.91698 -1.75946,0.90217 1.21687,1.94852 4.72875,2.71726 4.72875,1.03511 z m -19.42426,-2.18151 c 1.8801,-2.07749 1.87768,-2.08003 -0.81365,-0.85378 -1.48465,0.67646 -2.46193,1.61411 -2.17171,2.08369 0.72845,1.17865 0.85153,1.12795 2.98536,-1.22991 z"
       id="path3780-2"
       inkscape:connector-curvature="0"
       sodipodi:nodetypes="sssssssssssssssscsssssscsssssssscscssssssscssssssssssssssssssssssssssssssssssssssssssssssssscsssscccsssssssssssssssssssssssscscsssscssssssssscssscscsssscsssssssscssssssssccsccssssssscsssssccsccssssscssssssssssssssscccssssssssssssssscsssssssscs" />
    <path
       style="fill:#000000"
       d="m 978.48627,96.163863 c -1.48426,-1.00079 -4.38953,-6.75838 -4.38953,-8.69909 0,-2.12247 -1.08297,-1.95719 -6.14793,0.9383 -4.47817,2.56004 -8.30089,3.21289 -9.30449,1.58903 -0.31375,-0.50765 0.53582,-3.97074 1.88792,-7.69574 l 2.45837,-6.77273 -4.01115,-4.35158 c -5.70465,-6.18881 -5.02677,-7.75694 3.35321,-7.75694 l 6.68214,0 6.95653,-6.88939 c 8.53531,-8.45294 10.74338,-8.52971 9.78214,-0.34009 -0.33759,2.87622 -0.33853,6.92345 -0.002,8.99385 0.49068,3.01959 1.12945,3.87823 3.22853,4.33982 7.5032,1.64995 9.11683,2.53244 9.11683,4.98597 0,1.96234 -1.01918,2.90672 -5.25,4.86467 -7.34951,3.40123 -8.73502,4.75633 -8.84968,8.65541 -0.20864,7.09514 -2.35565,10.2659 -5.51079,8.13851 z m 2.61047,-7.12662 c 0,-5.31358 2.60116,-11.29703 4.78706,-11.01168 0.94212,0.12298 3.70324,-0.60655 6.13582,-1.62117 l 4.42288,-1.84478 -6.42288,-2.07225 -6.42288,-2.07225 -0.5,-8.28943 -0.5,-8.28944 -5.9687,6.03944 -5.96869,6.03943 -6.53131,0.009 -6.5313,0.009 3.75,3.55431 c 4.33054,4.10455 4.60478,6.18571 1.76459,13.39132 -2.30105,5.83781 -1.57552,6.24396 4.48541,2.51094 4.56461,-2.81142 8.5,-3.24746 8.5,-0.9418 0,2.46068 2.80142,8.46783 3.94897,8.46783 0.57807,0 1.05103,-1.74504 1.05103,-3.87787 z m -13.27845,-7.81708 c -0.2465,-0.99278 -0.39719,-3.37075 -0.33486,-5.28438 0.0902,-2.76886 0.76909,-3.89195 3.32479,-5.5 1.76631,-1.11137 3.22881,-2.55765 3.25,-3.21396 0.0454,-1.40629 3.92525,-4.30671 5.76103,-4.30671 1.61611,0 1.6723,4.20519 0.0775,5.8 -0.93333,0.93333 -0.93333,1.2 0,1.2 1.58094,0 1.54465,4.25281 -0.05,5.85925 -1.00272,1.01014 -0.87201,1.11524 0.66074,0.53133 1.6409,-0.62512 1.81936,-0.38635 1.26365,1.69075 -0.35589,1.33027 -0.65323,2.98117 -0.66074,3.66867 -0.02,1.83465 -3.09338,1.52323 -4.54386,-0.46043 -1.29586,-1.77219 -1.15974,-1.79864 -7.63493,1.48339 -0.36583,0.18543 -0.86682,-0.47514 -1.11332,-1.46791 z m 4.28209,-3.13717 c -0.55886,-0.18628 -0.70192,-0.86276 -0.31791,-1.50329 0.384,-0.64052 -0.0632,-0.54699 -0.99377,0.20786 -0.93058,0.75484 -1.69196,1.99615 -1.69196,2.75847 0,1.13797 0.35971,1.16139 2.00987,0.13085 1.10543,-0.69036 1.55262,-1.4076 0.99377,-1.59389 z"
       id="path3780-45"
       inkscape:connector-curvature="0"
       sodipodi:nodetypes="csssscsscsscssssccssscccccccccssssssssssssssssscssscssssc" />
    <path
       style="fill:#000000"
       d="m 964.26646,396.7593 c -1.54608,-4.02904 0.71375,-8.0936 9.0036,-16.19397 4.58781,-4.48295 8.34147,-8.42903 8.34147,-8.76906 0,-0.34003 -1.07424,-0.34862 -2.38719,-0.0191 -2.75635,0.6918 -5.61281,-2.49428 -5.61281,-6.26049 0,-2.92474 4.19635,-5.71907 7.38623,-4.91846 1.92686,0.48361 2.51493,0.14787 2.97889,-1.70069 0.59242,-2.36041 -0.6382,-8.03537 -2.30766,-10.64164 -0.80389,-1.25498 -1.21347,-1.20855 -2.91395,0.33036 -1.08822,0.98483 -3.02819,1.64193 -4.31104,1.46024 -1.99949,-0.2832 -2.33247,-0.9014 -2.33247,-4.33036 0,-3.3868 0.34493,-4.04899 2.25,-4.31955 1.94501,-0.27624 2.25,-0.91752 2.25,-4.73095 0,-3.8715 -0.30597,-4.48819 -2.5,-5.03886 -1.75083,-0.43943 -2.5,-1.30967 -2.5,-2.90404 0,-1.33972 -1.0546,-2.96758 -2.5627,-3.95572 -6.41387,-4.20252 -12.4373,-18.96317 -12.4373,-30.47807 0,-12.39103 5.1898,-21.07977 13.52497,-22.64346 6.0807,-1.14075 13.85916,-0.004 17.445,2.54928 6.69978,4.77066 10.84452,20.7583 8.15281,31.44805 -1.38874,5.51517 -7.22957,14.94197 -10.64434,17.17942 -2.14826,1.40759 -2.3863,2.11795 -1.84468,5.50502 0.41373,2.58732 0.24439,3.88889 -0.50595,3.88889 -0.66786,0 -1.12781,1.81208 -1.12781,4.4433 0,3.28417 0.51291,4.80255 1.96615,5.82043 4.61448,3.23212 6.4164,12.79385 4.07435,21.62025 -0.52772,1.98881 -1.23089,5.41602 -1.56259,7.61602 -0.50008,3.31671 -1.81912,5.15105 -7.72173,10.73834 -6.14544,5.81715 -7.19638,7.32096 -7.6874,11 -0.49104,3.67917 -0.92719,4.30322 -3.19103,4.56576 -1.66774,0.1934 -2.84086,-0.26559 -3.22282,-1.26094 z m 3.00735,-3.79316 c -0.27741,-0.6875 -0.50439,-0.125 -0.50439,1.25 0,1.375 0.22698,1.9375 0.50439,1.25 0.27741,-0.6875 0.27741,-1.8125 0,-2.5 z m 17.83064,-28.73855 c 0.35034,-0.56686 -0.0511,-0.7345 -0.94098,-0.39301 -1.73242,0.66479 -2.04939,1.38156 -0.61096,1.38156 0.51754,0 1.21592,-0.44485 1.55194,-0.98855 z m -9.85403,-17.65382 c -0.0764,-0.90331 0.31111,-1.72831 0.86111,-1.83333 0.55,-0.10503 0.6597,-0.003 0.24377,0.22778 -0.41593,0.23031 -0.51201,0.81389 -0.21353,1.29686 0.6193,1.00204 4.34512,-2.18314 3.78903,-3.23921 -0.58579,-1.11247 -6.31927,1.26596 -6.31927,2.62143 0,1.07693 0.90342,2.56884 1.55556,2.56884 0.12222,0 0.15972,-0.73907 0.0833,-1.64237 z m 4.85894,-19.3675 c -0.57867,-2.63467 -0.11607,-3.53955 3.71105,-7.25908 6.83436,-6.64224 9.79955,-13.53826 9.75096,-22.67739 -0.0658,-12.38086 -5.08823,-21.00021 -13.70984,-23.5286 -1.75255,-0.51395 -2.24661,-0.25803 -2.23469,1.15755 0.0115,1.36644 0.22359,1.48889 0.85469,0.4935 0.68144,-1.0748 1.13549,-1.02776 2.41325,0.25 0.86564,0.86564 2.05604,1.57389 2.64532,1.57389 0.58929,0 1.07143,0.675 1.07143,1.5 0,0.825 -0.675,1.5 -1.5,1.5 -2.35574,0 -1.75393,1.95296 0.91443,2.96747 2.58309,0.98208 4.17624,4.26778 2.99561,6.17809 -0.40874,0.66135 -0.28617,0.89592 0.28401,0.54353 1.15828,-0.71586 5.30595,2.82948 5.30595,4.53541 0,0.63063 -1.0125,2.26066 -2.25,3.6223 -1.2375,1.36164 -1.74493,2.18707 -1.12762,1.83431 1.50892,-0.86229 2.5444,5.75002 1.38003,8.81255 -0.49293,1.29651 -1.89323,2.49977 -3.11852,2.67973 -2.95364,0.43379 -6.60352,6.70498 -4.6981,8.07224 0.97521,0.69978 0.87229,0.80147 -0.399,0.3942 -1.08034,-0.34608 -2.42643,0.35788 -3.64392,1.90567 -2.19784,2.7941 -3.94173,3.14224 -4.78124,0.9545 -0.31659,-0.825 -1.35912,-1.5 -2.31674,-1.5 -1.06404,0 -2.44259,-1.55554 -3.54489,-4 -0.99206,-2.2 -2.18541,-4 -2.65187,-4 -0.46647,0 -0.75882,-0.3375 -0.64967,-0.75 0.56143,-2.12167 -1.43748,-10.03795 -2.49543,-9.88268 -1.25224,0.18379 -1.70303,0.89628 -1.70303,2.6917 0,0.58246 0.41891,0.80012 0.9309,0.48369 1.3687,-0.84591 2.46939,1.457 1.26976,2.65663 -2.03069,2.03069 5.81793,14.03701 10.05527,15.38189 1.39419,0.4425 1.8133,1.27628 1.49046,2.96511 -0.3655,1.91198 0.0353,2.4244 2.15224,2.75175 1.43075,0.22123 2.97462,0.46967 3.43083,0.55208 0.4562,0.0824 0.53197,-1.20461 0.16837,-2.86004 z m -8.49783,-10.36769 c 0,-0.20765 -0.7875,-0.99515 -1.75,-1.75 -1.58606,-1.24387 -1.62143,-1.2085 -0.37756,0.37756 1.30637,1.66575 2.12756,2.19548 2.12756,1.37244 z m 3.73628,-3.77152 c 0.11422,-1.5163 -0.1508,-1.8364 -0.90007,-1.08713 -0.58407,0.58407 -0.7596,1.55115 -0.39006,2.14908 0.94006,1.52105 1.10583,1.3846 1.29013,-1.06195 z m 5.26372,-4.06521 c 0,-0.98214 -0.15526,-1.78571 -0.34501,-1.78571 -0.18976,0 -1.07224,0.80357 -1.96106,1.78571 -1.49921,1.65661 -1.47427,1.78572 0.34501,1.78572 1.21595,0 1.96106,-0.67849 1.96106,-1.78572 z m 7.7516,-1.28097 c 0.41162,-0.45396 0.0734,-0.49487 -0.7516,-0.0909 -0.825,0.40397 -0.62649,0.0261 0.44113,-0.83967 1.88943,-1.53223 1.87611,-1.57375 -0.5,-1.55885 -2.7487,0.0172 -4.33299,0.92146 -4.66755,2.66396 -0.25207,1.31285 4.25972,1.16911 5.47802,-0.17454 z m -20.7516,-0.50474 c 0,-0.55 -0.45,-1 -1,-1 -0.55,0 -1,0.45 -1,1 0,0.55 0.45,1 1,1 0.55,0 1,-0.45 1,-1 z m 19,-6.53862 c 0,-0.63244 -3.37648,0.90007 -5.59316,2.53862 -4.20345,3.10714 -3.34575,3.89111 1.02779,0.93944 2.51095,-1.69462 4.56537,-3.25975 4.56537,-3.47806 z m -7.61309,1.35564 c -0.28881,-0.4673 -0.94401,-0.59075 -1.45601,-0.27431 -1.30838,0.80862 -1.16106,1.12396 0.52511,1.12396 0.80081,0 1.21971,-0.38234 0.9309,-0.84965 z m -4.95834,-1.38845 c 2.03732,-2.03732 1.98676,-2.52145 -0.17857,-1.70995 -1.50166,0.56277 -1.5645,0.42757 -0.44285,-0.95271 1.13479,-1.39646 1.03384,-1.53709 -0.76558,-1.06653 -2.52818,0.66113 -3.4006,1.92262 -2.66157,3.84851 0.72192,1.88128 2.08824,1.84101 4.04857,-0.11932 z m -11.82857,-2.86398 c 0,-1.88948 -0.27655,-3.2645 -0.61455,-3.0556 -0.96919,0.599 0.81408,-12.2659 2.01,-14.50048 0.5912,-1.10468 0.84323,-2.00851 0.56006,-2.00851 -0.28318,0 -1.43643,1.80642 -2.56279,4.01426 -3.09327,6.06331 -3.48542,18.98574 -0.57614,18.98574 0.68158,0 1.18342,-1.45683 1.18342,-3.43541 z m 4.84721,1.35 c -0.32197,-0.52097 -1.01165,-0.68378 -1.53262,-0.3618 -0.52097,0.32197 -0.68378,1.01165 -0.3618,1.53262 0.32197,0.52097 1.01165,0.68378 1.53262,0.3618 0.52097,-0.32197 0.68378,-1.01165 0.3618,-1.53262 z m 15.52137,-3.18764 c 0.0173,-0.42518 -1.09358,-0.0359 -2.46858,0.86501 -1.375,0.90093 -2.5,2.05731 -2.5,2.56973 0,1.1002 4.92256,-2.30274 4.96858,-3.43474 z m 1.99962,-6.16808 c 0.0175,-0.51762 -0.62889,-0.0676 -1.4364,1 -0.8075,1.06762 -1.4825,2.36464 -1.5,2.88226 -0.0175,0.51762 0.62889,0.0676 1.4364,-1 0.8075,-1.06762 1.4825,-2.36464 1.5,-2.88226 z m -17.9682,2.56357 c 0,-0.48265 -0.63887,-1.40776 -1.41971,-2.0558 -1.14602,-0.95112 -1.35355,-0.83015 -1.07651,0.62755 0.18876,0.9932 0.37763,1.91831 0.41971,2.05581 0.21187,0.6923 2.07651,0.12877 2.07651,-0.62756 z m 15.38726,-5.52733 c 0.887,0.34038 1.61274,0.16028 1.61274,-0.40022 0,-0.5605 -1.82811,-1.32795 -4.06247,-1.70544 -3.15041,-0.53226 -4.49667,-0.29341 -5.99647,1.06389 -1.47652,1.33623 -1.66856,2.07008 -0.81186,3.10234 0.93025,1.12088 1.6799,1.00739 4.38373,-0.66367 1.79387,-1.10867 3.98732,-1.73728 4.87433,-1.3969 z m -10.81997,-3.36115 c -0.90636,-0.90637 -3.69481,0.7507 -3.04164,1.80754 0.44804,0.72494 1.10197,0.68251 2.08754,-0.13544 0.78933,-0.65508 1.21867,-1.40753 0.9541,-1.6721 z m 6.09938,-4.68997 c 0,-0.80081 -0.38234,-1.21971 -0.84965,-0.9309 -0.4673,0.28881 -0.59075,0.94401 -0.27431,1.45601 0.80862,1.30838 1.12396,1.16106 1.12396,-0.52511 z m 5.33333,0.063 c 0,-0.21616 -0.69837,-0.661 -1.55194,-0.98855 -0.88992,-0.34149 -1.29132,-0.17385 -0.94098,0.39301 0.58726,0.95021 2.49292,1.40545 2.49292,0.59554 z m -7.23242,-1.96335 c 1.94838,-1.20416 1.43447,-3.64364 -0.76758,-3.64364 -1.11111,0 -2,0.66667 -2,1.5 0,0.825 -0.675,1.5 -1.5,1.5 -0.825,0 -1.5,-0.45381 -1.5,-1.00847 0,-0.59594 -0.83118,-0.49368 -2.03189,0.25 -1.95833,1.21291 -1.93118,1.27793 0.75,1.79594 3.52063,0.6802 5.48965,0.5702 7.04947,-0.39383 z"
       id="path3780-5"
       inkscape:connector-curvature="0"
       sodipodi:nodetypes="sssssssssssssssssssssssssssssssssssscssccccsssccssssssssssssssssssscssssssssssssscssssssssssssssssscssssssssssssssssssssssssssssccccccsscscscsssssssssssssssssssssssssssssssss" />
    <path
       style="fill:#000000"
       d="m 1059.2897,372.00672 c -5.9583,-1.1493 -9.7068,-2.92166 -15.1978,-7.18586 -8.3568,-6.48964 -12.3048,-14.6226 -12.2024,-25.13715 0.1655,-16.98905 11.8732,-32.56047 27.843,-37.03175 9.867,-2.76259 21.7164,0.40257 29.9623,8.00338 8.5193,7.85282 12.2859,20.66186 9.7126,33.03006 -1.205,5.79176 -7.89,19.95056 -9.4194,19.95056 -0.5008,0 -2.5503,1.25727 -4.5545,2.79392 -2.0041,1.53666 -4.9939,3.37915 -6.6439,4.09441 -3.1719,1.37505 -15.2833,2.29578 -19.4999,1.48243 z m 2,-3.87076 c 0,-0.825 -0.6892,-1.5 -1.5314,-1.5 -0.8423,0 -1.7713,-0.62527 -2.0646,-1.38949 -0.3257,-0.84875 -1.3479,-1.17646 -2.6265,-0.84207 -1.7615,0.46062 -2.0019,0.19747 -1.5162,-1.65969 0.4777,-1.82691 0.2035,-2.15557 -1.5921,-1.90793 -1.6785,0.2315 -2.1522,-0.20078 -2.0941,-1.91094 0.041,-1.21557 -0.4703,-2.4194 -1.1368,-2.67518 -0.7571,-0.29051 -1.0376,0.20157 -0.7475,1.31104 0.2555,0.97686 -0.2561,2.49667 -1.1368,3.37737 -1.4683,1.46834 -1.4333,1.69115 0.4224,2.68425 1.3641,0.73006 2.0236,0.74565 2.0236,0.0478 0,-0.56935 0.675,-1.03518 1.5,-1.03518 1.8104,0 2.0122,2.64943 0.25,3.28213 -0.6875,0.24684 1,1.153 3.75,2.01368 6.3685,1.99322 6.5,1.99735 6.5,0.20419 z m 13.25,0.83772 c -0.6875,-0.27741 -1.8125,-0.27741 -2.5,0 -0.6875,0.27741 -0.125,0.50439 1.25,0.50439 1.375,0 1.9375,-0.22698 1.25,-0.50439 z m 0.6765,-3.46196 c 2.1058,-0.73409 2.8849,-1.46428 2.2451,-2.1041 -1.3092,-1.30925 -8.7388,0.002 -10.2365,1.80651 -0.9751,1.17489 -0.6636,1.42183 1.7932,1.42183 1.6353,0 4.4245,-0.50591 6.1982,-1.12424 z m -7.9265,-4.44385 c 0,-1.41495 -2.7978,0.0388 -4.4619,2.31844 l -1.9618,2.68749 3.2118,-2.28701 c 1.7665,-1.25786 3.2119,-2.48138 3.2119,-2.71892 z m -7.3378,0.31809 c -0.2774,-0.6875 -0.5043,-0.125 -0.5043,1.25 0,1.375 0.2269,1.9375 0.5043,1.25 0.2775,-0.6875 0.2775,-1.8125 0,-2.5 z m 30.2968,-3.1179 c 0.9028,-1.3993 0.9188,-2.15191 0.064,-3 -0.8528,-0.84586 -0.9729,-0.68964 -0.4751,0.6179 0.4659,1.22388 0.1757,1.75 -0.9655,1.75 -0.8975,0 -2.0595,-1.125 -2.5823,-2.5 -1.2261,-3.22502 -1.9968,-3.21282 -1.4101,0.0223 0.5334,2.94179 -1.8856,4.39861 -4.5455,2.73747 -1.3147,-0.82103 -1.9543,-0.63374 -2.876,0.84218 -1.01,1.61743 -0.9005,1.89802 0.7414,1.89802 3.0337,0 5.0902,1.084 5.0902,2.68305 0,1.0935 0.7355,0.87442 2.877,-0.85699 1.5823,-1.27933 3.4193,-3.16661 4.0821,-4.19396 z m -19.7715,2.68479 c -0.7219,-0.28887 -1.5844,-0.25335 -1.9167,0.0789 -0.3323,0.33229 0.2583,0.56864 1.3125,0.52522 1.1649,-0.048 1.4019,-0.28494 0.6042,-0.60416 z m -9.5399,-4.12384 c -1.965,-1.96498 -2.9441,-2.22806 -6.0933,-1.63726 -2.3138,0.43407 -3.2818,0.99461 -2.5251,1.46225 0.6748,0.4171 0.958,1.19363 0.6292,1.72563 -0.3595,0.58166 1.5805,0.93205 4.8662,0.87891 l 5.4641,-0.0884 -2.3411,-2.34116 z m 15.2726,-1.34763 c 2.1697,-3.8838 0.194,-5.84542 -5.8877,-5.84542 -3.449,0 -5.2096,0.53813 -6.5284,1.99548 -1.7531,1.93715 -1.7252,2.07027 0.9546,4.55383 3.7512,3.47654 9.3169,3.13472 11.4615,-0.70389 z m -32.5626,-2.22161 c -0.9504,-1.9931 -2.3355,-3.62381 -3.078,-3.62381 -1.0781,0 -1.1156,0.45313 -0.1863,2.25 1.4458,2.79559 4.0986,5.89138 4.6101,5.37994 0.2102,-0.21028 -0.3953,-2.01304 -1.3458,-4.00613 z m 39.6423,-0.35707 c 0,-1.00767 0.6565,-1.32834 2,-0.97699 1.3281,0.34729 2,0.0307 2,-0.94239 0,-0.80597 0.45,-1.18728 1,-0.84736 0.55,0.33992 1,-0.0835 1,-0.94098 0,-2.03025 -0.4896,-1.97383 -5.0335,0.58 -4.1283,2.32025 -6.1627,5.98657 -2.8397,5.11758 1.0303,-0.26943 1.8732,-1.16486 1.8732,-1.98986 z m -28.475,-0.37732 c 5.9522,-1.4988 6.5969,-3.83935 2.3878,-8.66971 -5.2501,-6.02499 -7.9127,-6.31461 -7.9127,-0.86069 0,1.78254 -0.4154,3.66848 -0.9231,4.19098 -1.1212,1.15389 -0.2206,6.45 1.0968,6.45 0.5174,0 2.9254,-0.49976 5.3512,-1.11058 z m -14.2068,-6.32827 c 1.75,0.37956 3.5125,1.19608 3.9166,1.81448 0.5354,0.81948 0.7388,0.80759 0.75,-0.0438 0.01,-0.64252 0.2972,-1.90288 0.6417,-2.8008 0.5196,-1.354 0.1357,-1.52479 -2.25,-1.0009 -1.8419,0.40449 -2.4167,0.30532 -1.5981,-0.27576 0.957,-0.6793 0.6517,-1.19298 -1.2142,-2.04318 -1.5609,-0.71116 -2.715,-0.776 -3.0874,-0.17344 -0.9147,1.47989 -2.4767,1.14076 -2.4767,-0.53775 0,-0.825 0.6181,-1.5 1.3737,-1.5 1.0182,0 1.2024,-0.83726 0.7118,-3.23601 -0.4562,-2.23092 -0.1927,-3.7839 0.8486,-5 2.4207,-2.82718 4.0659,-2.14862 4.0659,1.67699 0,1.89254 0.4512,3.71985 1.0027,4.06069 0.6668,0.41211 0.655,1.26937 -0.035,2.55902 -0.7145,1.33507 -0.7154,1.93931 0,1.93931 0.5693,0 1.0351,-0.68465 1.0351,-1.52144 0,-0.83679 1.1232,-2.03319 2.496,-2.65867 2.3445,-1.06824 2.386,-1.21426 0.6839,-2.4065 -0.9967,-0.69809 -2.4106,-3.08238 -3.1419,-5.29843 -1.1336,-3.43465 -1.5974,-3.88595 -3.1433,-3.05856 -0.9975,0.53384 -2.3594,0.85203 -3.0265,0.7071 -3.0501,-0.66263 -4.8283,13.34275 -2.6182,20.62048 l 1.25,4.11602 0.3182,-3.31448 c 0.3036,-3.16229 0.4643,-3.2828 3.5,-2.62437 z m 53.0587,-1.36383 c 1.6308,-6.99031 0.489,-7.69285 -1.2539,-0.7715 -1.1547,4.58595 -1.4802,8.26478 -0.6585,7.44308 0.2554,-0.25543 1.116,-3.25764 1.9124,-6.67158 z m -4.9174,-2.89174 c 0.5902,-2.35141 0.1411,-3.28356 -2.944,-6.11077 -2.9362,-2.6909 -3.9183,-3.10536 -5.0779,-2.14302 -0.7906,0.65621 -1.4376,2.05245 -1.4376,3.10277 0,1.05032 -0.649,3.46293 -1.4422,5.36134 -1.349,3.22885 -1.3074,3.54606 0.6456,4.91396 1.8598,1.30266 2.4956,1.25422 5.8237,-0.44366 2.4702,-1.26021 3.9719,-2.84603 4.4324,-4.68062 z m -13.7323,0.7293 c 0.604,-2.49419 1.3799,-5.24223 1.7242,-6.10676 0.4238,-1.06421 -0.194,-1.94546 -1.9127,-2.72856 -2.1772,-0.99201 -2.5555,-0.91059 -2.6571,0.57188 -0.1956,2.85314 0.248,4.70888 1.2101,5.06189 2.656,0.97464 -1.8622,5.16667 -5.5688,5.16667 -1.7422,0 -4.153,-3.40088 -4.8377,-6.82443 -0.7054,-3.52709 1.0065,-4.34103 3.6244,-1.72319 0.7988,0.79881 1.7252,1.17957 2.0586,0.84612 0.7487,-0.7487 -0.3487,-8.49433 -1.3622,-9.61472 -0.4061,-0.44892 -2.4108,1.46203 -4.4548,4.24656 -2.044,2.78453 -4.3268,5.40438 -5.0729,5.8219 -1.0442,0.58439 -0.5391,1.81898 2.1943,5.36352 3.4363,4.45597 3.7185,4.60198 8.7536,4.5292 l 5.2028,-0.0752 z m -27.7271,-0.97586 c 0,-0.51754 -0.45,-1.2191 -1,-1.55902 -0.55,-0.33992 -1,0.0835 -1,0.94098 0,0.85746 0.45,1.55902 1,1.55902 0.55,0 1,-0.42344 1,-0.94098 z m 48.7499,-6.04537 c 1.5849,-0.0173 1.6248,-5.03085 0.081,-10.18326 -0.7074,-2.36139 -1.4571,-3.43529 -1.899,-2.7203 -0.8093,1.30948 -3.932,0.50804 -3.932,-1.00915 0,-0.52901 0.88,-1.10564 1.9557,-1.28139 1.9298,-0.31534 1.9304,-0.35252 0.04,-2.81955 -1.8469,-2.41012 -1.895,-2.4191 -1.3391,-0.25 0.4855,1.89398 0.175,2.25 -1.9624,2.25 -2.0526,0 -2.7704,0.71842 -3.7469,3.75 -0.6643,2.0625 -1.6634,4.32337 -2.2201,5.02417 -0.5567,0.70079 -0.8355,1.39948 -0.6196,1.55266 0.2158,0.15317 1.7425,1.11313 3.3925,2.13324 1.65,1.02012 3.3826,2.4996 3.8502,3.28775 0.5216,0.879 1.6814,1.21002 3,0.85624 1.1824,-0.31721 2.7123,-0.5829 3.3998,-0.59041 z m -5.0263,-4.26365 c -3.1569,-3.001 -3.9129,-5.75 -1.5813,-5.75 0.5366,0 0.7235,0.40803 0.4153,0.90674 -0.3082,0.49871 0.4075,0.65363 1.5905,0.34426 2.5307,-0.66179 4.8518,1.94077 4.8518,5.44013 0,3.12574 -1.2288,2.90655 -5.2763,-0.94113 z m -51.1195,1.52083 c -0.3323,-0.33229 -0.5686,0.25834 -0.5252,1.3125 0.048,1.16495 0.285,1.4019 0.6042,0.60417 0.2888,-0.72188 0.2533,-1.58438 -0.079,-1.91667 z m 20.2743,-2.6132 c 4.5681,-5.92114 5.2261,-8.65763 2.0817,-8.65763 -1.1219,0 -3.7841,-0.88989 -5.9161,-1.97754 l -3.8763,-1.97753 -3.0839,3.51233 c -3.3391,3.80306 -3.6056,4.94013 -2.0914,8.92271 0.8178,2.15099 5.5188,5.31787 8.136,5.48089 0.3456,0.0215 2.4831,-2.36493 4.75,-5.30323 z m 12.1216,0.96481 c 0,-0.20765 -0.7875,-0.99515 -1.75,-1.75 -1.5861,-1.24387 -1.6215,-1.2085 -0.3776,0.37756 1.3064,1.66575 2.1276,2.19548 2.1276,1.37244 z m 9.073,-5.7657 c 2.6272,-5.14963 2.4576,-6.21458 -1.4658,-9.2071 l -3.3926,-2.58773 -4.1073,2.97532 c -2.259,1.63642 -4.1073,3.74296 -4.1073,4.68119 0,0.93823 1.8814,3.62292 4.1809,5.96598 4.7166,4.80584 5.6007,4.62413 8.8921,-1.82766 z m -32.073,-10.73092 c 0,-0.275 -1.35,0.79338 -3,2.37418 -1.65,1.5808 -3,3.09918 -3,3.37418 0,0.275 1.35,-0.79338 3,-2.37418 1.65,-1.5808 3,-3.09918 3,-3.37418 z m 17.6617,2.55767 2.1617,-2.28196 -5.6617,0.003 c -3.114,0.002 -4.8412,0.17589 -3.8383,0.3867 1.0426,0.21915 1.6016,0.96135 1.3054,1.73317 -0.4367,1.13814 0.4721,1.76949 3.3712,2.34191 0.275,0.0543 1.4727,-0.92815 2.6617,-2.18323 z m -10.0805,-3.43349 c -0.3177,-1.5125 -0.1354,-3.425 0.4052,-4.25 0.6571,-1.0027 0.988,-1.08559 0.9983,-0.25 0.01,0.6875 0.4653,1.25 1.0153,1.25 0.55,0 1,-0.57685 1,-1.28189 0,-0.70504 1.1773,-1.37933 2.6162,-1.49842 2.135,-0.1767 2.5237,0.13729 2.1132,1.70708 -0.3528,1.34906 -0.089,1.76465 0.8837,1.39142 0.7628,-0.29269 1.3869,-0.93402 1.3869,-1.42518 0,-1.34036 4.4088,-1.07439 5.9176,0.35699 1.0893,1.03344 1.0931,0.87748 0.022,-0.90022 -0.7699,-1.27749 -1.8989,-1.91881 -2.7817,-1.58006 -0.9633,0.36965 -1.2315,0.15872 -0.7627,-0.59978 0.3977,-0.64347 1.709,-1.22214 2.914,-1.28594 1.6098,-0.0852 1.7407,-0.23463 0.4934,-0.56323 -0.9337,-0.24598 -2.611,0.0416 -3.7275,0.63914 -1.723,0.92211 -1.9314,0.82982 -1.3788,-0.61038 0.5046,-1.31485 0.256,-1.54513 -1.1043,-1.02314 -0.9655,0.37049 -2.9561,0.6805 -4.4236,0.68892 -1.9147,0.011 -2.2779,0.26252 -1.2861,0.89068 1.0943,0.69303 0.9596,1.00947 -0.6464,1.51921 -1.1157,0.35411 -2.4127,0.57502 -2.8821,0.4909 -2.4239,-0.43431 -3.1772,0.43677 -3.5242,4.07536 -0.348,3.64885 0.1901,4.70973 2.5001,4.92959 0.4562,0.0434 0.5694,-1.15855 0.2517,-2.67105 z"
       id="path3780-1"
       inkscape:connector-curvature="0"
       sodipodi:nodetypes="sssssssccscscccscccscssssccsssssscsssscsscscccccsccscsscccccccccscssccccscsccssccscssssssssssssccccscccssccsccssscccsccscccccccccsccscscsccssccsscsscsssssscccscccscscsccccsssssssccsssscsscsscsscccssscssssscccscscccccssscssccsscsscsscscsccc" />
    <path
       style="fill:#000000"
       d="m 1031.843,110.90497 c -0.825,-0.53315 -2.557,-0.97626 -3.8489,-0.98469 -6.3899,-0.0417 -13.1225,-6.85625 -16.1368,-16.333334 -1.9548,-6.14622 -1.5496,-15.07991 0.8611,-18.98043 2.6369,-4.26653 5.8262,-5.70154 12.6716,-5.70154 2.9991,0 5.453,-0.29797 5.453,-0.66215 0,-0.36418 -1.1616,-2.64426 -2.5814,-5.06685 -3.7618,-6.4191 -2.1571,-8.94839 3.7289,-5.87733 2.5155,1.31251 2.674,1.24989 3.1806,-1.25616 0.6379,-3.15595 7.2483,-11.13751 9.2241,-11.13751 3.4527,0 6.4378,11.75477 4.6392,18.26861 -0.996,3.60724 -0.9303,3.75076 2.6436,5.7829 6.0854,3.46012 7.6649,6.43753 7.6649,14.44848 0,5.43889 -0.576,8.22795 -2.583,12.50609 -3.7549,8.004224 -7.6237,11.406304 -15.7928,13.887584 -8.0315,2.43951 -7.2145,2.34044 -9.1241,1.10633 z m 4.2499,-2.66228 c -2.0065,-0.80966 -1.4384,-3.33772 0.75,-3.33772 1.1,0 2,0.45 2,1 0,2.29456 5.2216,0.8213 8.7647,-2.47294 2.7697,-2.57513 3.2829,-3.479944 1.9853,-3.500004 -2.2835,-0.0353 -2.2259,-2.2177 0.1354,-5.13384 1.6986,-2.09763 2.0702,-2.18293 3.75,-0.86079 1.7049,1.34184 1.7502,1.3214 0.5285,-0.23862 -1.4579,-1.86186 -0.8126,-3.79381 1.2673,-3.79381 1.6569,0 3.0623,-7.98096 1.6149,-9.17057 -0.5661,-0.46535 -0.8296,-0.56377 -0.5853,-0.21871 0.451,0.63726 -1.8696,3.38928 -2.858,3.38928 -0.297,0 -0.2574,-0.7875 0.088,-1.75 0.3454,-0.9625 0.2975,-1.45373 -0.1064,-1.09163 -0.4039,0.36211 -0.8257,1.26211 -0.9374,2 -0.1117,0.7379 -0.5545,1.90413 -0.984,2.59163 -0.4402,0.7047 -0.3189,1.25 0.2781,1.25 0.5825,0 1.059,-0.45 1.059,-1 0,-0.55 0.675,-1 1.5,-1 0.825,0 1.5,0.675 1.5,1.5 0,0.825 -0.7015,1.5 -1.559,1.5 -0.8574,0 -1.3009,0.41761 -0.9855,0.92801 0.3155,0.5104 -0.3329,1.21572 -1.4409,1.56738 -1.108,0.35166 -2.0146,1.23158 -2.0146,1.95537 0,0.72379 -0.9614,1.56741 -2.1365,1.87471 -1.8066,0.47243 -2.0381,1.05136 -1.4987,3.74819 0.5038,2.518904 0.1849,3.582304 -1.5165,5.057914 -1.1848,1.02764 -2.9854,1.86843 -4.0013,1.86843 -1.5136,0 -1.847,-0.7871 -1.847,-4.36133 0,-4.112854 -0.1424,-4.334104 -2.5,-3.883424 -1.375,0.26285 -2.5,1.05832 -2.5,1.76771 0,0.79747 0.7635,1.09016 2,0.76679 2.9627,-0.77476 2.5757,2.490834 -0.459,3.873544 -1.9692,0.89722 -2.9652,0.78876 -5,-0.54449 -1.3975,-0.9157 -2.5409,-2.33557 -2.5409,-3.155274 0,-1.29933 -0.425,-1.31282 -3.3152,-0.10521 -5.3534,2.236814 -7.7902,-0.92669 -5.2016,-6.75293 0.5788,-1.3028 0.3715,-2.23989 -0.6637,-3 -1.6661,-1.22344 -2.2215,-7.2389 -0.7522,-8.14703 0.513,-0.31701 0.9327,-1.659 0.9327,-2.98219 0,-2.63158 2.5275,-4.4673 6.1842,-4.49148 1.2737,-0.008 2.9908,-0.47209 3.8158,-1.03038 1.1129,-0.7531 0.7903,-0.85021 -1.25,-0.37627 -1.7302,0.40189 -2.75,0.22774 -2.75,-0.46963 0,-0.60962 -0.6539,-1.1084 -1.453,-1.1084 -3.1827,0 -6.8049,2.58516 -8.6272,6.15722 -2.3113,4.53041 -2.3384,4.84277 -0.4198,4.84277 0.825,0 1.5,0.68913 1.5,1.53139 0,0.84226 -0.675,1.79041 -1.5,2.10699 -2.0392,0.78252 -1.8842,2.05231 0.5,4.09365 2.1921,1.87693 2.5926,3.26797 0.9409,3.26797 -0.5824,0 -0.7379,-0.51953 -0.3454,-1.15451 0.4512,-0.73005 0.2733,-0.88244 -0.4839,-0.41448 -0.8634,0.53364 -0.279,2.41361 2.0955,6.74086 1.8111,3.300454 3.7429,6.004944 4.2929,6.009974 0.55,0.005 1.3015,0.49701 1.67,1.09328 0.8429,1.36381 3.83,1.86015 3.83,0.6364 0,-0.50134 1.6274,-0.91152 3.6166,-0.91152 3.1243,0 3.5454,0.27226 3.0936,2 -0.4072,1.55716 -0.045,1.98252 1.6334,1.92105 1.186,-0.0434 1.5938,-0.30592 0.9063,-0.58333 z m -11.3006,-5.24309 c 1.2292,-2.29673 2.5704,-2.68065 3.5918,-1.0281 0.7979,1.29101 0.6049,1.48621 -2.377,2.40387 -2.1273,0.6547 -2.2357,0.5319 -1.2148,-1.37577 z m 7.4477,4.07204 c 0.2832,-0.45834 -0.1204,-0.83334 -0.897,-0.83334 -0.7766,0 -1.1803,0.375 -0.897,0.83334 0.2832,0.45833 0.6869,0.83333 0.897,0.83333 0.21,0 0.6137,-0.375 0.897,-0.83333 z m -9.397,-9.225694 c 0,-0.58245 -0.45,-0.7809 -1,-0.44098 -0.55,0.33992 -1,0.81648 -1,1.05902 0,0.24254 0.45,0.44098 1,0.44098 0.55,0 1,-0.47656 1,-1.05902 z m 30.3815,-0.49292 c 0.3415,-0.88992 0.1738,-1.29132 -0.393,-0.94098 -0.5437,0.33603 -0.9886,1.0344 -0.9886,1.55194 0,1.43843 0.7168,1.12146 1.3816,-0.61096 z m -22.9714,-2.54734 c -2.2563,-2.49323 -2.4567,-2.39811 -1.0824,0.51392 0.6267,1.32805 1.5137,2.18337 1.971,1.90072 0.4574,-0.28265 0.057,-1.36924 -0.8886,-2.41464 z m 6.9515,-1.40072 c 0.3166,-0.825 0.4198,-1.5 0.2294,-1.5 -0.1904,0 -0.9064,0.675 -1.5911,1.5 -0.7175,0.86459 -0.8147,1.5 -0.2294,1.5 0.5585,0 1.2745,-0.675 1.5911,-1.5 z m -1.8617,-1.5 c 1.7471,-1.93046 1.7467,-2 -0.012,-2 -1.0019,0 -1.5255,0.2961 -1.1636,0.65799 0.3619,0.3619 0.1568,1.2619 -0.4558,2 -1.7585,2.11894 -0.3779,1.562 1.6311,-0.65799 z m 13.8053,-3.05931 c 0.4354,-1.66503 0.1246,-2.00009 -1.6232,-1.75 -1.1889,0.17012 -2.3117,1.09681 -2.4952,2.05931 -0.4913,2.57805 3.4406,2.28274 4.1184,-0.30931 z m -18.3072,-4.44193 c 0.4751,0.29363 1.192,-0.036 1.5932,-0.73244 0.4012,-0.69648 0.3611,-0.93272 -0.089,-0.52499 -0.4501,0.40773 -1.5086,0.18273 -2.3523,-0.5 -0.9786,-0.79193 -1.2855,-0.82672 -0.8477,-0.0961 0.7306,1.21942 -1.9228,2.70741 -3.3048,1.85326 -0.4521,-0.2794 -0.6943,0.28164 -0.5382,1.24676 0.1561,0.96512 -0.1836,2.42976 -0.755,3.25476 -0.5713,0.825 0.4167,0.0296 2.1955,-1.76755 1.7789,-1.79715 3.6231,-3.02731 4.0982,-2.73369 z m 1.0111,3.01225 c -1.0921,-1.31592 -3.0091,-1.24774 -3.0091,0.10703 0,0.275 0.4189,0.2411 0.9309,-0.0753 0.512,-0.31643 1.2135,-0.11799 1.559,0.44098 0.3454,0.55897 0.8816,1.01631 1.1915,1.01631 0.3099,0 0.01,-0.67004 -0.6723,-1.48899 z m 7.7965,-2.03813 c -0.7851,-1.72324 -1.477,-2.20159 -2.1748,-1.50375 -0.6978,0.69784 -0.4043,1.49161 0.9229,2.49532 2.5724,1.9455 2.5854,1.93516 1.2519,-0.99157 z m 4.1943,-3.03189 c 0,-0.24254 -0.45,-0.44099 -1,-0.44099 -0.55,0 -1,0.47656 -1,1.05902 0,0.58246 0.45,0.7809 1,0.44098 0.55,-0.33991 1,-0.81647 1,-1.05901 z m -10.2475,-3.08489 c -1.0673,-2.34263 -0.9509,-2.81234 1.0215,-4.12198 2.2287,-1.4798 3.1081,-5.23411 1.226,-5.23411 -0.55,0 -1,-1.34658 -1,-2.9924 0,-1.64582 -0.9811,-4.12082 -2.1803,-5.5 -2.9859,-3.43417 -4.4297,-3.17311 -1.9227,0.34767 1.1182,1.5704 2.3314,4.7204 2.6959,7 0.549,3.4336 0.3835,4.14472 -0.965,4.14472 -0.8953,0 -1.6278,0.46446 -1.6278,1.03212 0,1.47218 2.7942,7.96788 3.4275,7.96788 0.2912,0 -0.012,-1.18975 -0.6751,-2.6439 z m 8.0705,-0.21085 c 0.1777,-1.20896 0.95,-3.40654 1.7163,-4.88353 0.9621,-1.85452 1.0612,-2.89061 0.3202,-3.34857 -0.7409,-0.45788 -0.7494,-0.86311 -0.028,-1.30918 0.5749,-0.35531 1.5093,0.15094 2.0764,1.125 0.567,0.97407 1.0447,1.26363 1.0614,0.64348 0.069,-2.5515 -2.4434,-3.2202 -4.8303,-1.28573 -1.7877,1.44877 -1.9698,1.91328 -0.75,1.91328 2.3614,0 1.9664,2.67372 -0.4899,3.31607 -1.1567,0.30247 -1.8042,1.02892 -1.441,1.61663 0.3628,0.58702 -0.015,1.0673 -0.8403,1.0673 -0.825,0 -1.7781,-0.45 -2.1181,-1 -0.972,-1.57271 -2.5013,-1.16715 -1.8638,0.49426 0.3154,0.82184 0.8943,1.29594 1.2865,1.05356 0.3921,-0.24238 1.3469,0.43874 2.1216,1.5136 1.7321,2.40313 3.3486,2.0112 3.7788,-0.91617 z m -14.0999,-1.18096 c 2.1388,-2.43967 2.1482,-2.53571 0.25,-2.53571 -1.2417,0 -1.973,0.67497 -1.973,1.82089 0,1.56678 -0.314,1.65835 -2.25,0.65618 l -2.25,-1.16472 2,2.00053 c 1.1,1.10029 2,1.94608 2,1.87953 0,-0.0665 1.0003,-1.26206 2.223,-2.6567 z m 22.9953,-0.98856 c -0.1201,-0.45901 0.6816,-1.51894 1.7816,-2.35541 1.9651,-1.4943 1.9608,-1.51095 -0.25,-0.95395 -1.2375,0.31179 -2.25,1.0169 -2.25,1.5669 0,0.55 -0.8731,0.77167 -1.9402,0.49261 -1.6504,-0.43157 -1.7731,-0.23978 -0.8218,1.28359 1.073,1.71807 3.9316,1.69036 3.4804,-0.0337 z m 5.3016,0.0615 c -0.5989,-1.11901 -1.6696,-1.72518 -2.4907,-1.4101 -1.1355,0.43575 -1.1852,0.84287 -0.2347,1.92472 1.9496,2.21908 3.9829,1.83514 2.7254,-0.51462 z m -4.02,-4.50205 c 0,-0.25565 -0.9,-0.94648 -2,-1.53518 -1.2052,-0.64504 -2,-0.68816 -2,-0.10851 0,0.52902 0.7875,1.16765 1.75,1.41918 0.9625,0.25153 1.8625,0.50952 2,0.57332 0.1375,0.0638 0.25,-0.0932 0.25,-0.34881 z m -10.3958,-15.26435 c -0.3323,-0.33229 -0.5686,0.25833 -0.5252,1.3125 0.048,1.16494 0.2849,1.4019 0.6042,0.60417 0.2888,-0.72188 0.2533,-1.58438 -0.079,-1.91667 z m -1.6042,-2.32985 c 0,-0.58246 -0.45,-0.7809 -1,-0.44098 -0.55,0.33991 -1,0.81647 -1,1.05901 0,0.24254 0.45,0.44099 1,0.44099 0.55,0 1,-0.47656 1,-1.05902 z m 5.8998,-4.19098 c -1.5594,-2.99709 -1.6056,-3.03505 -2.3088,-1.89715 -0.3352,0.54225 0.1019,1.69719 0.9713,2.56653 2.215,2.21505 2.7094,1.96761 1.3375,-0.66938 z"
       id="path3780-71"
       inkscape:connector-curvature="0"
       sodipodi:nodetypes="cscssscscsssscsccsssscccsccsscscssssscsssscsssscscsscccscsssscssscsccsccsssccccccccscscsssssscssccccsscsscsscccsscsccscccscccccsccscccsccssscscssscsssssccccccccsccscccccccssscssccsssccccccccscsssssccsscssscccc" />
    <path
       style="fill:#000000"
       d="m 951.54219,232.94106 c -0.9011,-1.8989 -1.6383,-3.94231 -1.6383,-4.5409 0,-0.59859 -1.1499,-3.9606 -2.5552,-7.47113 -2.776,-6.93428 -2.8556,-6.99682 -15.9448,-12.53153 -8.92858,-3.77538 -9.46011,-5.65103 -2.8016,-9.88589 2.6409,-1.67959 9.0766,-4.84588 14.3016,-7.03619 12.2825,-5.14882 40.715,-18.3854 45.8909,-21.36424 6.4115,-3.69001 6.945,-1.98101 3.2302,10.34695 -2.8593,9.4889 -9.9965,39.18903 -11.5547,48.08264 -0.8314,4.7452 -2.3476,4.81291 -11.1972,0.5 -3.6678,-1.7875 -6.8341,-2.8 -7.0364,-2.25 -0.2022,0.55 -1.3845,2.8 -2.6273,5 -3.0112,5.33051 -5.8888,5.74083 -8.0672,1.15029 z m 5.7118,-2.65029 c 1.2774,-2.56056 1.2881,-3 0.073,-3 -1.6144,0 -1.949,-3.55709 -0.4234,-4.5 0.55,-0.33992 1,-1.33622 1,-2.214 0,-1.38996 -0.2581,-1.36234 -2,0.214 -1.1,0.99549 -2,2.60273 -2,3.57165 0,0.96893 -0.4157,1.91168 -0.9238,2.09502 -0.8834,0.31877 1.3115,6.83333 2.3023,6.83333 0.2613,0 1.1485,-1.35 1.9716,-3 z m 22.9668,-13.60217 c 1.5493,-6.92855 2.6593,-12.7549 2.4668,-12.94744 -0.1925,-0.19253 -1.3815,3.56487 -2.6422,8.34977 -1.2607,4.78491 -2.8716,10.61234 -3.5798,12.94984 -0.9137,3.01589 -0.9644,4.2493 -0.1747,4.2476 0.6122,-10e-4 2.3806,-5.67121 3.9299,-12.59977 z m -1.3267,-9.89783 c 5.7881,-20.41076 5.6557,-19.57037 2.522,-16 -4.9526,5.64292 -20.5122,26.56238 -20.5122,27.57819 0,0.5578 2.8125,2.28399 6.25,3.83597 5.4967,2.48169 6.3245,2.62678 6.8682,1.20381 0.34,-0.88988 2.5324,-8.36797 4.872,-16.61797 z m -29.2109,8.55768 c 0.06,-2.10308 -0.3076,-2.79218 -1.2881,-2.41594 -1.0743,0.41223 -1.133,1.05033 -0.271,2.94232 1.392,3.05517 1.4579,3.03295 1.5591,-0.52638 z m 5.4082,-1.74079 c -0.7219,-0.28887 -1.5844,-0.25335 -1.9167,0.0789 -0.3323,0.33229 0.2583,0.56864 1.3125,0.52522 1.1649,-0.048 1.4019,-0.28494 0.6042,-0.60416 z m -0.6321,-9.02059 c 3.8195,-3.13704 11.4446,-10.12251 16.9446,-15.52327 l 10,-9.81956 -10,4.61748 c -5.5,2.53962 -13.9004,6.34986 -18.6675,8.46721 -13.3329,5.92189 -21.1026,10.0251 -20.3702,10.75752 0.6705,0.67052 13.5619,6.95882 14.5931,7.11838 0.3055,0.0473 3.6805,-2.48073 7.5,-5.61776 z m 9.8416,3.87037 c 0.2832,-0.45834 -0.1204,-0.83334 -0.897,-0.83334 -0.7766,0 -1.1803,0.375 -0.897,0.83334 0.2832,0.45833 0.6869,0.83333 0.897,0.83333 0.21,0 0.6137,-0.375 0.897,-0.83333 z m -2.8821,-4.16667 c 0.6991,0 1.5301,-0.675 1.8467,-1.5 0.3166,-0.825 1.2382,-1.5 2.048,-1.5 1.9708,0 2.9151,-1.68124 1.4522,-2.58541 -0.7313,-0.45192 -0.903,-0.29014 -0.4573,0.4309 0.4152,0.67192 0.1014,1.15451 -0.7509,1.15451 -1.9459,0 -9.7519,6.56844 -8.8627,7.45761 0.3825,0.3825 1.3159,-0.23898 2.0742,-1.38107 0.7584,-1.1421 1.9508,-2.07654 2.6498,-2.07654 z m 11.8952,-7.90072 c 1.2927,-1.42834 1.417,-2.08806 0.5005,-2.65451 -0.7789,-0.48139 -0.9618,-0.33658 -0.5061,0.40072 0.3924,0.63498 0.2369,1.15451 -0.3455,1.15451 -0.5825,0 -1.059,-0.51974 -1.059,-1.15499 0,-0.65499 -0.8658,-0.37144 -2,0.65499 -1.1,0.99549 -2,2.19023 -2,2.65499 0,1.57425 3.6799,0.85617 5.4101,-1.05571 z m 7.7938,-10.59928 c 0.6078,-1.1 -0.8894,-0.2 -3.3269,2 -2.6615,2.40205 -4.0215,4.29786 -3.4045,4.74561 1.0116,0.73409 4.5677,-2.82951 6.7314,-6.74561 z m 9.2087,-9.00778 c 0.3183,-1.26853 0.89,-3.13572 1.2703,-4.14932 0.6092,-1.62337 0.4905,-1.67942 -0.9957,-0.47046 -0.928,0.75485 -1.6872,1.85085 -1.6872,2.43555 0,0.58471 -0.9242,2.04683 -2.0537,3.24915 l -2.0537,2.18604 2.4705,-0.47227 c 1.5246,-0.29144 2.6922,-1.35542 3.0495,-2.77869 z"
       id="path3780-15"
       inkscape:connector-curvature="0"
       sodipodi:nodetypes="sscssssssscsscscscsssccscsscsscsscscscccccccsscssscscscscsssccsccscccsssscccsccccsccsc" />
    <path
       style="fill:#000000"
       d="m 1172.6732,301.95264 c -2.0437,-5.32601 0.3314,-16.41821 3.5156,-16.41821 3.769,0 4.6026,7.56504 1.6805,15.25 -1.1481,3.0192 -4.2207,3.71001 -5.1961,1.16821 z m 3.1964,-6.27238 c -1.4536,-0.55453 -1.9145,0.40092 -1.152,2.38793 0.6636,1.72932 0.7328,1.72399 1.3894,-0.10687 0.38,-1.05979 0.2732,-2.08627 -0.2374,-2.28106 z m 1.1966,-6.20485 c 0,-0.58246 -0.45,-0.7809 -1,-0.44098 -0.55,0.33992 -1,0.81648 -1,1.05902 0,0.24254 0.45,0.44098 1,0.44098 0.55,0 1,-0.47656 1,-1.05902 z m -22.7163,7.35592 c -0.3934,-1.02515 0.547,-3.91119 2.3624,-7.25 2.5954,-4.77359 3.4228,-5.5469 5.9349,-5.5469 3.8365,0 4.3382,3.09221 1.3613,8.38898 -3.0272,5.38616 -8.3509,7.81574 -9.6586,4.40792 z m 8.7163,-8.81268 c 0,-0.81632 -0.2087,-1.48422 -0.4639,-1.48422 -0.7528,0 -5.5387,7.3718 -5.5067,8.48213 0.046,1.60408 5.9706,-5.33969 5.9706,-6.99791 z m 26.7246,2.76395 c -1.9254,-2.12754 -3.7246,-6.65848 -3.7246,-9.37969 0,-1.58845 0.5607,-1.93605 2.7177,-1.6849 3.304,0.38468 7.2823,5.8282 7.2823,9.9643 0,2.32533 -0.4331,2.85212 -2.345,2.85212 -1.2897,0 -3.0584,-0.78832 -3.9304,-1.75183 z m 3.2754,-2.24817 c 0,-0.55 -0.4765,-1 -1.059,-1 -0.5824,0 -0.7809,0.45 -0.441,1 0.34,0.55 0.8165,1 1.0591,1 0.2425,0 0.4409,-0.45 0.4409,-1 z m 0,-2.34501 c 0,-0.18976 -0.9,-1.1595 -2,-2.15499 -1.8514,-1.67552 -2,-1.68265 -2,-0.096 0,0.9427 0.4189,1.45511 0.9309,1.13868 0.512,-0.31644 1.2136,-0.11799 1.5591,0.44098 0.6056,0.97996 1.51,1.38202 1.51,0.6713 z m -26.5495,-4.06159 c -10.404,-4.53169 -12.5622,-21.5327 -3.8122,-30.03057 3.0273,-2.94005 3.2939,-3.611 2.385,-6.00157 -0.5628,-1.4803 -1.0233,-5.10684 -1.0233,-8.05897 0,-4.57499 0.3102,-5.46596 2.1007,-6.03424 3.2425,-1.02913 4.1779,0.81586 4.2932,8.46816 0.1033,6.85824 0.175,7.0488 2.6553,7.05619 2.2828,0.007 2.5125,-0.33214 2.1974,-3.2424 -0.494,-4.56399 3.504,-12.14402 6.6391,-12.58732 2.2908,-0.32392 2.3666,-0.14019 1.909,4.62223 -0.2798,2.91275 -1.4126,6.27416 -2.7447,8.1449 -1.2475,1.75194 -2.1065,3.27193 -1.909,3.37777 0.1975,0.10583 1.8215,0.95899 3.609,1.89591 l 3.25,1.70349 0,-2.75732 c 0,-5.97277 10.7969,-12.23063 11.8223,-6.85217 0.4267,2.23824 -4.2211,8.4715 -7.3952,9.91768 -2.2787,1.03827 -2.3067,1.18004 -0.7518,3.81226 l 1.615,2.73389 3.2851,-1.9383 c 4.2393,-2.50125 12.7317,-2.24441 13.2338,0.40022 0.7404,3.89985 -11.463,7.72293 -14.6092,4.57676 -0.9333,-0.93333 -1.1993,-0.21111 -1.1968,3.25 l 0,4.45 3.786,0.0414 c 5.7673,0.063 10.3734,2.29554 10.0086,4.85104 -0.2381,1.66739 -1.1223,2.1747 -4.2335,2.42885 -4.5397,0.37084 -7.9208,-1.13509 -9.398,-4.1858 -0.8037,-1.65969 -1.0491,-1.76266 -1.1017,-0.46218 -0.109,2.69333 -5.1537,7.96083 -9.5264,9.94707 -4.7374,2.15192 -10.8002,2.34197 -15.0909,0.47306 z m 8.7995,-1.25568 c -0.6875,-0.27741 -1.8125,-0.27741 -2.5,0 -0.6875,0.27741 -0.125,0.50439 1.25,0.50439 1.375,0 1.9375,-0.22698 1.25,-0.50439 z m 4.0322,-3.70884 c 5.3561,-2.28221 8.2178,-6.16021 8.2178,-11.13611 0,-5.48218 -2.6032,-9.17028 -8.8179,-12.49277 -4.3472,-2.32402 -4.8666,-2.39369 -7.3791,-0.98976 -4.2843,2.39394 -6.3187,6.89627 -6.5751,14.5514 -0.2248,6.71052 -0.1827,6.83173 3.17,9.11963 3.891,2.65519 6.8071,2.89793 11.3843,0.94761 z m -15.8268,-19.87888 c 0.4173,-0.9625 0.4625,-1.75 0.1006,-1.75 -0.3619,0 -1.31,1.56055 -2.107,3.46788 -1.5664,3.74906 -1.8604,9.53847 -0.6872,13.53212 0.5256,1.78904 0.9052,0.22493 1.3347,-5.5 0.3302,-4.4 0.9417,-8.7875 1.3589,-9.75 z m 38.1035,15.7182 c -1.0676,-0.80751 -2.8676,-1.45389 -4,-1.4364 -2.0253,0.0313 -2.0272,0.0557 -0.1177,1.5 1.0676,0.80751 2.8676,1.45389 4,1.4364 2.0253,-0.0313 2.0272,-0.0557 0.1177,-1.5 z m 0.8594,-14.07519 c 0.8699,-0.33384 1.5817,-1.0446 1.5817,-1.57945 0,-1.12038 -5.9918,-0.0814 -7.45,1.29179 -1.0845,1.02139 3.3852,1.24049 5.8683,0.28766 z m -9.9661,-12.51858 c 3.5533,-4.22276 2.2615,-5.10155 -1.479,-1.0062 -3.1741,3.47523 -3.5018,4.13177 -2.062,4.13177 0.5011,0 2.0946,-1.40651 3.541,-3.12557 z m -24.3139,-6.67807 c -0.1663,-2.033 -0.7154,-4.12386 -1.2203,-4.64636 -1.0862,-1.12412 -1.1569,0.37079 -0.2711,5.73082 0.7802,4.72116 1.8997,3.90717 1.4914,-1.08446 z m 13.2526,-2.69636 0.6893,-3 -2.0335,3 c -1.1184,1.65 -2.0364,3.88763 -2.0401,4.97251 -0.01,1.96334 -3e-4,1.96334 1.3442,0 0.743,-1.08488 1.661,-3.32251 2.0401,-4.97251 z m -38.1409,44.83772 c -2.0389,-0.82275 -1.4339,-3.04788 1.4445,-5.31199 3.4302,-2.69826 11.5902,-2.56522 12.1147,0.19751 0.6585,3.46854 -8.7982,7.03558 -13.5592,5.11448 z m 8.2912,-3.40425 c 1.0602,-1.71546 0.165,-1.83976 -3.0412,-0.42226 l -3,1.32635 2.691,0.0812 c 1.4801,0.0447 2.9876,-0.39872 3.3502,-0.98531 z m -7.0412,-10.28842 c -4.9252,-1.47909 -6.1388,-5.01692 -2.0712,-6.03783 6.3824,-1.60188 12.5712,1.26677 12.5712,5.82704 0,1.90129 -4.5656,1.99295 -10.5,0.21079 z m 6.0589,-2.17685 c -1.0676,-0.80751 -3.0926,-1.42102 -4.5,-1.36335 -2.1235,0.087 -1.8783,0.32914 1.4411,1.42315 5.1622,1.70131 5.3816,1.69702 3.0589,-0.0598 z m 0.7791,-7.40887 c -1.6078,-0.97774 -4.1415,-3.22559 -5.6306,-4.99524 -6.4744,-7.69447 -0.4284,-10.04828 6.9242,-2.69567 6.346,6.34602 5.4319,11.78091 -1.2936,7.69091 z m -0.5495,-5.4887 c -1.7947,-1.88615 -3.461,-3.23145 -3.7029,-2.98957 -0.5666,0.56668 5.0197,6.41894 6.1273,6.41894 0.4612,0 -0.6298,-1.54321 -2.4244,-3.42937 z m 3.1669,-6.01353 c -4.7551,-6.29808 -5.1369,-10.22903 -0.9521,-9.8028 3.2606,0.33209 6.657,4.27038 8.0073,9.28472 2.1046,7.81589 -1.3536,8.06983 -7.0552,0.51808 z m 4.0446,-1.50134 c 0,-1.3689 -4.9307,-6.76832 -4.9684,-5.44062 -0.031,1.10715 3.7222,6.38486 4.541,6.38486 0.2351,0 0.4274,-0.42491 0.4274,-0.94424 z"
       id="path3780-27"
       inkscape:connector-curvature="0"
       sodipodi:nodetypes="csccsscssssssccsscsscscsssscsscsscsscccccsssssccscscscsscscsscccccsccsccsssssscsssscsccccssssscscccsscscssscsccsccsccsccccssssssssscssccscsscsscss" />
    <path
       style="fill:#000000"
       d="m 1074.8263,217.03204 c -0.54,-1.00899 -2.5875,-2.92149 -4.55,-4.25 -7.2377,-4.89951 -9.9342,-16.31621 -4.958,-20.99117 3.5046,-3.29237 10.7814,-3.43048 13.354,-0.25344 1.7477,2.15832 1.7747,2.1598 4.6617,0.25659 3.6753,-2.42291 9.2389,-2.41554 12.1537,0.0161 4.771,3.98007 1.7544,11.46887 -8.2357,20.44544 -7.547,6.78129 -10.7034,7.99464 -12.4257,4.77648 z m 9.2313,-5.86792 c 4.142,-3.87434 5.0408,-5.32716 5.1037,-8.25 0.07,-3.23272 0.3205,-3.53085 2.8264,-3.3593 2.2929,0.15697 2.75,-0.21319 2.75,-2.22694 0,-3.33587 -3.9147,-5.82445 -7.1983,-4.57601 -1.3576,0.51615 -2.4683,1.66811 -2.4683,2.55991 0,1.11583 0.3222,1.29922 1.0333,0.58811 1.4744,-1.47436 3.6333,-1.2772 3.6333,0.33181 0,0.75083 -0.9,2.50931 -2,3.90773 -1.1,1.39842 -2,3.46828 -2,4.59968 0,1.13139 -0.7875,2.47842 -1.75,2.99339 -1.4961,0.80049 -1.7465,0.47922 -1.7264,-2.21482 0.013,-1.73311 0.3511,-3.67165 0.7514,-4.30786 0.4929,-0.78334 0.077,-0.98648 -1.2892,-0.62929 -2.6064,0.68159 -3.4983,2.15212 -1.7193,2.83477 1.9396,0.74432 1.4643,4.44373 -0.782,6.08628 -1.0267,0.75074 -1.4207,1.36498 -0.8756,1.36498 0.5451,0 1.5311,-0.54 2.1911,-1.2 1.6181,-1.61805 1.4709,0.25937 -0.192,2.45 -1.827,2.40677 -3.0848,2.19364 -4.426,-0.75 -0.6265,-1.375 -1.953,-2.5 -2.9477,-2.5 -2.2361,0 -2.6672,-3.39581 -0.6442,-5.07475 1.2081,-1.00264 1.3397,-0.88642 0.7735,0.68331 -0.3752,1.04029 -0.3095,1.55296 0.146,1.13926 0.4555,-0.4137 1.6522,-0.006 2.6593,0.90499 1.7072,1.54499 1.8311,1.54114 1.8311,-0.0568 0,-0.9427 -0.4189,-1.45511 -0.9309,-1.13868 -2.1927,1.35519 -2.1591,-1.88367 0.037,-3.57227 1.3166,-1.0123 2.1689,-1.88498 1.8939,-1.9393 -3.353,-0.66218 -3.9334,-0.64684 -3.4768,0.0919 0.293,0.47412 -0.3525,1.33584 -1.4345,1.91492 -1.3055,0.69869 -2.1758,0.71557 -2.5871,0.0502 -0.3408,-0.55148 -1.1291,-1.0027 -1.7518,-1.0027 -0.6226,0 -0.3029,0.60631 0.7105,1.34736 1.2768,0.93358 1.489,1.56591 0.6912,2.05901 -3.1879,1.97022 -4.2258,-3.4282 -1.6259,-8.45603 1.7009,-3.289 4.8387,-3.91403 6.0261,-1.20034 0.4212,0.9625 0.6832,2.12095 0.5822,2.57433 -0.1009,0.45338 0.3076,0.52082 0.9078,0.14986 0.6002,-0.37096 1.7221,0.1581 2.493,1.17567 0.8632,1.13934 1.4139,1.35696 1.4335,0.56644 0.053,-2.12481 -5.8683,-7.2163 -8.3919,-7.2163 -3.9372,0 -6.9942,3.2427 -6.8792,7.29715 0.1315,4.64149 2.5243,8.54016 7.3759,12.0177 2.1598,1.54817 3.927,3.23567 3.927,3.75 0,2.02144 2.5151,0.72699 7.3198,-3.76729 z m 9.1801,-9.29756 c -0.3399,-0.55 -1.1539,-0.99311 -1.809,-0.98469 -0.7156,0.009 -0.5923,0.40223 0.309,0.98469 1.9212,1.24153 2.2673,1.24153 1.5,0 z m -20.5,-1.37756 c 0,-0.20765 -0.7875,-0.99515 -1.75,-1.75 -1.586,-1.24387 -1.6214,-1.2085 -0.3775,0.37756 1.3063,1.66575 2.1275,2.19548 2.1275,1.37244 z"
       id="path3780-27-6"
       inkscape:connector-curvature="0"
       sodipodi:nodetypes="ssssssssccsssscssscccccsscsssscscsccccscscccccsccsccsccccccsccs" />
  </g>
</svg>
