<?xml version="1.0" encoding="UTF-8" standalone="no"?>
<!-- Created with Inkscape (http://www.inkscape.org/) -->

<svg
   xmlns:dc="http://purl.org/dc/elements/1.1/"
   xmlns:cc="http://creativecommons.org/ns#"
   xmlns:rdf="http://www.w3.org/1999/02/22-rdf-syntax-ns#"
   xmlns:svg="http://www.w3.org/2000/svg"
   xmlns="http://www.w3.org/2000/svg"
   xmlns:sodipodi="http://sodipodi.sourceforge.net/DTD/sodipodi-0.dtd"
   xmlns:inkscape="http://www.inkscape.org/namespaces/inkscape"
   id="svg4403"
   version="1.1"
   inkscape:version="0.48.5 r10040"
   width="626"
   height="626"
   sodipodi:docname="silueta.jpg">
  <metadata
     id="metadata4409">
    <rdf:RDF>
      <cc:Work
         rdf:about="">
        <dc:format>image/svg+xml</dc:format>
        <dc:type
           rdf:resource="http://purl.org/dc/dcmitype/StillImage" />
        <dc:title></dc:title>
      </cc:Work>
    </rdf:RDF>
  </metadata>
  <defs
     id="defs4407" />
  <sodipodi:namedview
     pagecolor="#ffffff"
     bordercolor="#666666"
     borderopacity="1"
     objecttolerance="10"
     gridtolerance="10"
     guidetolerance="10"
     inkscape:pageopacity="0"
     inkscape:pageshadow="2"
     inkscape:window-width="1920"
     inkscape:window-height="1017"
     id="namedview4405"
     showgrid="false"
     inkscape:zoom="1.066308"
     inkscape:cx="392.29269"
     inkscape:cy="322.47715"
     inkscape:window-x="-8"
     inkscape:window-y="-8"
     inkscape:window-maximized="1"
     inkscape:current-layer="svg4403" />
  <g
     id="g4413"
     transform="matrix(1,0,0,1.1466858,1.8756343,-91.167786)">
    <path
       style="fill:#cfcfcf"
       d="M 1.25,627.33772 C 0.29309719,626.9516 -2.9924228e-4,620.46335 -0.00127621,599.66667 -0.00327145,557.19384 2.5240225,543.06771 14.54684,518.35102 36.678567,472.85227 79.681989,440.71151 130,432.06133 l 12.5,-2.14887 174.5,0.31975 174.5,0.31975 10,2.28074 c 41.97808,9.57414 75.6775,32.23083 98.91225,66.50037 8.82615,13.01793 17.26599,30.97548 21.22792,45.16693 2.8879,10.34432 4.32001,28.70527 4.34003,55.64301 0.0174,23.38426 -0.17367,26.71725 -1.56199,27.25 C 622.52519,628.11943 3.051071,628.06447 1.25,627.33772 z M 303,393.37645 C 237.41225,389.29282 180.40341,343.96832 161.65372,281 c -16.72799,-56.17869 -1.49785,-115.90532 40.13096,-157.37791 21.38662,-21.30637 48.4833,-36.0674 78.47042,-42.747089 11.75997,-2.619558 41.67332,-3.688959 53.95264,-1.928805 60.74798,8.707787 110.40645,50.356554 129.20935,108.368434 12.43479,38.36458 9.10918,82.79292 -8.87818,118.6079 -20.65286,41.1223 -57.7329,71.26753 -101.53891,82.54883 -14.90038,3.83727 -35.1867,5.82739 -50,4.90509 z"
       id="path4427"
       inkscape:connector-curvature="0" />
    <path
       style="fill:#b3b3b3"
       d="M 1.25,627.33772 C -0.57117538,626.60286 -0.44874974,578.00788 1.4095671,564 9.6437175,501.93149 57.629993,449.81046 120.5,434.6481 137.85599,430.46236 136.10926,430.5 313,430.5 c 176.89074,0 175.14401,-0.0376 192.5,4.1481 51.37319,12.38967 93.67473,49.78317 111.53841,98.59716 7.25726,19.83106 8.9422,32.5148 8.95328,67.39775 0.007,22.92147 -0.18661,26.21781 -1.57348,26.75 C 622.52519,628.11943 3.051071,628.06447 1.25,627.33772 z M 295.67499,391.94395 C 236.99392,385.12402 187.97644,347.24766 166.10942,291.82716 159.3926,274.80382 156.04208,256.3501 156.01746,236.24342 c -0.0445,-36.31006 10.73531,-68.04674 33.03,-97.24342 6.56459,-8.59685 20.668,-22.53396 29.45254,-29.10525 41.47938,-31.028704 95.06364,-39.690804 144.32235,-23.330257 34.26819,11.381668 63.67002,34.511637 83.49522,65.684397 22.95645,36.09629 29.79733,82.74238 18.31154,124.86134 -10.3143,37.82304 -34.74618,70.62182 -68.62911,92.1317 -28.40326,18.03124 -66.44517,26.63954 -100.32501,22.70202 z"
       id="path4425"
       inkscape:connector-curvature="0" />
    <path
       style="fill:#909090"
       d="M 0.29145286,596.75 C 0.81580382,562.793 1.5659237,557.03943 7.9682973,537.86712 16.007803,513.79232 27.938332,494.75609 46.428766,476.5 66.455677,456.72691 91.147069,442.55696 116.94428,436.0324 137.2293,430.90198 133.41042,431 313,431 c 179.58958,0 175.7707,-0.098 196.05572,5.0324 33.33928,8.43208 65.55218,30.16742 86.12383,58.11123 9.99415,13.57571 16.69047,25.96537 21.68085,40.11431 7.45043,21.12377 9.1396,33.49153 9.1396,66.9182 L 626,627 312.91217,627 -0.17565599,627 0.29145286,596.75 z M 288,390.51042 c -33.66021,-5.76504 -62.18065,-20.50019 -86.02518,-44.44513 -41.53439,-41.70928 -56.18044,-103.35395 -37.86899,-159.38914 9.68832,-29.64739 29.20563,-57.05908 53.74302,-75.48102 10.40254,-7.80992 14.31322,-10.252 25.06255,-15.650632 C 265.1374,84.381929 287.93724,79 313,79 c 52.96648,0 101.47053,26.10194 130.70837,70.33932 26.6239,40.28246 33.12648,90.11361 17.78673,136.30495 -18.46943,55.61547 -67.41571,96.4507 -126.18665,105.27584 -9.58907,1.4399 -37.94288,1.19436 -47.30845,-0.40969 z"
       id="path4423"
       inkscape:connector-curvature="0" />
    <path
       style="fill:#6e6e6e"
       d="M 0,603.03438 C 0,569.0805 2.4777817,552.80277 11.007751,530.71919 18.373427,511.64991 29.246708,494.88243 44.456326,479.1388 68.098922,454.6661 96.961031,439.52299 131.98811,433.21342 140.72674,431.63929 155.40132,431.5 312.5,431.5 c 158.57984,0 171.73802,0.12759 181.16099,1.75662 19.12602,3.30649 37.50698,9.72683 52.83901,18.45629 C 574.07054,467.4105 598.02954,493.2465 610.75334,521 622.74922,547.16575 626,564.54904 626,602.53027 L 626,627 313,627 0,627 0,603.03438 z M 295,390.9776 C 256.29538,385.59141 225.66043,370.23329 200,343.35155 171.8032,313.81273 157.03405,276.91046 157.0354,236 c 6.9e-4,-21.17158 2.69628,-36.26193 10.03719,-56.18981 11.16798,-30.31702 34.04062,-58.32359 62.19476,-76.15483 39.62381,-25.095488 88.58794,-31.024496 133.37692,-16.150456 55.16225,18.318916 96.23832,67.121346 104.87106,124.597176 3.85253,25.64967 0.50058,56.61908 -8.62898,79.72508 -20.41807,51.67611 -64.36098,87.6884 -119.36865,97.82553 -9.74779,1.79638 -35.60078,2.5658 -44.5177,1.32491 z"
       id="path4421"
       inkscape:connector-curvature="0" />
    <path
       style="fill:#4f4f4f"
       d="M 0.26937281,598.5 C 0.72200519,573.3173 1.0311177,569.30647 3.3415124,558.63796 6.8898564,542.25308 10.23768,532.50893 17.131818,518.5 36.533946,479.07475 73.424547,448.58058 115.0564,437.5545 136.69656,431.82317 130.39476,432 313,432 c 182.64144,0 176.29827,-0.17827 197.97892,5.5639 41.66576,11.03527 78.46125,41.45826 97.88926,80.9361 6.88267,13.98563 10.22925,23.71711 13.80312,40.13796 2.33239,10.71662 2.62824,14.56578 3.06382,39.86204 l 0.48214,28 -313.22558,0 -313.22557763,0 0.50327044,-28 z M 300.5,390.90847 c -15.2513,-1.13404 -28.23071,-4.08333 -43.62279,-9.91234 -39.96909,-15.13637 -74.4182,-49.65748 -89.47638,-89.66337 -15.42497,-40.98036 -12.98422,-87.53827 6.62559,-126.38509 11.78378,-23.34354 32.8863,-46.5599 55.57787,-61.14512 7.23106,-4.647832 23.62188,-12.41788 32.89571,-15.594165 18.01404,-6.169808 27.79041,-7.650971 50.5,-7.650971 17.61915,0 21.97556,0.321003 31,2.284236 30.7525,6.690089 55.15414,19.65375 77.36276,41.09988 27.36449,26.42499 43.4634,60.29022 46.6911,98.21817 3.98182,46.7895 -11.98617,90.53433 -45.16581,123.73322 C 390.5234,378.27634 346.816,394.35236 300.5,390.90847 z"
       id="path4419"
       inkscape:connector-curvature="0" />
    <path
       style="fill:#2d2d2d"
       d="M 0.28335119,599 C 0.57740241,583.875 1.2963529,569.925 1.8810188,568 2.4656848,566.075 3.6593755,560.675 4.5336649,556 7.2701496,541.36747 14.799861,521.76323 22.777745,508.5 47.090585,468.07991 87.683432,441.06089 135,433.80369 c 12.44396,-1.9086 343.55604,-1.9086 356,0 47.31657,7.2572 87.90942,34.27622 112.22225,74.69631 8.12951,13.51531 15.59311,33.0766 18.31436,48 0.90262,4.95 2.10628,10.125 2.67479,11.5 0.57967,1.40197 1.25968,14.79795 1.54825,30.5 l 0.51459,28 -313.26276,0 -313.26276739,0 L 0.28335119,599 z M 297,390.3051 c -38.18159,-4.08896 -75.46529,-23.33221 -100.34641,-51.79183 -20.28803,-23.20594 -32.97252,-50.62105 -37.57205,-81.20482 -1.53198,-10.18671 -1.30976,-35.20297 0.40569,-45.66937 5.47963,-33.43252 20.40904,-62.67852 43.85987,-85.91939 17.31132,-17.15632 37.72004,-29.812937 60.00863,-37.214786 32.72709,-10.868389 66.55482,-10.868196 99.28854,5.66e-4 43.31498,14.38212 79.09169,48.59423 95.18182,91.01932 7.29321,19.23008 10.13899,34.94106 10.13899,55.97521 0,32.34914 -8.24559,59.96905 -25.77134,86.32513 -28.85732,43.39706 -78.36763,69.63518 -130.19374,68.99651 -6.325,-0.0779 -13.075,-0.31038 -15,-0.51654 z"
       id="path4417"
       inkscape:connector-curvature="0" />
    <path
       style="fill:#000000"
       d="M 0.3669715,603 C 0.92337406,580.24602 1.1842022,576.16748 2.1928149,574.4495 2.4994107,573.92728 3.0668547,570.8 3.4538015,567.5 8.9591004,520.54914 39.003324,476.42319 81.574518,452.76411 97.896534,443.6931 115.63261,437.61644 134,434.80231 140.73194,433.77089 177.96524,433.5 313,433.5 c 135.03476,0 172.26806,0.27089 179,1.30231 51.73088,7.92585 96.2128,41.31525 117.91325,88.50902 5.54228,12.05328 9.6075,25.32819 11.54151,37.68867 0.9036,5.775 2.12206,12.3 2.7077,14.5 0.58563,2.2 1.28445,14.35 1.55292,27 l 0.48814,23 -313.19337,0 -313.1933704,0 L 0.3669715,603 z M 292.5,388.87524 c -23.31789,-4.20222 -30.86903,-6.55787 -48,-14.97407 C 199.46711,351.77717 167.40412,307.7904 160.0169,258 c -1.43183,-9.6506 -1.42029,-35.44512 0.0201,-45.04933 2.26674,-15.11371 8.06494,-33.28577 15.01105,-47.04593 12.1658,-24.10032 33.02154,-46.87247 56.45191,-61.63921 7.38683,-4.655469 24.86429,-12.72035 34,-15.689117 37.84995,-12.29983 80.88072,-9.023741 116.40184,8.862096 16.11413,8.113901 25.47891,14.839431 38.93104,27.959191 24.53785,23.93161 40.12283,54.16668 45.13008,87.55297 1.44043,9.60421 1.45197,35.39873 0.0201,45.04933 -4.85121,32.69756 -20.47059,63.4964 -44.11585,86.9892 -29.82297,29.63067 -67.9185,45.1967 -109.86725,44.89233 -7.975,-0.0579 -16.75,-0.5107 -19.5,-1.00629 z"
       id="path4415"
       inkscape:connector-curvature="0" />
  </g>
</svg>
